<svg version="1.0" xmlns="http://www.w3.org/2000/svg"
 width="512.000000pt" height="512.000000pt" viewBox="0 0 "
 preserveAspectRatio="xMidYMid meet">
<g transform="translate(0,512) scale(0.1,-0.1)"
fill="#5c5c5c" stroke="none">
<path d="M1637 4643 c-17 -5 -1495 -832 -1574 -881 -63 -40 -80 -95 -46 -152
18 -30 46 -45 238 -124 61 -24 125 -51 143 -58 l32 -14 -196 -110 c-108 -60
-203 -119 -212 -132 -8 -12 -15 -40 -16 -62 -1 -62 28 -83 239 -170 l186 -77
-193 -107 c-106 -59 -203 -118 -216 -132 -31 -35 -31 -102 1 -135 13 -15 99
-56 214 -104 l192 -79 -27 -16 c-15 -9 -99 -57 -187 -105 -192 -107 -205 -118
-205 -179 0 -32 6 -52 23 -70 15 -18 214 -107 667 -300 355 -151 726 -309 825
-351 871 -373 1858 -790 1893 -801 37 -11 49 -11 76 0 70 29 1573 919 1599
947 20 22 27 39 27 69 0 67 -31 89 -236 172 l-181 73 193 114 c107 62 201 123
209 134 8 12 15 41 15 65 0 65 -29 86 -234 167 -97 39 -176 72 -176 75 0 3 82
52 181 110 99 58 192 118 205 133 16 19 24 41 24 67 0 67 -27 87 -232 170
l-185 74 186 109 c102 60 196 120 208 134 32 34 32 102 1 137 -17 18 -230 110
-748 322 -399 163 -888 365 -1088 450 -199 85 -367 154 -372 154 -5 0 -274
108 -598 239 -323 132 -599 242 -613 244 -13 3 -32 3 -42 0z m478 -403 c231
-94 440 -181 465 -191 l44 -20 -599 -400 c-407 -271 -606 -398 -619 -395 -30
8 -1046 441 -1046 446 0 11 1306 740 1320 736 8 -2 204 -81 435 -176z m998
-406 l237 -97 -644 -429 c-424 -283 -648 -438 -655 -454 -8 -18 -11 -249 -11
-791 0 -608 -3 -764 -12 -760 -7 2 -122 51 -255 107 l-243 103 0 766 1 766
662 442 c364 243 667 442 672 442 6 1 117 -42 248 -95z m1070 -439 c323 -132
586 -243 585 -247 -3 -7 -1257 -748 -1304 -770 -18 -8 -113 28 -558 218 -295
125 -534 230 -531 232 14 15 1211 810 1216 809 3 -1 270 -110 592 -242z
m-3180 -226 l317 -133 0 -158 c0 -87 -3 -158 -7 -158 -4 0 -223 91 -485 202
-430 182 -475 204 -455 215 12 6 85 48 162 91 77 44 142 78 145 77 3 -1 148
-62 323 -136z m10 -555 l307 -129 0 -162 c0 -155 -1 -162 -19 -155 -86 32
-940 398 -941 403 0 13 306 179 326 176 11 -2 158 -62 327 -133z m3626 38
l139 -58 -661 -389 c-364 -214 -668 -388 -676 -388 -19 2 -1172 491 -1184 502
-4 4 -6 78 -5 164 l3 156 587 -250 c323 -137 600 -249 615 -249 20 0 187 93
518 289 301 178 497 287 507 284 10 -2 80 -30 157 -61z m-3635 -591 l316 -134
0 -160 c0 -147 -1 -159 -17 -154 -10 3 -220 91 -468 197 -247 105 -458 195
-468 199 -13 5 25 30 145 98 90 51 166 91 169 90 4 -1 149 -62 323 -136z
m3623 42 c78 -32 143 -60 143 -63 0 -3 -297 -180 -661 -393 -442 -260 -666
-387 -677 -383 -9 4 -279 118 -599 253 l-583 247 0 159 c0 147 1 159 18 154 9
-2 272 -113 584 -246 409 -174 577 -241 605 -241 32 0 116 46 523 285 266 157
489 285 494 285 6 0 75 -26 153 -57z m5 -556 l145 -62 -620 -365 c-341 -201
-641 -377 -666 -392 l-46 -26 -595 253 -595 252 -3 163 c-2 128 0 161 10 157
7 -3 270 -114 584 -246 417 -176 582 -241 610 -241 33 0 114 45 519 284 264
156 487 284 495 285 9 1 82 -27 162 -62z"/>
</g>
</svg>
