<svg xmlns="http://www.w3.org/2000/svg" xmlns:xlink="http://www.w3.org/1999/xlink" width="400" height="159.13978494623655" viewBox="0, 0, 400,159.13978494623655" version="1.1"><g id="svgg"><path id="path0" d="M273.126 17.124 C 266.814 17.238,267.069 17.131,266.868 19.754 C 266.655 22.522,266.846 22.703,270.013 22.734 L 272.701 22.760 272.641 46.057 L 272.581 69.355 269.624 69.459 L 266.667 69.563 266.667 72.237 C 266.667 73.880,266.813 74.910,267.046 74.910 C 267.255 74.910,267.326 75.072,267.204 75.269 C 267.000 75.600,268.224 75.819,269.534 75.686 C 269.830 75.656,271.685 75.539,273.656 75.426 C 275.627 75.313,277.643 75.189,278.136 75.151 C 279.029 75.081,279.032 75.069,278.947 71.770 C 278.882 69.226,278.972 68.459,279.335 68.459 C 279.805 68.459,282.079 71.340,282.079 71.935 C 282.079 72.107,283.006 72.726,284.140 73.310 C 285.273 73.895,286.281 74.470,286.380 74.588 C 286.805 75.098,288.268 75.667,288.715 75.496 C 288.982 75.393,289.257 75.478,289.326 75.685 C 289.506 76.224,293.188 76.394,293.195 75.864 C 293.199 75.600,293.314 75.626,293.509 75.934 C 293.811 76.411,298.493 74.519,299.870 73.363 C 303.043 70.698,306.621 66.677,305.833 66.661 C 305.680 66.658,305.727 66.537,305.938 66.392 C 307.448 65.351,309.864 57.816,309.309 55.879 C 308.850 54.280,308.857 52.223,309.319 52.509 C 309.806 52.810,309.778 50.839,309.278 49.575 C 309.058 49.020,308.845 48.244,308.803 47.849 C 308.641 46.307,308.136 44.803,307.781 44.803 C 307.575 44.803,307.508 44.703,307.630 44.580 C 308.155 44.055,304.742 38.396,302.539 36.138 C 301.081 34.643,297.214 32.483,295.341 32.118 C 292.142 31.493,290.487 31.301,290.323 31.536 C 290.224 31.676,288.772 32.459,287.097 33.274 C 285.421 34.090,283.640 35.138,283.139 35.603 C 282.638 36.069,282.007 36.523,281.737 36.613 C 281.467 36.703,281.208 37.030,281.163 37.339 C 280.996 38.479,279.833 39.884,279.520 39.324 C 279.199 38.751,279.055 18.106,279.368 17.599 C 279.691 17.077,278.945 17.020,273.126 17.124 M313.019 17.136 C 312.590 17.197,312.025 17.511,311.764 17.832 C 311.420 18.257,311.413 18.343,311.738 18.148 C 312.017 17.980,312.186 18.082,312.186 18.416 C 312.186 18.712,312.022 19.055,311.822 19.179 C 311.622 19.303,311.576 19.595,311.721 19.828 C 311.866 20.060,311.940 20.598,311.885 21.023 C 311.744 22.121,312.320 22.343,315.388 22.374 C 318.411 22.405,318.354 22.339,317.857 25.269 C 317.564 26.996,317.394 67.693,317.679 67.978 C 318.454 68.752,316.907 69.534,314.600 69.534 C 311.633 69.534,310.924 71.028,312.131 74.740 C 312.161 74.834,312.186 75.051,312.186 75.222 C 312.186 75.490,319.897 75.546,327.601 75.333 C 330.423 75.255,330.976 74.536,330.539 71.505 L 330.281 69.713 327.420 69.534 L 324.559 69.355 324.545 43.478 C 324.538 29.246,324.425 17.496,324.296 17.366 C 324.057 17.128,314.455 16.932,313.019 17.136 M119.978 17.967 C 119.637 18.157,118.848 18.378,118.225 18.457 C 117.601 18.536,116.995 18.735,116.879 18.900 C 116.762 19.065,116.425 19.190,116.129 19.178 C 115.833 19.166,114.846 19.685,113.936 20.331 C 113.025 20.977,112.134 21.505,111.955 21.505 C 111.442 21.505,106.452 26.666,106.452 27.197 C 106.452 27.460,105.969 28.284,105.379 29.029 C 103.788 31.038,102.070 34.428,101.973 35.748 C 101.927 36.385,101.686 37.151,101.440 37.448 C 101.193 37.746,101.075 38.312,101.179 38.707 C 101.282 39.103,101.224 39.514,101.050 39.621 C 100.877 39.728,100.790 40.293,100.858 40.876 C 100.926 41.459,100.863 41.935,100.718 41.935 C 100.323 41.935,100.603 53.435,101.024 54.533 C 101.224 55.055,101.301 55.568,101.196 55.674 C 101.090 55.780,101.136 56.079,101.298 56.338 C 101.460 56.598,101.619 56.971,101.652 57.168 C 101.685 57.366,101.802 58.089,101.913 58.775 C 102.024 59.462,102.285 60.081,102.493 60.150 C 102.701 60.219,102.799 60.394,102.710 60.538 C 102.621 60.682,103.022 61.515,103.602 62.389 C 104.182 63.263,104.657 64.091,104.658 64.229 C 104.659 64.367,105.143 65.197,105.735 66.073 C 106.326 66.950,106.810 67.813,106.810 67.992 C 106.810 68.544,109.170 70.639,109.462 70.347 C 109.613 70.195,109.683 70.257,109.618 70.484 C 109.552 70.711,109.616 70.916,109.759 70.940 C 109.902 70.964,110.406 71.343,110.879 71.782 C 111.857 72.691,114.847 74.576,115.509 74.701 C 115.751 74.746,116.551 75.044,117.286 75.363 C 118.021 75.682,118.908 75.942,119.257 75.940 C 119.607 75.939,120.692 76.131,121.670 76.366 C 123.067 76.701,123.713 76.696,124.688 76.344 C 125.371 76.097,126.708 75.912,127.660 75.934 C 128.612 75.955,129.391 75.819,129.391 75.632 C 129.391 75.445,129.612 75.376,129.882 75.480 C 130.152 75.584,130.470 75.417,130.588 75.110 C 130.705 74.803,131.135 74.552,131.541 74.552 C 131.948 74.552,132.373 74.311,132.486 74.016 C 132.599 73.722,132.843 73.574,133.027 73.688 C 133.388 73.911,138.753 68.819,138.533 68.463 C 138.460 68.345,138.718 68.225,139.105 68.196 C 139.841 68.141,139.845 68.269,139.201 71.744 C 139.104 72.270,139.184 72.995,139.379 73.357 C 139.573 73.719,139.808 74.266,139.901 74.574 C 140.080 75.170,144.904 75.333,145.809 74.774 C 146.128 74.577,146.236 71.030,146.233 60.821 L 146.229 47.133 144.822 46.542 C 144.049 46.217,143.310 46.056,143.182 46.183 C 143.053 46.311,142.196 46.426,141.277 46.440 C 140.358 46.453,136.760 46.493,133.282 46.529 C 126.080 46.604,126.607 46.337,126.324 50.050 C 126.099 52.997,126.082 52.990,133.334 52.922 L 139.247 52.867 139.129 54.480 C 138.761 59.517,134.166 66.599,130.504 67.778 C 129.793 68.007,129.011 68.353,128.765 68.548 C 128.520 68.743,127.996 68.817,127.600 68.714 C 127.205 68.610,126.882 68.654,126.882 68.810 C 126.882 69.508,123.742 69.541,121.575 68.866 C 120.354 68.486,119.352 68.280,119.349 68.407 C 119.346 68.534,119.225 68.477,119.081 68.280 C 118.936 68.082,118.011 67.361,117.025 66.677 C 115.351 65.515,112.758 63.082,113.192 63.082 C 113.299 63.082,113.062 62.720,112.666 62.276 C 111.477 60.944,109.319 55.426,109.319 53.717 C 109.319 53.348,109.148 53.047,108.939 53.047 C 108.731 53.047,108.658 52.888,108.777 52.695 C 108.897 52.501,108.827 51.413,108.621 50.276 C 107.985 46.754,107.964 45.925,108.494 45.168 C 108.822 44.700,108.908 44.148,108.733 43.634 C 108.583 43.193,108.510 42.670,108.571 42.473 C 108.632 42.276,108.725 41.711,108.778 41.219 C 108.832 40.726,108.968 40.081,109.082 39.785 C 109.196 39.489,109.549 38.210,109.868 36.943 C 111.061 32.196,115.121 27.225,118.638 26.204 C 119.525 25.947,120.531 25.591,120.873 25.413 C 121.216 25.235,121.811 25.090,122.196 25.090 C 122.582 25.090,122.996 24.928,123.118 24.731 C 123.442 24.207,124.757 24.297,125.962 24.926 C 126.541 25.227,127.221 25.395,127.474 25.297 C 127.727 25.200,128.038 25.289,128.165 25.495 C 128.292 25.701,128.701 25.789,129.073 25.692 C 129.445 25.595,129.750 25.621,129.750 25.750 C 129.751 25.880,130.478 26.285,131.367 26.650 C 133.770 27.638,136.620 30.962,137.805 34.159 C 138.945 37.234,138.986 37.265,141.935 37.265 C 145.302 37.265,145.332 37.227,145.390 32.898 C 145.417 30.871,145.555 28.566,145.696 27.778 C 146.140 25.299,145.750 19.906,145.066 19.069 C 144.594 18.490,140.505 18.562,139.682 19.164 C 139.242 19.486,139.111 20.256,139.106 22.559 C 139.098 26.266,139.130 26.242,137.054 24.043 C 136.109 23.041,135.157 22.222,134.939 22.222 C 134.721 22.222,134.081 21.740,133.516 21.151 C 132.952 20.561,132.420 20.149,132.335 20.233 C 132.250 20.318,131.756 19.994,131.238 19.513 C 130.700 19.014,129.858 18.638,129.281 18.638 C 128.724 18.638,127.997 18.499,127.665 18.328 C 126.744 17.855,120.686 17.571,119.978 17.967 M383.154 18.413 C 375.444 20.970,370.908 29.622,373.545 36.738 C 373.966 37.872,377.687 43.011,378.088 43.011 C 378.217 43.011,378.724 43.379,379.215 43.829 C 380.402 44.917,383.615 45.933,386.022 45.982 C 388.014 46.022,390.635 45.736,390.486 45.495 C 390.264 45.135,392.060 44.727,392.545 45.026 C 392.766 45.163,392.842 45.110,392.717 44.908 C 392.594 44.708,393.110 44.266,393.865 43.926 C 394.668 43.564,396.108 42.280,397.338 40.829 C 398.494 39.466,399.570 38.351,399.728 38.351 C 399.887 38.351,399.973 35.609,399.919 32.257 C 399.865 28.906,399.705 26.204,399.564 26.254 C 399.423 26.303,398.636 25.286,397.816 23.992 C 396.846 22.463,395.932 21.469,395.205 21.153 C 394.589 20.885,393.602 20.303,393.011 19.859 C 390.631 18.073,386.156 17.416,383.154 18.413 M24.731 19.216 C 23.421 19.651,21.035 19.741,12.007 19.693 C 5.896 19.660,0.694 19.651,0.448 19.673 C -0.020 19.715,-0.240 29.389,0.216 29.846 C 0.335 29.965,0.806 29.920,1.264 29.746 C 1.865 29.517,2.218 29.578,2.539 29.964 C 2.783 30.258,3.174 30.425,3.408 30.335 C 3.695 30.225,3.823 30.628,3.800 31.573 C 3.782 32.344,3.622 32.975,3.446 32.975 C 3.260 32.975,3.254 33.763,3.431 34.857 C 3.717 36.618,3.783 54.707,3.523 59.857 C 3.458 61.138,3.524 62.719,3.668 63.369 C 3.837 64.124,3.803 64.472,3.576 64.332 C 3.381 64.211,3.124 64.364,3.006 64.673 C 2.862 65.048,2.330 65.233,1.395 65.233 L 0.000 65.233 -0.000 70.021 L -0.000 74.808 3.853 75.037 C 8.371 75.305,30.592 75.098,31.900 74.776 C 32.392 74.654,33.360 74.494,34.050 74.419 C 35.937 74.214,37.276 73.798,37.276 73.417 C 37.276 73.229,37.424 73.168,37.606 73.280 C 37.787 73.392,38.219 73.200,38.566 72.853 C 38.912 72.506,39.208 72.273,39.222 72.335 C 39.367 72.973,41.347 71.238,44.200 67.976 C 47.310 64.418,48.132 57.212,45.957 52.564 C 45.343 51.252,44.644 50.179,44.404 50.179 C 44.163 50.179,44.069 50.077,44.194 49.952 C 44.755 49.390,39.837 45.607,39.254 46.152 C 39.098 46.297,39.160 46.053,39.391 45.609 C 39.621 45.166,39.930 44.803,40.077 44.803 C 40.736 44.803,43.030 42.095,44.036 40.130 C 46.311 35.684,44.861 27.126,41.389 24.512 C 41.098 24.294,40.860 23.971,40.860 23.796 C 40.860 22.642,36.019 20.177,33.392 19.992 C 32.609 19.937,32.033 19.789,32.111 19.663 C 32.189 19.536,31.649 19.333,30.911 19.211 C 27.842 18.704,26.265 18.705,24.731 19.216 M389.606 21.628 C 391.069 22.076,391.240 22.118,391.872 22.177 C 393.025 22.286,395.967 25.653,396.766 27.778 C 400.416 37.490,390.803 46.500,381.671 41.925 C 374.015 38.089,373.646 27.046,381.019 22.392 C 382.995 21.144,386.892 20.798,389.606 21.628 M381.390 24.877 C 380.803 25.584,380.797 37.850,381.384 38.557 C 382.708 40.153,383.513 39.207,383.513 36.055 L 383.513 33.041 385.394 32.918 C 389.230 32.668,389.964 33.237,389.964 36.457 C 389.964 38.171,390.533 39.068,391.620 39.068 L 392.534 39.068 392.276 36.290 C 392.100 34.394,391.799 33.232,391.327 32.629 C 390.613 31.717,390.875 31.179,392.255 30.718 C 392.797 30.537,392.622 26.956,392.037 26.249 C 390.618 24.533,382.539 23.492,381.390 24.877 M388.829 26.684 C 389.868 27.013,390.414 28.385,389.971 29.551 C 389.585 30.568,388.233 30.931,385.483 30.758 L 383.692 30.645 383.587 28.495 L 383.483 26.344 385.747 26.384 C 386.993 26.406,388.380 26.541,388.829 26.684 M26.523 29.837 C 30.282 30.196,32.975 31.514,32.975 32.993 C 32.975 33.377,33.112 33.692,33.280 33.692 C 33.817 33.692,33.398 37.279,32.727 38.424 C 31.327 40.812,28.893 41.576,22.155 41.742 C 15.038 41.917,15.559 42.317,15.633 36.738 C 15.722 29.977,15.743 29.690,16.129 29.928 C 16.326 30.050,16.487 29.939,16.487 29.681 C 16.486 29.230,20.901 29.298,26.523 29.837 M72.882 31.093 C 72.972 31.241,72.216 31.409,71.200 31.467 C 66.405 31.739,56.119 37.371,57.206 39.129 C 57.307 39.293,57.258 39.427,57.096 39.427 C 56.935 39.427,56.241 40.515,55.554 41.846 C 54.868 43.177,54.215 44.346,54.104 44.444 C 53.578 44.910,53.059 46.983,52.968 48.979 C 52.913 50.192,52.746 51.109,52.599 51.019 C 52.193 50.770,52.276 56.085,52.696 57.188 C 52.897 57.717,53.115 58.844,53.181 59.692 C 53.247 60.539,53.620 61.775,54.011 62.437 C 54.402 63.099,54.831 64.080,54.966 64.616 C 55.101 65.153,55.369 65.591,55.562 65.591 C 55.756 65.591,55.914 65.793,55.915 66.039 C 55.916 67.179,58.748 70.509,60.945 71.955 C 62.219 72.794,63.473 73.655,63.730 73.870 C 64.801 74.762,68.704 76.078,70.072 76.009 C 70.860 75.969,72.715 75.957,74.194 75.982 C 78.498 76.056,78.957 76.025,79.345 75.637 C 79.548 75.434,80.094 75.269,80.559 75.269 C 81.031 75.269,81.307 75.111,81.183 74.910 C 81.061 74.713,81.305 74.552,81.724 74.552 C 83.176 74.552,91.185 67.768,90.519 67.102 C 90.430 67.013,90.587 66.710,90.868 66.429 C 91.149 66.148,91.562 65.240,91.786 64.411 C 92.010 63.582,92.356 62.556,92.555 62.131 C 93.191 60.771,92.707 60.644,87.368 60.774 C 81.779 60.909,81.980 60.831,80.575 63.397 C 80.200 64.081,79.308 64.817,78.245 65.318 C 77.298 65.764,76.443 66.228,76.344 66.349 C 76.246 66.470,75.853 66.458,75.473 66.321 C 74.559 65.995,73.120 66.286,73.113 66.798 C 73.109 67.100,73.040 67.101,72.844 66.798 C 72.699 66.575,71.873 66.295,71.009 66.175 C 70.145 66.055,69.177 65.762,68.858 65.524 C 67.524 64.526,65.950 62.914,65.950 62.546 C 65.950 62.329,65.758 61.959,65.523 61.724 C 65.024 61.225,64.896 60.710,64.622 58.103 C 64.465 56.612,64.521 56.233,64.866 56.446 C 65.351 56.746,66.885 56.839,75.022 57.063 C 77.941 57.144,80.415 57.072,80.519 56.903 C 80.624 56.734,80.921 56.772,81.180 56.987 C 81.525 57.274,81.700 57.254,81.837 56.915 C 81.963 56.603,82.121 56.574,82.320 56.826 C 82.483 57.031,83.665 57.200,84.946 57.200 C 86.228 57.200,87.397 57.031,87.545 56.826 C 87.721 56.581,87.937 56.637,88.172 56.989 C 88.468 57.433,88.585 57.443,88.843 57.043 C 89.172 56.532,91.168 56.396,92.436 56.798 C 93.825 57.239,94.564 52.549,93.510 49.984 C 93.270 49.401,93.103 48.794,93.139 48.634 C 93.258 48.104,91.625 43.728,91.309 43.728 C 91.137 43.728,91.089 43.579,91.201 43.398 C 91.313 43.217,91.190 42.854,90.928 42.592 C 90.665 42.329,90.462 42.034,90.475 41.935 C 90.531 41.517,88.881 39.068,88.543 39.068 C 88.339 39.068,88.165 38.866,88.157 38.620 C 88.128 37.706,83.267 33.333,82.280 33.333 C 82.148 33.333,81.282 32.987,80.357 32.564 C 79.406 32.130,77.617 31.719,76.245 31.619 C 74.910 31.523,73.731 31.304,73.626 31.134 C 73.521 30.964,73.273 30.824,73.076 30.824 C 72.879 30.824,72.791 30.945,72.882 31.093 M168.628 31.492 C 168.536 31.583,167.945 31.714,167.314 31.784 C 166.682 31.853,166.039 32.109,165.884 32.352 C 165.729 32.596,165.600 32.671,165.597 32.518 C 165.594 32.365,165.148 32.464,164.606 32.737 C 164.064 33.011,163.418 33.163,163.172 33.075 C 162.926 32.987,162.724 33.099,162.724 33.325 C 162.724 33.550,162.563 33.634,162.366 33.513 C 162.168 33.391,162.007 33.457,162.007 33.659 C 162.007 33.862,161.767 33.935,161.473 33.823 C 161.168 33.706,160.843 33.864,160.718 34.190 C 160.597 34.505,160.360 34.677,160.191 34.573 C 160.021 34.468,159.637 34.671,159.336 35.023 C 159.035 35.375,158.139 36.410,157.344 37.324 C 155.501 39.443,153.970 43.640,154.516 45.077 C 154.721 45.614,154.989 45.871,155.128 45.664 C 155.265 45.461,156.543 45.305,157.969 45.318 L 160.562 45.341 161.800 42.770 C 163.095 40.080,165.124 38.351,166.988 38.351 C 167.426 38.351,167.686 38.192,167.565 37.997 C 167.445 37.802,167.569 37.728,167.841 37.832 C 168.113 37.937,169.250 37.879,170.368 37.703 C 171.487 37.528,172.401 37.521,172.401 37.689 C 172.401 37.856,172.603 37.994,172.849 37.995 C 173.962 38.000,176.054 38.814,177.000 39.610 C 177.570 40.089,178.153 40.365,178.296 40.223 C 178.438 40.081,178.508 40.125,178.451 40.323 C 178.394 40.520,178.648 41.246,179.016 41.935 C 179.838 43.477,180.237 48.154,179.581 48.560 C 179.075 48.872,173.431 48.831,172.496 48.509 C 171.900 48.303,171.900 48.319,172.502 48.790 C 173.069 49.234,172.954 49.275,171.477 49.158 C 170.562 49.085,169.468 49.190,169.046 49.391 C 167.785 49.991,166.865 50.297,166.539 50.224 C 166.371 50.185,166.008 50.341,165.733 50.569 C 165.458 50.797,165.233 50.900,165.233 50.798 C 165.233 50.697,164.628 50.769,163.889 50.959 C 163.150 51.150,162.303 51.349,162.007 51.403 C 159.557 51.850,153.422 56.147,153.970 57.033 C 154.077 57.206,154.033 57.348,153.872 57.348 C 152.352 57.348,152.111 64.803,153.530 67.904 C 155.013 71.142,159.460 75.546,160.349 74.657 C 160.472 74.534,160.573 74.595,160.573 74.794 C 160.573 75.433,163.170 75.913,166.704 75.925 C 169.945 75.937,173.061 75.331,172.524 74.794 C 172.391 74.661,172.582 74.552,172.950 74.552 C 173.619 74.552,175.897 73.156,177.240 71.922 C 177.634 71.560,178.401 70.945,178.943 70.554 L 179.928 69.844 179.974 71.212 C 180.117 75.461,179.939 75.046,181.683 75.195 C 182.550 75.270,183.561 75.442,183.930 75.579 C 184.570 75.816,191.844 75.224,192.391 74.891 C 192.768 74.660,192.712 73.184,192.256 71.326 L 191.859 69.713 189.087 69.534 L 186.315 69.355 186.322 56.631 C 186.327 48.858,186.181 43.279,185.948 42.294 C 185.530 40.526,184.268 37.993,183.805 37.993 C 183.644 37.993,183.513 37.751,183.513 37.455 C 183.513 37.159,183.351 36.918,183.154 36.918 C 182.957 36.918,182.796 36.633,182.796 36.286 C 182.796 35.611,175.827 31.939,175.385 32.381 C 175.259 32.507,174.948 32.438,174.695 32.228 C 174.222 31.836,168.926 31.193,168.628 31.492 M241.577 31.631 C 241.577 31.779,241.249 31.900,240.849 31.900 C 240.449 31.900,240.028 32.142,239.915 32.437 C 239.801 32.733,239.443 32.980,239.119 32.986 C 238.405 33.000,237.219 33.850,237.461 34.175 C 237.556 34.304,237.533 34.334,237.408 34.242 C 236.945 33.901,235.863 34.812,235.082 36.201 C 234.639 36.989,234.145 37.634,233.984 37.634 C 233.823 37.634,233.692 37.838,233.692 38.086 C 233.692 39.531,232.377 39.314,231.972 37.802 C 229.731 29.424,217.770 29.645,211.256 38.185 C 209.873 39.998,209.734 39.783,209.854 36.020 C 209.914 34.147,209.832 32.533,209.671 32.433 C 209.303 32.206,197.499 32.131,197.275 32.355 C 197.012 32.618,196.695 34.164,196.744 34.946 C 196.769 35.341,196.792 36.106,196.796 36.647 C 196.805 37.911,198.677 39.037,199.704 38.395 C 200.565 37.857,202.335 37.884,202.777 38.441 C 203.223 39.003,203.407 65.950,202.965 65.950 C 202.793 65.950,202.722 66.542,202.806 67.265 C 203.013 69.038,202.272 69.534,199.415 69.534 C 198.183 69.534,197.089 69.673,196.984 69.843 C 196.609 70.449,196.824 74.696,197.235 74.808 C 197.390 74.850,197.770 75.138,198.079 75.447 C 198.389 75.757,198.907 75.928,199.231 75.827 C 199.556 75.726,201.272 75.627,203.047 75.607 C 215.876 75.462,216.360 75.315,215.882 71.730 C 215.602 69.632,215.453 69.546,212.097 69.540 L 209.319 69.534 209.319 68.301 C 209.319 67.622,209.485 66.965,209.688 66.840 C 209.927 66.692,210.045 63.107,210.025 56.604 C 210.007 51.099,210.119 46.394,210.273 46.147 C 210.427 45.901,210.600 45.397,210.657 45.027 C 210.956 43.110,214.783 38.923,216.574 38.554 C 216.822 38.503,217.509 38.264,218.100 38.023 C 219.218 37.567,222.495 37.610,223.118 38.089 C 224.375 39.055,225.165 39.785,224.953 39.785 C 224.817 39.785,224.903 40.148,225.145 40.591 C 225.773 41.746,225.758 41.342,225.799 58.522 C 225.819 67.152,225.916 74.420,226.013 74.674 C 226.191 75.138,228.005 75.165,233.154 74.779 C 234.337 74.690,235.883 74.741,236.590 74.892 C 238.568 75.314,238.932 74.820,238.799 71.895 C 238.663 68.911,238.214 68.405,236.119 68.876 C 235.350 69.048,234.581 69.103,234.410 68.998 C 234.240 68.892,234.003 68.962,233.884 69.154 C 233.026 70.543,232.211 67.344,233.045 65.858 C 233.633 64.810,233.667 64.177,233.699 53.586 C 233.730 43.615,233.735 43.594,236.640 40.285 C 240.093 36.352,246.011 36.232,247.903 40.056 C 248.572 41.408,248.605 42.192,248.534 55.060 C 248.449 70.568,248.851 77.421,249.708 75.038 C 249.883 74.552,251.254 74.833,251.254 75.355 C 251.254 75.553,251.527 75.494,251.861 75.223 C 252.194 74.953,252.358 74.913,252.225 75.135 C 252.060 75.411,252.417 75.390,253.352 75.068 C 254.630 74.627,256.975 74.639,259.736 75.100 C 260.770 75.273,260.905 75.183,261.271 74.074 C 261.957 71.995,261.368 68.413,260.452 69.089 C 260.223 69.258,259.633 69.346,259.140 69.284 C 258.647 69.222,257.666 69.136,256.960 69.092 C 255.423 68.996,254.815 66.062,256.166 65.267 C 256.696 64.955,256.722 64.830,256.313 64.561 C 255.957 64.327,255.898 63.942,256.104 63.210 C 256.467 61.916,256.512 44.039,256.156 42.115 C 255.704 39.667,254.788 36.918,254.426 36.918 C 254.235 36.918,254.169 36.773,254.278 36.596 C 254.603 36.071,251.268 32.632,249.866 32.046 C 248.513 31.481,241.577 31.133,241.577 31.631 M350.538 31.968 C 349.453 32.151,348.038 32.380,347.391 32.477 C 346.745 32.573,346.310 32.804,346.424 32.989 C 346.542 33.179,346.364 33.222,346.017 33.089 C 345.603 32.930,345.486 32.988,345.659 33.268 C 345.826 33.539,345.723 33.610,345.362 33.471 C 345.037 33.346,344.718 33.495,344.589 33.832 C 344.468 34.147,344.237 34.323,344.075 34.222 C 343.482 33.856,337.597 40.347,337.103 41.911 C 336.952 42.390,336.526 43.277,336.157 43.882 C 335.788 44.487,335.486 45.251,335.485 45.579 C 335.484 45.908,335.343 46.231,335.171 46.296 C 334.435 46.577,334.063 53.165,334.535 57.527 C 334.685 58.907,334.815 60.278,334.824 60.573 C 334.857 61.610,335.601 63.799,335.920 63.799 C 336.098 63.799,336.156 63.940,336.049 64.113 C 335.943 64.285,336.302 65.052,336.849 65.815 C 337.395 66.579,338.286 67.970,338.829 68.907 C 339.371 69.843,339.970 70.609,340.158 70.609 C 340.347 70.609,340.784 70.863,341.129 71.173 C 345.341 74.959,347.375 75.790,352.688 75.896 C 357.726 75.997,359.643 75.793,359.274 75.195 C 359.131 74.965,359.192 74.901,359.420 75.041 C 359.635 75.174,360.426 74.928,361.178 74.494 C 361.930 74.061,363.063 73.433,363.696 73.099 C 364.329 72.766,364.745 72.392,364.622 72.268 C 364.498 72.144,364.637 72.043,364.932 72.043 C 365.226 72.043,365.841 71.645,366.298 71.158 C 366.755 70.671,367.271 70.361,367.444 70.468 C 367.618 70.575,367.738 70.530,367.712 70.367 C 367.627 69.842,368.175 68.459,368.469 68.459 C 368.759 68.459,370.253 65.602,370.389 64.786 C 370.431 64.539,370.658 63.985,370.895 63.554 C 371.504 62.448,371.444 62.322,370.430 62.577 C 369.878 62.715,369.534 62.649,369.534 62.404 C 369.534 61.857,368.119 61.901,367.904 62.455 C 367.808 62.702,367.047 62.940,366.213 62.984 C 363.527 63.127,363.075 63.367,362.335 65.039 C 361.374 67.213,359.245 68.919,357.030 69.292 C 356.712 69.346,356.099 69.584,355.669 69.820 C 354.815 70.290,352.601 70.403,352.197 69.998 C 352.058 69.860,351.522 69.689,351.006 69.620 C 347.117 69.100,342.683 63.949,342.658 59.925 C 342.654 59.392,342.505 59.188,342.239 59.353 C 342.011 59.494,341.921 59.453,342.038 59.263 C 342.156 59.073,342.077 58.225,341.862 57.380 C 341.293 55.140,340.962 55.188,356.705 55.225 C 372.748 55.262,371.830 55.403,371.492 52.951 C 371.355 51.955,371.252 50.494,371.263 49.704 C 371.274 48.914,371.073 47.851,370.816 47.342 C 370.559 46.832,370.421 46.214,370.509 45.968 C 370.597 45.721,370.530 45.520,370.359 45.520 C 370.188 45.520,370.013 45.088,369.969 44.561 C 369.926 44.034,369.624 43.308,369.298 42.948 C 368.973 42.588,368.802 42.294,368.920 42.294 C 369.386 42.294,367.388 39.288,365.520 37.178 C 362.806 34.111,356.716 31.240,354.626 32.042 C 354.319 32.160,354.179 32.097,354.304 31.896 C 354.562 31.477,353.303 31.501,350.538 31.968 M293.817 38.044 C 294.064 38.082,294.265 38.234,294.265 38.383 C 294.265 38.531,294.749 38.759,295.341 38.889 C 296.461 39.135,299.283 41.502,299.283 42.196 C 299.283 42.415,299.528 43.051,299.828 43.609 C 300.459 44.785,301.139 46.537,301.263 47.312 C 301.311 47.608,301.539 48.995,301.770 50.396 C 302.211 53.074,302.105 55.843,301.502 57.348 C 301.305 57.841,300.950 59.211,300.713 60.394 C 300.061 63.646,299.768 64.225,297.666 66.413 C 295.830 68.323,292.191 70.088,291.503 69.401 C 291.393 69.291,291.013 69.356,290.658 69.546 C 290.152 69.817,289.963 69.737,289.785 69.176 C 289.600 68.594,289.428 68.529,288.865 68.830 C 288.399 69.079,287.952 69.083,287.502 68.842 C 287.134 68.645,286.717 68.599,286.576 68.740 C 286.435 68.881,286.374 68.754,286.440 68.459 C 286.506 68.160,286.309 67.918,285.997 67.915 C 283.493 67.889,280.191 63.185,279.711 58.961 C 279.621 58.172,279.452 57.285,279.335 56.989 C 278.338 54.476,279.242 45.710,280.628 44.444 C 281.043 44.066,282.438 41.951,282.451 41.681 C 282.555 39.508,289.282 37.356,293.817 38.044 M356.989 38.727 C 357.679 38.903,358.367 39.050,358.519 39.052 C 359.467 39.069,362.822 44.396,363.270 46.595 C 363.410 47.285,363.622 48.011,363.741 48.208 C 364.842 50.035,364.885 50.027,352.970 50.049 C 342.975 50.067,341.923 50.013,342.128 49.497 C 342.253 49.182,342.444 48.360,342.553 47.670 C 342.662 46.980,342.931 46.183,343.150 45.899 C 343.464 45.492,343.441 45.447,343.045 45.686 C 342.669 45.912,342.622 45.861,342.860 45.485 C 343.036 45.209,343.183 44.901,343.189 44.803 C 343.216 44.315,345.569 41.277,346.068 41.085 C 346.390 40.961,346.528 40.683,346.383 40.449 C 346.233 40.206,346.281 40.129,346.499 40.263 C 346.704 40.390,347.080 40.243,347.335 39.937 C 348.024 39.106,349.812 38.271,350.409 38.500 C 350.711 38.616,350.838 38.547,350.708 38.337 C 350.452 37.923,354.925 38.201,356.989 38.727 M17.921 39.226 C 17.921 39.510,18.082 39.842,18.280 39.964 C 18.477 40.086,18.638 39.854,18.638 39.448 C 18.638 39.042,18.477 38.710,18.280 38.710 C 18.082 38.710,17.921 38.942,17.921 39.226 M76.344 41.503 C 78.923 42.698,81.132 45.354,80.834 46.902 C 80.748 47.349,80.936 47.814,81.294 48.038 C 81.742 48.319,81.480 48.349,80.287 48.155 C 79.400 48.010,78.271 47.913,77.778 47.940 C 75.906 48.040,64.737 48.011,64.632 47.905 C 63.570 46.843,69.322 40.785,70.839 41.368 C 71.128 41.478,71.272 41.422,71.161 41.242 C 70.625 40.374,74.308 40.560,76.344 41.503 M29.779 51.476 C 32.856 52.389,35.362 55.282,34.896 57.381 C 34.744 58.068,34.784 58.134,35.094 57.706 C 35.592 57.018,35.214 59.177,34.561 60.754 C 34.075 61.926,31.037 64.968,30.695 64.626 C 30.578 64.509,30.278 64.577,30.027 64.776 C 29.283 65.365,15.771 65.398,15.768 64.810 C 15.766 64.550,15.744 62.240,15.718 59.677 C 15.692 57.115,15.694 54.097,15.721 52.970 L 15.771 50.923 19.086 50.786 C 23.683 50.596,27.685 50.854,29.779 51.476 M180.103 57.238 C 180.100 59.455,179.937 61.027,179.678 61.339 C 179.447 61.618,179.192 62.245,179.111 62.733 C 178.728 65.061,175.261 68.942,173.178 69.376 C 172.652 69.485,171.547 69.745,170.723 69.953 C 169.312 70.308,167.983 70.246,165.376 69.701 C 164.765 69.573,163.475 68.733,162.509 67.834 L 160.753 66.199 160.676 63.207 C 160.632 61.476,160.746 60.215,160.945 60.215 C 161.135 60.215,161.290 59.931,161.290 59.584 C 161.290 59.238,161.635 58.739,162.056 58.475 C 163.960 57.287,165.186 56.698,166.243 56.466 C 166.870 56.328,167.384 56.106,167.384 55.973 C 167.384 55.839,168.109 55.787,168.996 55.858 C 169.884 55.928,170.609 55.834,170.609 55.649 C 170.609 55.154,172.986 54.509,175.448 54.335 C 176.631 54.251,178.002 54.019,178.495 53.818 C 179.990 53.209,180.108 53.460,180.103 57.238 M38.560 84.899 C 38.324 85.282,36.871 89.362,36.565 90.502 C 36.191 91.894,34.923 95.538,34.095 97.598 C 33.873 98.149,33.692 98.986,33.692 99.458 C 33.692 99.930,33.526 100.418,33.324 100.544 C 33.121 100.669,32.986 100.960,33.024 101.192 C 33.113 101.746,32.664 103.496,32.088 104.839 C 31.834 105.430,31.426 106.559,31.182 107.348 C 30.938 108.136,30.596 108.935,30.423 109.122 C 30.249 109.309,30.108 109.809,30.108 110.232 C 30.108 110.655,29.855 111.508,29.546 112.127 C 29.237 112.746,29.101 113.441,29.243 113.671 C 29.404 113.932,29.346 113.993,29.088 113.834 C 28.810 113.662,28.674 113.932,28.674 114.653 C 28.674 115.244,28.531 115.817,28.356 115.925 C 28.181 116.033,27.925 116.728,27.786 117.469 C 27.647 118.211,27.240 119.462,26.882 120.251 C 26.265 121.607,25.648 124.081,25.799 124.594 C 25.837 124.724,25.690 124.940,25.472 125.075 C 25.254 125.209,24.898 126.356,24.681 127.624 C 24.221 130.305,23.535 131.335,22.559 130.813 C 21.707 130.357,21.406 130.374,21.707 130.860 C 21.862 131.111,21.648 131.092,21.118 130.809 C 20.505 130.481,20.249 130.471,20.149 130.773 C 20.073 130.998,19.774 131.183,19.483 131.183 C 19.192 131.183,19.056 131.347,19.180 131.549 C 19.589 132.210,19.751 135.191,19.365 134.953 C 19.156 134.824,19.093 134.960,19.214 135.276 C 19.329 135.576,19.449 136.835,19.479 138.072 L 19.534 140.323 25.882 140.420 C 32.193 140.518,32.234 140.513,32.781 139.679 C 33.643 138.363,35.212 133.717,34.990 133.139 C 34.880 132.851,34.938 132.616,35.120 132.616 C 35.302 132.616,35.549 132.012,35.667 131.272 C 36.191 128.017,35.436 128.347,42.384 128.334 C 45.846 128.328,49.477 128.512,50.646 128.754 C 51.967 129.027,52.822 129.058,52.978 128.840 C 54.034 127.368,55.324 128.494,55.975 131.455 C 56.334 133.083,56.967 135.341,57.383 136.473 C 57.798 137.605,58.218 138.879,58.316 139.304 C 58.550 140.320,58.702 140.344,65.501 140.463 C 70.113 140.544,71.359 140.465,71.489 140.085 C 71.844 139.052,71.859 130.825,71.505 130.956 C 71.308 131.029,70.855 130.834,70.498 130.523 C 69.979 130.070,69.791 130.050,69.561 130.422 C 68.935 131.435,67.646 130.707,67.099 129.032 C 66.810 128.145,66.412 127.016,66.215 126.523 C 66.018 126.030,65.797 125.013,65.723 124.263 C 65.649 123.513,65.362 122.459,65.083 121.921 C 64.805 121.383,64.463 120.331,64.322 119.583 C 64.182 118.834,63.847 118.138,63.577 118.034 C 63.307 117.931,63.176 117.701,63.286 117.523 C 63.501 117.175,62.709 114.696,62.383 114.695 C 62.275 114.695,62.162 114.271,62.132 113.752 C 62.102 113.234,61.860 112.672,61.594 112.503 C 61.238 112.278,61.229 112.196,61.558 112.192 C 61.878 112.188,61.795 111.653,61.265 110.305 C 60.405 108.114,60.391 108.069,60.038 106.547 C 59.890 105.910,59.630 105.474,59.459 105.580 C 59.288 105.686,59.236 105.542,59.344 105.262 C 59.451 104.981,59.316 104.528,59.042 104.254 C 58.768 103.981,58.611 103.557,58.693 103.312 C 58.774 103.068,58.657 102.867,58.432 102.867 C 58.206 102.867,58.115 102.717,58.229 102.533 C 58.342 102.349,57.934 100.696,57.321 98.859 C 56.708 97.023,56.150 95.237,56.080 94.891 C 56.011 94.545,55.856 94.102,55.735 93.907 C 55.614 93.711,55.448 93.268,55.365 92.922 C 55.024 91.488,53.562 87.618,53.285 87.415 C 53.120 87.295,52.999 87.093,53.016 86.967 C 53.046 86.741,53.030 86.640,52.881 86.111 C 52.452 84.588,52.574 84.612,45.481 84.643 C 41.752 84.659,38.637 84.774,38.560 84.899 M229.032 96.287 C 228.175 96.442,227.179 96.749,225.627 97.337 C 225.233 97.486,224.789 97.642,224.642 97.684 C 224.494 97.726,224.332 97.792,224.283 97.831 C 224.234 97.871,223.840 97.969,223.408 98.050 C 221.168 98.469,214.270 104.629,213.758 106.666 C 213.630 107.178,213.044 108.589,212.456 109.802 C 211.868 111.015,211.366 112.611,211.339 113.349 C 211.312 114.087,211.183 114.692,211.052 114.693 C 210.465 114.698,211.167 125.524,211.807 126.339 C 211.964 126.539,212.292 127.348,212.536 128.136 C 213.852 132.402,218.138 137.320,222.491 139.562 C 223.132 139.892,223.656 140.057,223.656 139.929 C 223.656 139.802,223.858 139.860,224.104 140.058 C 224.350 140.257,225.116 140.537,225.806 140.681 C 226.496 140.825,227.250 141.095,227.481 141.281 C 228.193 141.853,233.318 141.909,234.868 141.362 C 235.643 141.089,236.410 140.947,236.573 141.048 C 236.735 141.148,236.969 141.066,237.093 140.866 C 237.217 140.666,237.833 140.498,238.462 140.494 C 239.091 140.489,240.009 140.170,240.502 139.785 C 240.995 139.399,241.580 139.080,241.802 139.076 C 243.208 139.048,250.148 131.054,250.195 129.409 C 250.204 129.103,250.424 128.254,250.686 127.522 C 251.106 126.346,251.090 126.127,250.552 125.640 C 249.843 124.999,247.793 124.901,247.593 125.499 C 247.508 125.754,246.072 125.975,243.776 126.086 C 240.287 126.254,240.065 126.312,239.501 127.200 C 239.173 127.715,238.740 128.255,238.539 128.400 C 238.337 128.544,238.301 128.665,238.459 128.668 C 239.093 128.680,236.639 130.598,235.185 131.227 C 233.528 131.945,229.943 132.145,229.570 131.541 C 229.448 131.344,228.986 131.183,228.543 131.183 C 226.841 131.183,223.544 127.725,223.093 125.468 C 222.993 124.964,222.698 124.135,222.438 123.626 C 221.451 121.692,221.506 121.684,236.201 121.691 C 250.875 121.699,251.232 121.679,251.489 120.831 C 251.586 120.512,251.816 119.969,252.001 119.624 C 252.217 119.219,252.207 118.996,251.974 118.996 C 251.776 118.996,251.613 118.826,251.613 118.617 C 251.613 118.408,251.793 118.349,252.013 118.485 C 252.294 118.658,252.354 118.316,252.213 117.341 C 251.844 114.786,251.534 113.620,251.225 113.620 C 251.056 113.620,251.011 113.378,251.125 113.082 C 251.238 112.787,251.168 112.545,250.968 112.545 C 250.768 112.545,250.696 112.197,250.807 111.772 C 250.944 111.246,250.878 111.080,250.598 111.253 C 250.340 111.413,250.260 111.317,250.383 110.997 C 250.491 110.716,250.335 110.243,250.038 109.946 C 249.740 109.648,249.596 109.304,249.718 109.182 C 249.840 109.060,249.743 108.961,249.501 108.961 C 249.259 108.961,249.161 108.799,249.283 108.602 C 249.405 108.405,249.334 108.244,249.125 108.244 C 248.916 108.244,248.779 108.123,248.819 107.975 C 248.926 107.584,247.677 105.293,246.997 104.632 C 246.678 104.322,245.852 103.372,245.164 102.521 C 242.762 99.557,238.593 97.246,234.767 96.757 C 233.486 96.593,231.873 96.384,231.183 96.292 C 230.493 96.200,229.525 96.197,229.032 96.287 M151.373 96.983 C 151.266 97.260,151.058 97.412,150.910 97.320 C 150.761 97.228,150.135 97.298,149.518 97.475 C 148.901 97.652,148.316 97.666,148.217 97.505 C 147.646 96.582,141.141 100.008,139.786 101.946 C 139.226 102.748,138.270 103.939,137.663 104.592 C 137.056 105.245,136.545 105.890,136.528 106.026 C 136.474 106.455,136.162 109.819,136.090 110.753 L 136.022 111.649 140.502 111.752 C 145.934 111.878,146.595 111.751,146.595 110.584 C 146.595 108.643,148.746 105.815,150.143 105.918 C 150.557 105.948,150.896 105.831,150.896 105.657 C 150.896 104.916,157.230 105.435,158.266 106.261 C 159.681 107.390,160.952 112.186,159.835 112.186 C 159.627 112.186,159.556 112.348,159.677 112.545 C 159.799 112.742,159.728 112.903,159.519 112.903 C 159.311 112.903,159.140 112.742,159.140 112.545 C 159.140 112.348,158.984 112.186,158.793 112.186 C 158.602 112.186,158.533 112.414,158.639 112.692 C 158.800 113.110,158.129 113.187,154.731 113.140 C 151.912 113.100,150.675 113.204,150.778 113.471 C 150.872 113.717,150.527 113.800,149.836 113.699 C 149.123 113.594,148.746 113.692,148.746 113.982 C 148.746 114.332,148.633 114.331,148.208 113.978 C 147.843 113.675,147.670 113.660,147.670 113.930 C 147.670 114.149,147.025 114.432,146.237 114.558 C 145.448 114.684,144.803 114.937,144.803 115.121 C 144.803 115.304,144.641 115.354,144.442 115.232 C 144.000 114.958,141.577 115.796,141.577 116.222 C 141.577 116.391,141.416 116.430,141.219 116.308 C 141.022 116.186,140.860 116.240,140.860 116.426 C 140.860 116.613,140.578 116.744,140.233 116.716 C 139.888 116.689,139.646 116.868,139.695 117.115 C 139.745 117.361,139.664 117.544,139.516 117.520 C 138.821 117.410,138.329 117.595,138.515 117.895 C 138.628 118.078,138.420 118.323,138.053 118.440 C 136.347 118.981,134.146 122.616,133.849 125.382 C 133.729 126.503,133.611 127.500,133.589 127.599 C 132.612 131.833,138.901 140.232,143.300 140.567 C 143.930 140.615,144.444 140.799,144.444 140.975 C 144.444 141.151,144.695 141.199,145.001 141.082 C 145.356 140.946,145.467 141.014,145.308 141.271 C 145.137 141.547,145.412 141.622,146.186 141.508 C 146.805 141.417,147.312 141.476,147.312 141.639 C 147.312 142.118,149.744 141.978,149.942 141.487 C 150.076 141.155,150.130 141.151,150.151 141.472 C 150.172 141.798,150.531 141.779,151.613 141.398 C 152.401 141.120,153.047 140.998,153.047 141.127 C 153.047 141.256,153.240 141.168,153.477 140.932 C 153.713 140.695,154.115 140.502,154.369 140.502 C 155.022 140.502,159.747 137.424,159.928 136.881 C 160.266 135.870,160.932 137.077,160.932 138.700 L 160.932 140.441 167.557 140.459 C 175.302 140.480,174.735 140.826,174.841 136.022 C 174.900 133.374,173.999 128.867,173.864 131.137 C 173.840 131.544,173.738 131.548,173.270 131.160 C 172.804 130.773,172.654 130.775,172.410 131.168 C 172.232 131.457,171.858 131.547,171.462 131.395 C 170.968 131.205,170.921 131.075,171.269 130.860 C 171.523 130.703,171.808 130.026,171.903 129.356 C 171.999 128.685,172.147 127.928,172.233 127.675 C 172.319 127.421,172.157 127.124,171.872 127.015 C 171.488 126.867,171.356 126.159,171.360 124.250 C 171.383 112.792,171.246 108.050,170.872 107.378 C 170.644 106.967,170.495 106.498,170.542 106.335 C 170.589 106.172,170.220 105.555,169.722 104.963 C 169.224 104.372,168.817 103.768,168.817 103.621 C 168.817 102.484,163.330 98.476,161.649 98.386 C 161.550 98.380,161.290 98.262,161.070 98.122 C 160.850 97.982,159.721 97.758,158.561 97.625 C 157.401 97.492,156.371 97.269,156.272 97.131 C 155.884 96.587,151.575 96.457,151.373 96.983 M201.344 96.824 C 200.802 97.027,200.358 97.335,200.358 97.510 C 200.358 97.684,200.136 97.742,199.865 97.637 C 199.583 97.530,198.448 98.302,197.227 99.432 C 196.049 100.523,194.972 101.304,194.834 101.167 C 194.697 101.029,194.435 101.154,194.251 101.444 C 193.989 101.858,193.917 101.794,193.912 101.144 C 193.909 100.689,194.045 100.402,194.215 100.506 C 194.503 100.685,194.390 98.213,194.096 97.919 C 193.830 97.653,180.455 97.625,179.908 97.889 C 179.448 98.112,179.359 98.849,179.402 102.067 C 179.464 106.700,179.530 106.853,181.366 106.623 C 182.488 106.482,182.840 106.582,183.132 107.127 C 183.486 107.789,183.733 130.724,183.389 131.067 C 183.301 131.155,182.527 131.234,181.669 131.243 C 180.810 131.253,179.927 131.406,179.707 131.585 C 179.307 131.908,179.274 139.608,179.670 140.004 C 180.068 140.403,183.911 140.498,183.667 140.104 C 183.499 139.832,183.629 139.817,184.097 140.057 C 184.675 140.353,191.250 140.429,197.412 140.210 L 199.305 140.143 199.205 135.753 C 199.111 131.655,199.056 131.359,198.387 131.310 C 197.993 131.281,196.939 131.212,196.045 131.157 L 194.421 131.057 194.618 129.238 C 194.727 128.238,194.711 126.935,194.583 126.344 C 194.217 124.653,194.230 117.130,194.602 115.167 C 195.090 112.595,195.142 112.384,195.343 112.186 C 195.442 112.088,195.989 111.383,196.558 110.621 C 198.410 108.138,204.213 106.473,205.961 107.924 C 206.240 108.156,206.463 108.157,206.605 107.926 C 206.725 107.733,207.385 107.665,208.071 107.777 L 209.319 107.979 209.319 102.896 L 209.319 97.813 208.082 97.296 C 207.402 97.012,206.474 96.805,206.021 96.836 C 205.568 96.867,204.552 96.794,203.763 96.674 C 202.975 96.554,201.886 96.622,201.344 96.824 M46.365 99.373 C 47.192 102.529,47.282 102.902,47.530 104.211 C 47.651 104.852,47.878 105.376,48.035 105.376 C 48.192 105.376,48.236 105.699,48.133 106.093 C 48.024 106.510,48.122 106.810,48.366 106.810 C 48.598 106.810,48.708 106.939,48.611 107.097 C 48.513 107.254,48.836 108.746,49.328 110.412 C 49.820 112.078,50.283 113.763,50.357 114.158 C 50.432 114.552,50.805 115.704,51.187 116.718 C 51.569 117.732,51.762 118.755,51.616 118.991 C 51.333 119.449,41.058 119.546,39.901 119.102 C 39.504 118.949,39.394 119.013,39.568 119.294 C 39.720 119.539,39.615 119.713,39.317 119.713 C 38.653 119.713,38.743 118.789,39.571 117.102 C 39.937 116.356,40.138 115.646,40.017 115.524 C 39.895 115.403,40.032 115.127,40.321 114.910 C 40.609 114.693,40.946 113.871,41.068 113.082 C 41.190 112.294,41.522 110.963,41.806 110.125 C 42.090 109.286,42.357 108.117,42.398 107.527 C 42.439 106.936,42.594 106.453,42.742 106.452 C 42.890 106.452,43.011 106.207,43.011 105.909 C 43.011 105.611,43.152 105.087,43.324 104.744 C 43.666 104.065,45.010 98.611,45.134 97.401 C 45.231 96.452,45.868 97.472,46.365 99.373 M70.650 98.193 C 70.202 99.132,70.528 106.180,71.034 106.492 C 71.281 106.645,72.110 106.707,72.877 106.631 C 73.645 106.555,74.188 106.577,74.084 106.680 C 73.981 106.784,74.118 107.399,74.389 108.048 C 74.660 108.697,74.781 109.329,74.657 109.453 C 74.534 109.576,74.586 109.677,74.774 109.677 C 74.962 109.677,75.127 109.960,75.142 110.305 C 75.182 111.277,75.459 112.422,76.656 116.563 C 77.266 118.672,77.870 121.061,78.000 121.872 C 78.129 122.682,78.419 123.536,78.642 123.770 C 78.866 124.003,79.038 124.435,79.025 124.731 C 79.011 125.027,79.195 126.039,79.434 126.979 C 79.672 127.920,79.865 128.774,79.861 128.876 C 79.855 129.046,80.056 129.626,80.849 131.720 C 80.999 132.115,81.142 132.518,81.167 132.616 C 83.338 140.976,82.625 140.285,89.118 140.325 C 95.230 140.363,95.012 140.470,95.679 137.097 C 95.913 135.914,96.249 134.462,96.426 133.871 C 96.603 133.280,96.809 132.392,96.885 131.900 C 96.960 131.407,97.116 130.762,97.231 130.466 C 97.436 129.940,97.970 127.740,99.089 122.819 C 99.395 121.471,99.565 120.238,99.466 120.078 C 99.368 119.918,99.527 119.328,99.820 118.765 C 100.114 118.202,100.355 117.437,100.356 117.065 C 100.357 116.692,100.641 116.173,100.986 115.911 C 101.369 115.620,101.438 115.431,101.165 115.424 C 100.918 115.417,100.717 115.061,100.717 114.633 C 100.717 113.876,100.735 113.872,101.347 114.517 C 101.793 114.987,101.939 115.596,101.843 116.599 C 101.740 117.677,101.817 117.948,102.164 117.734 C 102.440 117.563,102.531 117.596,102.393 117.819 C 102.269 118.020,102.404 119.053,102.694 120.114 C 102.984 121.175,103.454 123.095,103.739 124.381 C 104.024 125.667,104.447 127.199,104.680 127.786 C 104.912 128.373,105.157 129.381,105.223 130.026 C 105.289 130.670,105.464 131.393,105.612 131.632 C 105.759 131.871,105.908 132.311,105.942 132.610 C 105.976 132.909,106.191 133.880,106.421 134.767 C 106.650 135.654,106.900 136.622,106.976 136.918 C 107.052 137.213,107.126 137.818,107.141 138.262 C 107.205 140.142,111.525 140.848,118.881 140.182 C 119.417 140.133,120.879 136.279,120.559 135.761 C 120.407 135.514,120.489 135.478,120.785 135.661 C 121.137 135.878,121.206 135.714,121.068 134.991 C 120.967 134.464,121.035 133.940,121.219 133.826 C 121.404 133.712,121.472 133.404,121.371 133.141 C 121.270 132.878,121.335 132.612,121.515 132.550 C 121.695 132.488,121.888 132.034,121.943 131.541 C 121.998 131.048,122.143 130.565,122.264 130.466 C 122.493 130.281,123.301 126.587,123.413 125.213 C 123.448 124.789,123.621 124.530,123.797 124.639 C 123.974 124.749,124.037 124.411,123.937 123.888 C 123.837 123.366,123.876 122.939,124.024 122.939 C 124.172 122.939,124.403 122.334,124.537 121.595 C 124.671 120.856,125.033 119.525,125.340 118.638 C 125.962 116.845,127.144 111.836,127.555 109.258 C 127.904 107.063,128.366 106.558,129.914 106.680 C 131.514 106.806,131.744 106.352,131.846 102.867 C 131.890 101.389,132.013 99.736,132.120 99.193 C 132.247 98.554,132.147 98.143,131.838 98.024 C 130.887 97.659,114.698 97.663,114.569 98.029 C 114.318 98.744,114.796 106.283,115.118 106.690 C 115.341 106.971,115.798 107.008,116.513 106.803 C 117.264 106.587,117.505 106.614,117.332 106.894 C 117.182 107.136,117.284 107.214,117.594 107.096 C 117.958 106.956,118.100 107.191,118.100 107.931 C 118.100 108.497,117.979 108.961,117.832 108.961 C 117.684 108.961,117.563 109.455,117.563 110.059 C 117.563 110.664,117.407 111.449,117.216 111.805 C 117.026 112.161,116.824 113.103,116.768 113.898 C 116.712 114.693,116.532 115.260,116.367 115.158 C 116.202 115.056,116.104 115.435,116.150 115.999 C 116.196 116.563,116.042 117.496,115.808 118.073 C 115.574 118.649,115.461 119.324,115.557 119.573 C 115.652 119.822,115.568 120.080,115.369 120.146 C 115.170 120.212,114.929 120.989,114.833 121.872 C 114.457 125.330,114.329 125.781,113.786 125.573 C 113.498 125.462,113.262 125.137,113.262 124.851 C 113.262 124.565,113.136 124.408,112.982 124.503 C 112.829 124.598,112.726 124.245,112.754 123.718 C 112.782 123.191,112.584 122.322,112.314 121.787 C 112.044 121.252,111.745 119.881,111.649 118.740 C 111.554 117.600,111.406 116.344,111.321 115.950 C 111.236 115.556,111.154 114.941,111.139 114.585 C 111.122 114.189,110.950 114.036,110.697 114.192 C 110.442 114.350,110.381 114.290,110.537 114.038 C 110.869 113.500,110.132 109.533,109.671 109.378 C 109.475 109.312,109.394 109.129,109.491 108.973 C 109.739 108.571,108.435 102.437,108.160 102.713 C 108.035 102.837,108.022 102.600,108.131 102.186 C 108.239 101.772,108.174 101.434,107.987 101.434 C 107.800 101.434,107.676 101.071,107.711 100.627 C 107.798 99.528,107.191 97.858,106.685 97.810 C 104.279 97.579,96.223 97.737,95.857 98.023 C 95.600 98.223,95.309 98.871,95.211 99.462 C 95.112 100.054,94.775 101.488,94.461 102.650 C 94.146 103.811,93.973 104.845,94.074 104.946 C 94.176 105.048,94.106 105.315,93.920 105.540 C 93.734 105.764,93.406 106.908,93.191 108.082 C 92.977 109.255,92.654 110.860,92.474 111.649 C 91.752 114.807,91.312 117.080,91.217 118.140 C 91.162 118.754,90.939 119.590,90.720 119.999 C 90.501 120.407,90.310 121.518,90.295 122.467 C 90.280 123.417,90.065 124.839,89.818 125.627 L 89.369 127.061 88.771 125.673 C 88.441 124.910,88.172 124.154,88.172 123.994 C 88.172 123.834,87.990 123.249,87.767 122.694 C 87.544 122.139,87.328 121.362,87.288 120.968 C 87.093 119.058,86.249 115.771,85.954 115.771 C 85.771 115.771,85.712 115.623,85.824 115.442 C 86.138 114.934,85.295 111.470,84.857 111.470 C 84.643 111.470,84.564 111.374,84.680 111.258 C 84.797 111.141,84.664 110.294,84.385 109.376 C 83.777 107.372,83.783 107.430,84.229 107.706 C 84.427 107.828,84.588 107.628,84.588 107.262 C 84.588 106.711,84.806 106.621,85.847 106.743 C 86.540 106.823,87.329 106.705,87.600 106.480 C 88.375 105.837,88.985 102.141,88.491 101.075 C 88.354 100.780,88.106 99.926,87.938 99.178 L 87.634 97.818 79.274 97.729 C 72.036 97.652,70.878 97.715,70.650 98.193 M234.086 106.535 C 234.204 106.712,234.527 106.903,234.803 106.959 C 236.333 107.268,238.315 108.941,238.340 109.946 C 238.346 110.193,238.478 110.394,238.633 110.394 C 238.913 110.394,239.017 110.813,239.169 112.545 L 239.247 113.441 230.914 113.470 C 223.066 113.497,222.581 113.461,222.581 112.843 C 222.581 112.482,222.751 112.186,222.960 112.186 C 223.169 112.186,223.263 112.061,223.168 111.909 C 222.626 111.031,226.912 106.826,228.602 106.578 C 228.875 106.538,229.201 106.403,229.326 106.277 C 229.667 105.936,233.838 106.161,234.086 106.535 M273.835 110.058 C 271.304 111.250,268.459 113.743,268.459 114.770 C 268.459 115.123,268.297 115.412,268.100 115.412 C 267.903 115.412,267.742 115.723,267.742 116.103 C 267.742 116.484,267.534 117.008,267.279 117.268 C 266.622 117.940,266.048 119.653,265.919 121.326 C 265.650 124.806,266.011 129.839,266.581 130.566 C 266.770 130.807,267.211 131.770,267.561 132.706 C 267.911 133.642,268.337 134.409,268.507 134.409 C 268.678 134.409,268.817 134.650,268.817 134.945 C 268.817 135.652,271.313 138.402,271.724 138.148 C 271.899 138.039,272.043 138.131,272.043 138.351 C 272.043 138.572,272.245 138.650,272.491 138.525 C 272.737 138.400,272.657 138.529,272.312 138.812 C 271.409 139.552,271.539 139.896,272.643 139.685 C 273.170 139.585,274.259 139.738,275.062 140.026 C 276.782 140.643,284.328 140.744,284.525 140.154 C 284.592 139.951,284.957 139.785,285.335 139.785 C 285.712 139.785,286.022 139.624,286.022 139.427 C 286.022 139.229,286.205 139.068,286.429 139.068 C 287.417 139.068,291.512 134.521,292.668 132.141 C 293.845 129.719,293.857 129.642,293.845 124.640 C 293.834 119.755,293.669 118.847,292.578 117.656 C 292.340 117.396,292.221 116.987,292.313 116.746 C 292.785 115.515,285.673 108.827,284.599 109.492 C 284.395 109.617,284.229 109.549,284.229 109.340 C 284.229 108.350,276.300 108.898,273.835 110.058 M296.519 109.509 C 296.165 109.768,296.048 110.463,296.125 111.834 L 296.237 113.790 297.593 114.009 C 298.623 114.175,299.031 114.090,299.285 113.655 C 299.490 113.304,299.624 113.255,299.631 113.530 C 299.637 113.777,299.877 113.978,300.166 113.978 C 300.615 113.978,300.677 115.419,300.599 124.104 C 300.506 134.569,300.422 135.290,299.258 135.594 C 298.877 135.694,298.644 135.648,298.741 135.491 C 299.125 134.870,297.137 134.884,296.574 135.507 C 296.014 136.126,295.759 139.012,296.201 139.727 C 296.316 139.913,298.495 139.987,301.225 139.897 C 303.876 139.810,306.620 139.897,307.324 140.091 C 308.027 140.285,308.602 140.330,308.602 140.190 C 308.602 140.050,309.046 139.942,309.588 139.950 C 310.211 139.959,310.591 139.766,310.622 139.427 C 310.648 139.131,310.701 138.808,310.739 138.710 C 310.777 138.611,310.836 137.885,310.870 137.097 L 310.932 135.663 309.498 135.603 C 308.710 135.569,307.453 135.529,306.706 135.513 L 305.347 135.484 305.480 128.584 C 305.634 120.545,305.970 118.762,307.733 116.610 C 308.820 115.284,310.623 113.945,311.287 113.971 C 315.790 114.150,317.563 113.944,317.563 113.240 C 317.563 112.835,317.714 112.596,317.900 112.711 C 318.099 112.834,318.181 112.232,318.100 111.243 C 317.933 109.197,317.767 109.085,314.761 109.000 C 311.362 108.903,308.958 110.149,306.989 113.029 L 305.556 115.127 305.451 112.223 C 305.381 110.254,305.208 109.316,304.914 109.310 C 304.675 109.305,302.802 109.265,300.752 109.220 C 298.622 109.174,296.807 109.298,296.519 109.509 M327.330 109.236 C 326.886 109.309,326.523 109.528,326.523 109.724 C 326.523 109.919,326.357 109.975,326.153 109.849 C 325.713 109.577,321.505 113.839,321.505 114.557 C 321.505 114.830,321.366 115.054,321.196 115.054 C 320.554 115.054,319.657 118.349,319.596 120.927 C 319.562 122.406,319.390 123.498,319.210 123.387 C 319.020 123.270,319.015 123.395,319.198 123.690 C 319.370 123.967,319.531 124.677,319.555 125.269 C 319.666 127.920,321.304 132.056,322.860 133.613 C 323.223 133.976,323.752 134.587,324.036 134.971 C 326.075 137.731,332.716 138.530,336.640 136.488 C 338.123 135.717,338.888 135.483,338.985 135.772 C 339.063 136.008,339.276 136.201,339.456 136.201 C 339.952 136.201,339.851 135.207,339.337 135.034 C 338.817 134.859,339.599 133.692,340.236 133.692 C 341.162 133.692,340.236 140.900,339.136 142.262 C 337.143 144.728,331.996 145.656,328.615 144.160 C 326.851 143.380,324.991 141.176,325.336 140.276 C 325.471 139.924,325.347 139.846,324.918 140.011 C 324.511 140.167,324.001 139.914,323.385 139.250 C 322.627 138.433,322.393 138.344,322.073 138.751 C 321.358 139.664,320.377 140.318,320.499 139.801 C 320.560 139.546,320.408 139.263,320.161 139.173 C 319.439 138.908,319.619 141.420,320.437 143.025 C 320.836 143.806,321.329 144.444,321.534 144.444 C 321.739 144.444,321.826 144.575,321.727 144.734 C 321.629 144.893,321.968 145.337,322.482 145.720 C 322.996 146.102,323.598 146.577,323.820 146.774 C 325.992 148.702,327.412 149.051,333.117 149.062 C 337.435 149.070,338.602 148.962,339.374 148.482 C 340.834 147.574,344.488 143.729,344.253 143.349 C 344.138 143.163,344.194 143.011,344.377 143.011 C 345.327 143.011,345.547 139.674,345.445 126.818 L 345.341 113.672 347.117 113.793 C 349.622 113.964,350.476 112.524,349.458 109.846 L 349.096 108.892 344.799 109.016 C 342.295 109.088,340.485 109.289,340.461 109.498 C 340.438 109.695,340.431 110.456,340.446 111.189 C 340.477 112.717,340.039 113.180,339.358 112.338 C 336.851 109.237,333.133 108.278,327.330 109.236 M282.258 113.744 C 284.160 114.193,284.657 114.548,285.780 116.258 C 288.910 121.025,289.262 129.249,286.462 132.202 C 286.210 132.468,285.780 133.118,285.506 133.649 C 284.682 135.243,279.873 136.786,278.466 135.908 C 278.093 135.675,277.459 135.484,277.058 135.484 C 276.296 135.484,273.338 132.980,272.708 131.802 C 272.379 131.189,272.269 130.484,271.897 126.621 C 271.835 125.984,271.581 125.218,271.333 124.918 C 270.972 124.484,270.970 124.264,271.324 123.837 C 271.569 123.543,271.693 122.902,271.599 122.414 C 271.506 121.926,271.568 121.612,271.736 121.717 C 271.905 121.821,272.060 121.614,272.081 121.258 C 272.102 120.901,272.155 120.367,272.199 120.072 C 272.243 119.776,272.308 119.131,272.343 118.638 C 272.380 118.117,273.124 116.991,274.118 115.950 C 275.820 114.167,276.182 113.952,277.654 113.852 C 278.078 113.823,278.341 113.661,278.237 113.493 C 278.059 113.206,280.669 113.368,282.258 113.744 M335.036 113.969 C 335.874 114.349,336.559 114.604,336.559 114.534 C 336.559 114.465,337.124 114.973,337.814 115.663 C 341.168 119.017,341.514 126.997,338.451 130.323 C 331.985 137.344,322.968 131.233,324.911 121.147 C 325.043 120.457,325.193 119.557,325.244 119.148 C 325.795 114.681,330.787 112.040,335.036 113.969 M159.677 121.147 C 159.556 121.344,159.613 121.505,159.806 121.505 C 159.998 121.505,160.223 121.304,160.306 121.057 C 160.390 120.811,160.486 121.577,160.521 122.760 C 160.655 127.321,157.356 132.293,154.240 132.226 C 153.485 132.209,152.105 132.350,151.173 132.538 C 150.242 132.726,149.566 132.739,149.671 132.569 C 149.777 132.398,149.553 132.258,149.173 132.258 C 148.794 132.258,148.080 131.941,147.587 131.553 C 147.094 131.165,146.563 130.964,146.406 131.105 C 146.250 131.246,146.238 131.160,146.379 130.914 C 146.537 130.640,146.428 130.466,146.098 130.466 C 145.448 130.466,145.434 125.030,146.083 124.383 C 146.577 123.889,150.149 122.581,151.002 122.581 C 151.361 122.581,151.556 122.419,151.434 122.222 C 151.219 121.874,151.889 121.720,153.104 121.840 C 153.432 121.872,153.801 121.735,153.924 121.536 C 154.070 121.299,154.459 121.293,155.054 121.519 C 156.239 121.969,157.810 121.963,157.529 121.509 C 157.406 121.309,157.543 121.244,157.845 121.360 C 158.139 121.473,158.671 121.395,159.028 121.188 C 159.851 120.710,159.952 120.703,159.677 121.147 M259.312 133.905 C 259.119 133.954,258.216 134.094,257.305 134.216 L 255.650 134.438 255.793 136.484 C 256.041 140.011,256.020 139.967,257.451 139.943 C 258.160 139.931,258.648 140.069,258.536 140.250 C 258.417 140.443,258.685 140.462,259.185 140.297 C 259.653 140.142,260.439 140.004,260.932 139.990 C 261.661 139.969,261.845 139.764,261.921 138.889 C 262.276 134.802,261.515 133.347,259.312 133.905 " stroke="none" fill="#282641" fill-rule="evenodd"></path></g></svg>