<svg id="svg" version="1.1" xmlns="http://www.w3.org/2000/svg" xmlns:xlink="http://www.w3.org/1999/xlink" width="400" height="167.71488469601678" viewBox="0, 0, 400,167.71488469601678"><g id="svgg"><path id="path0" d="M154.130 15.110 C 152.977 15.183,151.694 15.318,151.279 15.409 C 148.787 15.958,147.615 16.270,147.170 16.505 C 146.893 16.650,146.581 16.770,146.477 16.770 C 146.373 16.771,145.673 17.083,144.922 17.464 C 141.807 19.045,139.028 23.040,138.363 26.893 C 138.265 27.460,138.075 28.382,137.940 28.941 C 137.048 32.632,137.116 59.118,138.027 62.977 C 138.201 63.715,138.394 64.621,138.455 64.990 C 138.566 65.662,139.028 66.947,139.720 68.507 C 140.375 69.981,143.157 73.116,144.403 73.782 C 148.314 75.873,148.900 76.083,151.970 76.494 C 155.928 77.023,156.529 77.042,159.586 76.735 C 163.853 76.306,164.878 76.093,166.413 75.314 C 167.151 74.940,167.823 74.633,167.905 74.633 C 168.733 74.633,172.488 70.826,173.116 69.350 C 175.111 64.659,175.269 63.902,175.382 58.516 C 175.457 54.918,175.432 53.858,175.270 53.757 C 174.980 53.578,166.211 53.594,166.042 53.774 C 165.967 53.855,165.866 55.769,165.817 58.029 C 165.674 64.603,165.368 65.948,163.539 68.062 C 162.376 69.406,162.154 69.514,159.643 69.950 C 153.135 71.081,149.342 69.010,148.241 63.724 L 147.841 61.803 147.841 45.786 C 147.841 27.862,147.840 27.876,149.019 25.392 C 150.463 22.352,154.647 20.969,159.905 21.794 C 164.505 22.516,165.633 24.665,165.827 33.078 C 165.890 35.845,165.965 36.767,166.136 36.909 C 166.501 37.213,175.079 37.186,175.289 36.881 C 175.389 36.736,175.422 34.931,175.374 32.201 C 175.280 26.897,175.239 26.707,173.266 22.414 C 172.241 20.183,169.393 17.493,167.290 16.770 C 166.804 16.602,166.248 16.381,166.055 16.277 C 165.862 16.174,165.269 16.011,164.739 15.915 C 164.208 15.819,163.456 15.635,163.068 15.506 C 162.481 15.310,157.307 14.876,156.478 14.953 C 156.340 14.966,155.283 15.036,154.130 15.110 M205.031 15.104 C 203.141 15.251,199.795 15.993,198.912 16.461 C 198.591 16.632,198.223 16.771,198.094 16.771 C 196.854 16.771,193.044 20.121,192.185 21.967 C 191.990 22.384,191.734 22.839,191.614 22.977 C 190.383 24.404,189.986 30.646,190.937 33.627 C 192.046 37.103,194.573 40.377,197.954 42.720 C 200.140 44.234,201.159 44.972,202.180 45.782 C 202.826 46.293,203.807 47.011,204.361 47.376 C 204.914 47.742,205.687 48.316,206.079 48.653 C 206.471 48.990,207.528 49.760,208.427 50.363 C 209.327 50.967,210.289 51.700,210.566 51.991 C 210.843 52.283,211.522 52.848,212.075 53.247 C 215.191 55.495,216.979 58.148,217.423 61.182 C 218.400 67.870,214.179 71.372,206.960 69.863 C 202.838 69.001,200.142 65.005,199.589 58.940 C 199.419 57.072,199.027 56.787,197.505 57.423 C 197.200 57.550,196.391 57.744,195.708 57.853 C 195.024 57.962,193.975 58.191,193.375 58.363 C 192.776 58.534,191.998 58.722,191.647 58.780 C 190.256 59.012,189.944 60.849,190.856 63.434 C 191.042 63.962,191.195 64.487,191.195 64.601 C 191.195 64.939,193.061 68.956,193.567 69.706 C 194.289 70.778,197.121 73.541,197.755 73.792 C 198.067 73.916,198.440 74.116,198.583 74.237 C 198.726 74.358,199.175 74.574,199.581 74.717 C 199.987 74.860,200.436 75.081,200.579 75.209 C 201.119 75.690,203.393 76.274,205.786 76.547 C 207.124 76.699,208.513 76.862,208.874 76.909 C 209.560 76.998,211.746 76.792,214.591 76.371 C 215.837 76.187,216.613 75.959,217.610 75.484 C 218.348 75.132,219.140 74.789,219.371 74.722 C 219.602 74.655,220.055 74.430,220.377 74.222 C 221.980 73.192,222.598 72.801,222.700 72.755 C 222.813 72.704,224.312 70.837,225.013 69.877 C 227.911 65.900,227.903 58.989,224.994 54.088 C 224.775 53.719,224.523 53.336,224.435 53.236 C 224.347 53.137,224.067 52.722,223.813 52.314 C 223.558 51.906,222.765 50.969,222.051 50.231 C 221.337 49.493,220.439 48.538,220.055 48.108 C 219.672 47.679,219.115 47.211,218.819 47.070 C 218.523 46.928,217.753 46.329,217.107 45.739 C 216.461 45.149,215.750 44.569,215.527 44.450 C 215.134 44.241,211.658 41.789,211.488 41.600 C 211.408 41.511,210.618 40.910,209.561 40.133 C 209.284 39.929,208.792 39.615,208.470 39.436 C 208.147 39.257,207.694 38.907,207.463 38.659 C 207.233 38.411,206.327 37.731,205.451 37.148 C 203.586 35.906,200.755 33.203,200.438 32.361 C 200.318 32.043,200.095 31.483,199.942 31.117 C 199.411 29.845,199.548 26.326,200.180 24.990 C 202.550 19.981,213.632 20.406,215.608 25.581 C 215.766 25.994,215.954 26.331,216.028 26.331 C 216.101 26.331,216.242 26.765,216.342 27.296 C 216.442 27.826,216.634 28.637,216.769 29.099 C 216.903 29.560,217.064 30.484,217.126 31.152 C 217.279 32.801,217.258 32.794,219.784 32.029 C 220.974 31.668,222.708 31.249,223.637 31.098 C 225.895 30.730,226.022 30.605,225.794 28.981 C 225.699 28.306,225.463 27.405,225.269 26.979 C 225.075 26.554,224.865 25.886,224.803 25.496 C 224.350 22.666,220.904 18.298,218.197 17.125 C 217.505 16.826,216.750 16.479,216.519 16.355 C 216.288 16.232,215.609 16.043,215.010 15.936 C 214.411 15.830,213.540 15.634,213.076 15.501 C 212.234 15.260,208.652 14.916,207.379 14.954 C 207.010 14.965,205.954 15.033,205.031 15.104 M257.610 15.109 C 256.457 15.185,255.023 15.360,254.423 15.496 C 253.824 15.633,252.881 15.832,252.327 15.938 C 251.774 16.044,251.170 16.226,250.985 16.342 C 250.801 16.458,250.348 16.650,249.979 16.769 C 248.697 17.182,247.649 17.819,246.568 18.844 C 244.706 20.609,244.335 21.027,244.015 21.719 C 243.845 22.088,243.599 22.579,243.468 22.809 C 241.200 26.811,240.922 29.344,240.922 46.038 C 240.922 62.914,241.068 64.090,243.802 69.350 C 244.901 71.463,247.807 74.254,249.392 74.718 C 249.623 74.785,249.925 74.938,250.063 75.058 C 250.681 75.591,252.327 76.129,254.118 76.384 C 255.163 76.533,256.522 76.728,257.139 76.818 C 258.618 77.033,260.412 77.025,261.784 76.796 C 264.809 76.293,265.479 76.137,266.331 75.736 C 266.839 75.497,267.593 75.038,268.008 74.714 C 268.423 74.390,268.961 74.032,269.204 73.917 C 269.722 73.671,270.573 72.661,271.279 71.454 C 272.093 70.060,272.108 70.045,272.572 70.162 C 273.131 70.302,273.335 71.085,273.517 73.777 C 273.698 76.458,273.490 76.310,277.091 76.310 C 279.701 76.310,279.917 76.287,280.078 75.986 C 280.344 75.489,280.317 46.589,280.050 46.323 C 279.804 46.077,262.201 46.034,261.814 46.279 C 261.533 46.457,261.540 51.591,261.822 51.931 C 261.936 52.069,263.155 52.097,266.212 52.033 C 270.097 51.951,270.463 51.967,270.686 52.236 C 271.174 52.824,270.933 60.661,270.353 63.061 C 270.186 63.753,270.008 64.511,269.957 64.745 C 269.481 66.938,266.702 69.355,264.067 69.868 C 256.641 71.313,252.232 68.526,251.442 61.887 C 251.017 58.311,251.010 33.239,251.433 29.434 C 252.029 24.081,253.888 22.265,259.427 21.627 C 266.548 20.805,269.801 23.704,269.980 31.027 C 270.024 32.826,270.116 34.402,270.185 34.529 C 270.401 34.928,279.077 34.836,279.381 34.431 C 279.742 33.951,279.318 27.459,278.852 26.328 C 278.720 26.007,278.557 25.405,278.489 24.990 C 277.389 18.218,269.203 14.344,257.610 15.109 M313.685 15.113 C 310.370 15.337,305.879 16.408,304.570 17.286 C 304.340 17.441,303.811 17.761,303.396 17.997 C 302.471 18.524,299.611 21.306,299.449 21.837 C 299.384 22.049,299.237 22.335,299.122 22.474 C 298.743 22.927,297.905 24.886,297.687 25.828 C 297.570 26.335,297.380 26.977,297.267 27.254 C 297.153 27.530,296.976 28.587,296.874 29.602 C 296.772 30.616,296.606 32.164,296.506 33.040 C 295.898 38.368,296.517 61.467,297.340 64.131 C 297.535 64.761,297.694 65.429,297.694 65.615 C 297.694 65.976,298.248 67.362,299.053 69.015 C 299.686 70.316,302.499 73.290,303.567 73.788 C 303.980 73.981,304.507 74.246,304.738 74.377 C 306.776 75.539,309.017 76.241,311.447 76.478 C 312.507 76.582,314.079 76.743,314.938 76.837 C 318.111 77.181,325.182 76.152,326.434 75.163 C 326.539 75.080,326.927 74.918,327.296 74.803 C 327.665 74.687,328.369 74.319,328.861 73.984 C 329.352 73.649,330.027 73.211,330.360 73.010 C 331.078 72.576,333.277 69.836,333.767 68.763 C 333.957 68.348,334.206 67.895,334.320 67.757 C 334.637 67.374,335.401 65.253,335.528 64.405 C 335.590 63.991,335.747 63.351,335.876 62.983 C 336.394 61.517,336.678 39.650,336.278 32.076 C 336.065 28.044,335.211 24.857,333.756 22.666 C 333.385 22.108,333.082 21.602,333.082 21.541 C 333.082 20.944,329.911 18.141,328.302 17.316 C 325.545 15.901,319.722 14.770,316.143 14.953 C 315.912 14.965,314.806 15.037,313.685 15.113 M319.245 21.817 C 321.922 22.190,324.016 23.503,324.915 25.373 C 326.136 27.914,326.236 29.640,326.173 47.044 C 326.107 65.146,326.045 65.639,323.522 67.960 C 321.193 70.103,317.931 70.739,313.457 69.922 C 309.301 69.163,307.618 67.093,306.936 61.902 C 306.683 59.981,306.680 31.464,306.932 29.503 C 307.382 25.997,308.717 23.472,310.461 22.825 C 310.772 22.710,311.339 22.476,311.719 22.305 C 312.327 22.033,313.722 21.773,315.639 21.575 C 316.331 21.504,317.615 21.590,319.245 21.817 " stroke="none" fill="#e7e7e7" fill-rule="evenodd"></path><path id="path1" d="M52.830 5.850 C 52.072 6.020,50.150 6.730,48.966 7.277 C 45.557 8.855,42.747 13.912,42.757 18.449 C 42.761 20.171,42.799 20.372,43.650 23.179 C 44.032 24.438,42.900 24.874,41.455 24.025 C 37.723 21.831,30.342 26.464,28.504 32.155 C 28.391 32.503,28.199 32.986,28.076 33.228 C 26.889 35.577,26.215 42.851,26.796 47.044 C 27.084 49.123,26.643 49.476,23.749 49.476 C 20.563 49.476,20.542 49.499,20.381 53.166 C 20.251 56.137,19.857 60.448,19.652 61.134 C 18.708 64.298,19.368 65.902,21.719 66.160 C 22.766 66.275,23.648 66.540,23.648 66.739 C 23.648 66.949,22.976 67.581,22.483 67.836 C 20.744 68.735,20.378 71.961,21.387 77.484 C 21.636 78.842,21.937 81.430,22.001 82.746 C 22.044 83.625,21.821 83.928,20.674 84.550 C 19.693 85.081,19.206 87.278,19.781 88.578 C 20.100 89.298,20.073 90.141,19.713 90.724 C 19.500 91.067,19.974 93.797,20.423 94.813 L 20.854 95.790 20.571 97.329 C 20.416 98.175,20.182 99.623,20.052 100.545 C 19.921 101.468,19.703 102.977,19.567 103.899 C 19.036 107.501,18.916 109.520,19.158 110.776 C 19.467 112.375,19.300 113.549,18.636 114.443 C 18.352 114.824,17.753 115.891,17.304 116.813 C 16.856 117.736,16.056 119.057,15.526 119.748 C 13.914 121.856,11.876 126.359,11.653 128.302 C 11.388 130.620,10.890 132.029,9.631 134.024 C 8.472 135.860,8.041 139.626,8.846 140.881 C 9.466 141.845,9.282 143.222,8.041 146.918 C 7.871 147.426,7.647 148.294,7.543 148.847 C 7.439 149.400,7.248 150.231,7.120 150.692 C 5.350 157.033,5.352 160.545,7.127 161.471 C 8.237 162.050,16.407 161.943,17.151 161.340 C 17.652 160.933,17.689 158.812,17.216 157.652 C 15.364 153.117,16.800 145.494,20.041 142.649 C 21.385 141.469,21.632 141.063,22.398 138.784 C 22.739 137.769,23.075 136.864,23.144 136.771 C 23.214 136.679,23.326 136.415,23.393 136.184 C 23.526 135.725,24.330 133.979,25.346 131.944 C 26.387 129.857,26.717 128.378,26.588 126.373 C 26.425 123.840,27.266 121.691,28.905 120.453 C 29.675 119.872,29.939 119.524,30.510 118.332 C 30.929 117.459,31.434 116.693,31.814 116.357 C 33.755 114.636,34.073 114.031,34.298 111.614 C 34.443 110.068,34.663 109.080,35.046 108.260 C 35.612 107.047,36.017 106.086,36.141 105.660 C 36.629 103.991,38.170 101.085,39.037 100.199 C 39.662 99.561,39.959 99.077,40.237 98.242 C 40.911 96.216,41.455 96.320,42.714 98.718 C 43.306 99.846,43.951 100.267,45.339 100.434 C 46.622 100.589,47.082 100.921,47.655 102.104 C 47.854 102.516,48.449 103.390,48.975 104.047 C 49.502 104.704,50.097 105.543,50.297 105.912 C 50.971 107.154,53.200 110.420,54.303 111.782 C 55.238 112.935,55.735 113.133,57.581 113.086 C 59.678 113.033,60.937 114.238,60.637 116.011 C 60.578 116.362,60.470 117.409,60.398 118.338 C 60.275 119.937,60.234 120.072,59.651 120.836 C 58.645 122.153,58.598 122.512,59.011 125.738 C 59.210 127.287,59.446 129.516,59.537 130.693 C 59.628 131.869,59.818 133.108,59.959 133.445 C 60.100 133.783,60.364 134.882,60.545 135.887 C 60.897 137.843,60.922 137.918,61.430 138.483 C 61.991 139.106,62.309 147.448,61.810 148.415 C 61.437 149.136,60.598 152.368,60.386 153.902 C 60.282 154.653,60.129 155.505,60.046 155.794 C 59.550 157.521,60.368 157.913,64.356 157.862 C 66.795 157.831,67.755 157.879,68.297 158.060 C 68.962 158.282,70.848 158.778,72.604 159.193 C 73.581 159.423,82.038 159.270,82.888 159.006 C 84.487 158.511,84.463 155.873,82.851 155.006 C 81.851 154.468,79.908 153.670,79.261 153.530 C 78.525 153.372,77.993 153.073,77.300 152.428 C 76.969 152.119,76.383 151.581,76.000 151.234 C 75.616 150.886,74.896 150.056,74.400 149.389 C 73.904 148.722,73.294 147.987,73.044 147.757 C 72.097 146.884,71.748 144.764,71.886 140.713 C 71.978 137.985,72.055 137.524,72.621 136.318 C 73.350 134.762,73.448 133.308,72.976 131.037 C 72.520 128.844,72.524 128.679,73.124 125.477 C 74.157 119.958,74.464 112.146,73.707 110.608 C 73.480 110.147,73.294 109.519,73.293 109.213 C 73.291 108.492,73.076 108.090,72.196 107.170 C 71.800 106.755,71.398 106.151,71.304 105.828 C 71.050 104.962,70.297 102.937,70.104 102.602 C 70.012 102.442,69.937 102.233,69.937 102.137 C 69.937 102.042,69.760 101.682,69.544 101.338 C 69.327 100.994,69.052 100.411,68.933 100.042 C 68.813 99.673,68.453 98.730,68.132 97.945 C 67.811 97.161,67.411 96.180,67.244 95.765 C 66.336 93.515,63.993 89.680,61.967 87.128 C 61.454 86.482,60.854 85.690,60.632 85.367 C 60.410 85.044,59.887 84.413,59.471 83.965 C 57.821 82.190,57.299 77.893,58.671 77.381 C 59.117 77.214,60.369 77.413,60.645 77.694 C 60.887 77.940,61.678 77.814,62.224 77.442 C 63.689 76.445,64.384 74.480,64.580 70.776 C 64.661 69.254,64.824 67.178,64.942 66.164 C 65.593 60.577,65.003 58.034,62.845 57.133 C 61.920 56.746,61.722 56.297,61.946 55.094 C 62.407 52.623,62.667 52.643,67.286 55.504 C 68.828 56.459,71.713 57.648,73.627 58.117 C 74.503 58.331,75.585 58.664,76.030 58.855 C 77.230 59.371,79.162 58.631,81.015 56.947 C 81.527 56.481,82.168 55.952,82.440 55.771 C 84.376 54.480,84.997 53.096,85.528 48.889 C 85.723 47.341,85.978 47.028,87.551 46.402 C 88.630 45.972,88.701 45.772,88.323 44.229 C 86.866 38.283,86.884 38.132,89.238 36.394 C 89.951 35.868,90.566 35.223,90.566 35.002 C 90.566 34.643,91.456 33.690,92.127 33.332 C 92.824 32.959,92.884 32.956,98.935 33.008 C 105.881 33.067,105.850 33.072,106.352 31.902 L 106.672 31.156 108.053 31.270 C 108.934 31.343,109.738 31.312,110.273 31.186 C 111.374 30.924,119.194 30.893,119.665 31.148 C 120.074 31.370,120.573 31.401,123.312 31.380 C 125.214 31.365,125.488 31.326,125.786 31.027 C 126.247 30.566,126.226 29.759,125.744 29.453 C 125.253 29.140,120.154 29.036,119.161 29.319 C 118.756 29.434,117.064 29.511,114.880 29.514 C 110.965 29.518,110.524 29.426,110.524 28.607 C 110.524 27.531,110.346 27.211,109.688 27.106 C 108.371 26.895,108.253 26.649,108.309 24.207 C 108.366 21.694,108.179 21.109,107.510 21.714 C 107.163 22.029,107.154 22.125,107.266 24.336 C 107.404 27.058,107.331 27.505,106.747 27.505 C 106.368 27.505,106.183 27.360,105.409 26.457 C 105.173 26.181,104.208 26.163,89.602 26.163 C 75.085 26.162,74.017 26.142,73.609 25.869 C 71.747 24.624,71.279 24.143,71.279 23.477 C 71.279 22.042,70.587 22.137,70.179 23.628 C 69.725 25.292,69.515 25.626,68.812 25.803 C 68.462 25.892,67.572 26.134,66.834 26.342 C 62.693 27.511,62.255 27.355,62.103 24.654 C 61.999 22.802,62.054 22.708,63.539 22.225 C 66.363 21.305,67.043 18.138,65.412 13.501 C 65.152 12.763,64.896 11.746,64.842 11.240 C 64.735 10.228,64.502 9.958,63.312 9.466 C 62.268 9.034,61.704 8.712,60.788 8.025 C 58.581 6.369,54.946 5.376,52.830 5.850 M80.523 35.052 C 81.036 35.759,81.291 37.008,81.012 37.449 C 80.883 37.653,80.664 38.046,80.525 38.323 C 80.386 38.600,79.844 39.392,79.321 40.084 C 78.797 40.776,78.247 41.578,78.100 41.867 C 77.375 43.286,76.162 43.557,75.610 42.422 C 75.455 42.105,75.091 41.371,74.801 40.792 C 74.035 39.265,74.589 37.993,76.171 37.646 C 76.751 37.518,77.273 36.881,77.414 36.127 C 77.678 34.724,79.761 34.004,80.523 35.052 M116.508 87.227 C 115.417 87.300,114.172 87.473,113.740 87.611 C 113.309 87.748,112.540 87.943,112.031 88.043 C 111.238 88.199,110.127 88.707,106.435 90.597 C 105.717 90.965,102.589 93.927,102.217 94.591 C 102.088 94.822,101.867 95.275,101.725 95.597 C 101.583 95.920,101.303 96.486,101.102 96.855 C 100.902 97.224,100.642 97.941,100.524 98.449 C 100.406 98.956,100.178 99.786,100.017 100.294 C 99.255 102.696,99.899 109.930,101.040 111.782 C 101.154 111.966,101.302 112.343,101.371 112.619 C 101.645 113.731,103.813 116.592,105.515 118.088 C 107.326 119.680,108.556 120.668,109.518 121.305 C 110.025 121.641,110.769 122.202,111.172 122.551 C 111.574 122.901,112.329 123.469,112.849 123.813 C 113.369 124.158,113.870 124.500,113.962 124.573 C 114.055 124.647,114.394 124.869,114.717 125.067 C 115.040 125.265,115.530 125.666,115.807 125.957 C 116.084 126.249,116.531 126.602,116.801 126.743 C 117.340 127.024,119.508 128.573,119.924 128.973 C 120.067 129.111,121.001 129.790,122.000 130.482 C 122.998 131.174,124.351 132.222,125.006 132.811 C 125.662 133.400,126.472 134.063,126.806 134.285 C 128.165 135.184,131.159 138.797,131.693 140.181 C 133.283 144.306,132.708 149.363,130.426 151.317 C 129.858 151.803,129.254 152.327,129.084 152.480 C 127.646 153.772,123.347 154.318,119.888 153.647 C 115.761 152.846,112.660 149.377,111.521 144.286 C 111.351 143.531,111.135 142.623,111.040 142.271 C 110.945 141.918,110.817 140.969,110.755 140.162 C 110.569 137.746,110.599 137.750,104.822 139.436 C 104.038 139.665,102.766 139.938,101.997 140.041 C 100.011 140.309,98.973 140.908,99.374 141.556 C 99.437 141.659,99.556 142.277,99.638 142.931 C 99.721 143.584,99.939 144.617,100.124 145.225 C 100.309 145.833,100.567 146.746,100.698 147.254 C 101.301 149.596,102.658 152.544,103.669 153.711 C 103.829 153.895,104.376 154.537,104.884 155.136 C 105.392 155.736,105.907 156.323,106.028 156.441 C 106.853 157.247,111.273 160.168,111.668 160.168 C 111.773 160.168,112.332 160.350,112.911 160.573 C 116.429 161.930,127.325 162.571,129.261 161.535 C 129.461 161.427,130.192 161.231,130.883 161.099 C 131.575 160.967,132.315 160.748,132.528 160.613 C 132.740 160.479,133.178 160.314,133.501 160.247 C 133.824 160.180,134.805 159.654,135.681 159.079 C 136.558 158.504,137.501 157.918,137.778 157.776 C 138.254 157.532,138.643 157.160,140.709 154.969 C 141.234 154.412,141.810 153.548,142.161 152.788 C 142.482 152.096,142.860 151.304,143.003 151.027 C 143.145 150.751,143.399 149.845,143.568 149.015 C 143.736 148.184,143.953 147.203,144.050 146.834 C 144.275 145.979,144.279 142.849,144.057 141.971 C 143.963 141.602,143.746 140.583,143.574 139.706 C 142.766 135.584,140.981 132.768,136.061 127.860 C 133.923 125.726,132.866 124.836,131.180 123.749 C 130.658 123.412,129.873 122.817,129.435 122.426 C 128.998 122.035,128.243 121.466,127.758 121.160 C 126.387 120.297,125.823 119.892,124.858 119.078 C 124.366 118.662,123.109 117.733,122.066 117.011 C 121.022 116.290,119.790 115.402,119.329 115.038 C 118.868 114.674,118.047 114.094,117.504 113.750 C 116.961 113.405,115.980 112.624,115.324 112.014 C 114.667 111.404,113.812 110.624,113.424 110.282 C 110.428 107.639,109.940 100.532,112.565 97.767 C 116.185 93.954,124.709 93.989,128.515 97.831 C 130.179 99.512,131.501 102.708,131.821 105.828 C 132.090 108.439,132.494 108.698,134.957 107.846 C 135.495 107.660,136.501 107.436,137.192 107.348 C 137.883 107.260,138.714 107.077,139.039 106.941 C 139.363 106.806,140.185 106.640,140.866 106.573 C 142.554 106.406,142.805 106.151,142.648 104.765 C 142.407 102.630,141.216 98.590,140.489 97.442 C 140.285 97.119,139.897 96.403,139.627 95.849 C 137.936 92.378,132.950 88.651,129.190 88.045 C 128.643 87.957,127.824 87.770,127.369 87.628 C 125.748 87.125,120.744 86.940,116.508 87.227 M162.751 87.956 C 162.428 88.418,162.394 160.649,162.717 160.973 C 162.976 161.232,174.851 161.265,175.010 161.007 C 175.067 160.915,175.107 153.387,175.100 144.278 C 175.088 129.437,175.114 127.676,175.351 127.338 L 175.617 126.960 181.454 126.960 C 187.297 126.960,191.987 126.673,192.741 126.269 C 193.064 126.097,194.033 125.733,195.873 125.095 C 196.370 124.922,196.861 124.712,196.963 124.628 C 197.065 124.543,197.677 124.199,198.322 123.863 C 200.566 122.695,202.724 120.300,204.390 117.128 C 207.599 111.017,207.028 101.188,203.103 94.985 C 202.329 93.762,198.762 90.580,198.153 90.569 C 198.059 90.567,197.719 90.425,197.398 90.253 C 192.876 87.829,192.665 87.809,170.508 87.668 C 163.142 87.621,162.982 87.627,162.751 87.956 M233.788 87.911 C 233.409 88.141,233.306 88.353,233.215 89.085 C 233.057 90.339,232.420 92.643,231.715 94.507 C 231.575 94.876,231.458 95.421,231.454 95.718 C 231.450 96.015,231.258 96.836,231.027 97.542 C 230.797 98.249,230.608 99.043,230.608 99.308 C 230.608 99.573,230.460 100.223,230.278 100.754 C 230.097 101.285,229.868 102.239,229.768 102.875 C 229.669 103.511,229.515 104.167,229.427 104.332 C 229.339 104.497,229.150 105.182,229.009 105.855 C 228.867 106.528,228.643 107.244,228.511 107.445 C 228.379 107.647,228.190 108.319,228.091 108.938 C 227.992 109.557,227.808 110.310,227.682 110.613 C 227.556 110.915,227.368 111.704,227.265 112.367 C 227.163 113.029,226.967 113.839,226.831 114.165 C 226.694 114.491,226.505 115.245,226.410 115.840 C 226.243 116.884,225.982 117.811,225.136 120.364 C 224.917 121.025,224.738 121.800,224.738 122.087 C 224.738 122.373,224.585 123.040,224.399 123.568 C 224.212 124.096,223.978 125.057,223.877 125.702 C 223.777 126.348,223.598 127.065,223.480 127.296 C 223.362 127.526,223.181 128.262,223.078 128.931 C 222.974 129.601,222.781 130.431,222.648 130.776 C 222.515 131.122,222.330 131.837,222.237 132.365 C 222.143 132.893,221.949 133.507,221.803 133.729 C 221.658 133.950,221.464 134.612,221.373 135.200 C 221.281 135.788,221.097 136.548,220.964 136.890 C 220.831 137.231,220.641 138.017,220.542 138.637 C 220.443 139.256,220.214 140.201,220.034 140.736 C 219.854 141.271,219.706 141.888,219.706 142.108 C 219.706 142.528,218.843 145.579,218.440 146.583 C 218.310 146.906,218.118 147.698,218.013 148.344 C 217.907 148.990,217.717 149.772,217.590 150.084 C 217.462 150.395,217.280 151.149,217.184 151.761 C 217.089 152.372,216.899 153.174,216.763 153.543 C 216.627 153.912,216.407 154.780,216.274 155.472 C 215.932 157.248,215.304 159.490,214.980 160.089 C 214.390 161.178,214.371 161.174,220.633 161.174 L 226.240 161.174 226.487 160.796 C 226.623 160.589,226.930 159.400,227.169 158.155 C 227.408 156.910,227.676 155.718,227.764 155.507 C 227.852 155.295,228.008 154.578,228.111 153.913 C 228.214 153.248,228.430 152.365,228.591 151.950 C 228.753 151.535,228.980 150.667,229.098 150.021 C 229.215 149.375,229.375 148.722,229.454 148.569 C 229.532 148.417,229.706 147.586,229.839 146.724 C 229.973 145.862,230.257 144.632,230.471 143.991 L 230.860 142.825 239.494 142.817 C 247.900 142.809,248.139 142.818,248.497 143.145 C 248.877 143.490,249.731 146.616,249.986 148.592 C 250.052 149.097,250.213 149.814,250.344 150.185 C 250.476 150.556,250.657 151.440,250.746 152.150 C 250.836 152.859,251.017 153.745,251.149 154.118 C 251.280 154.491,251.471 155.402,251.572 156.143 C 251.674 156.883,251.857 157.773,251.979 158.120 C 252.101 158.466,252.256 159.216,252.322 159.787 C 252.490 161.240,252.160 161.164,258.349 161.179 C 265.119 161.195,264.853 161.360,263.711 157.856 C 263.492 157.185,263.312 156.447,263.312 156.217 C 263.312 155.987,263.157 155.367,262.967 154.839 C 262.440 153.374,261.859 151.334,261.570 149.937 C 261.314 148.701,261.000 147.401,260.517 145.577 C 260.383 145.069,260.157 144.088,260.015 143.396 C 259.874 142.704,259.681 142.045,259.588 141.931 C 259.415 141.720,258.770 139.366,258.427 137.694 C 258.322 137.187,258.102 136.319,257.937 135.765 C 257.772 135.212,257.550 134.280,257.445 133.694 C 257.340 133.109,257.177 132.430,257.082 132.185 C 256.988 131.940,256.770 131.061,256.599 130.231 C 256.428 129.400,256.089 128.155,255.848 127.463 C 255.606 126.771,255.219 125.413,254.987 124.444 C 254.577 122.723,254.092 120.684,253.453 117.987 C 253.279 117.249,252.973 116.155,252.774 115.556 C 252.195 113.812,251.756 112.176,251.649 111.363 C 251.594 110.948,251.442 110.306,251.312 109.937 C 251.182 109.568,250.926 108.587,250.744 107.757 C 249.838 103.626,249.586 102.685,248.633 99.874 C 248.508 99.505,248.324 98.701,248.225 98.086 C 248.127 97.472,247.943 96.717,247.817 96.409 C 247.691 96.101,247.537 95.472,247.475 95.010 C 247.413 94.549,247.220 93.719,247.047 93.166 C 246.873 92.612,246.682 91.820,246.621 91.405 C 246.386 89.792,245.708 87.907,245.318 87.779 C 244.461 87.496,234.277 87.614,233.788 87.911 M282.394 87.883 C 281.995 88.210,281.902 160.780,282.301 161.032 C 282.699 161.285,294.105 161.205,294.318 160.948 C 294.453 160.786,294.518 155.965,294.548 143.799 L 294.591 126.876 299.306 126.832 C 302.954 126.797,304.059 126.835,304.186 127.000 C 304.398 127.273,304.862 128.618,305.179 129.880 C 305.316 130.425,305.540 131.087,305.676 131.352 C 305.813 131.616,306.004 132.264,306.101 132.792 C 306.197 133.321,306.410 133.979,306.574 134.256 C 306.737 134.532,307.079 135.400,307.335 136.184 C 307.590 136.969,307.936 137.987,308.103 138.449 C 308.271 138.910,308.491 139.627,308.594 140.042 C 308.696 140.457,308.927 141.150,309.107 141.582 C 309.287 142.015,309.434 142.524,309.434 142.714 C 309.434 142.904,309.744 143.795,310.122 144.695 C 310.500 145.595,310.939 146.784,311.097 147.338 C 311.256 147.891,311.466 148.495,311.565 148.679 C 311.664 148.864,311.837 149.468,311.950 150.021 C 312.064 150.574,312.288 151.291,312.449 151.614 C 312.609 151.937,312.793 152.537,312.856 152.948 C 312.919 153.359,313.108 153.925,313.275 154.206 C 313.442 154.487,313.788 155.358,314.043 156.143 C 314.298 156.927,314.645 157.945,314.813 158.407 C 314.981 158.868,315.170 159.547,315.233 159.916 C 315.456 161.232,315.166 161.174,321.503 161.174 C 328.601 161.174,328.127 161.384,326.881 158.791 C 326.673 158.357,326.365 157.527,326.198 156.947 C 325.876 155.828,325.470 154.543,325.175 153.711 C 325.077 153.434,324.829 152.642,324.624 151.950 C 324.419 151.258,324.133 150.465,323.988 150.188 C 323.680 149.600,322.013 144.693,322.012 144.370 C 322.011 144.249,321.897 143.934,321.759 143.668 C 321.620 143.402,321.392 142.690,321.252 142.086 C 321.112 141.482,320.934 140.907,320.856 140.808 C 320.778 140.710,320.621 140.327,320.506 139.958 C 320.392 139.589,320.192 139.118,320.062 138.911 C 319.932 138.704,319.706 138.062,319.559 137.485 C 319.413 136.908,319.235 136.361,319.164 136.268 C 319.093 136.176,318.906 135.578,318.748 134.940 C 318.590 134.301,318.361 133.622,318.240 133.430 C 318.119 133.239,317.966 132.742,317.900 132.327 C 317.834 131.912,317.647 131.308,317.484 130.985 C 317.140 130.300,316.392 128.405,316.226 127.799 C 316.164 127.568,315.930 126.914,315.708 126.345 C 315.087 124.755,315.171 124.310,316.143 124.029 C 317.463 123.648,318.919 122.962,319.597 122.401 C 320.023 122.049,320.442 121.761,320.527 121.761 C 320.800 121.761,322.701 119.683,322.935 119.129 C 323.060 118.834,323.459 118.193,323.822 117.703 C 324.185 117.214,324.572 116.444,324.682 115.991 C 324.792 115.539,324.982 114.973,325.105 114.734 C 325.227 114.494,325.382 113.807,325.447 113.208 C 325.513 112.608,325.673 111.603,325.802 110.974 C 326.309 108.514,325.779 100.608,325.049 99.728 C 324.961 99.621,324.797 99.158,324.686 98.698 C 324.573 98.234,324.189 97.465,323.822 96.972 C 323.459 96.482,323.060 95.841,322.935 95.546 C 322.694 94.974,321.251 93.436,319.901 92.312 C 318.717 91.327,316.365 90.156,314.549 89.648 C 314.088 89.519,312.805 89.144,311.698 88.814 C 308.676 87.914,305.788 87.738,293.090 87.679 C 284.055 87.637,282.661 87.664,282.394 87.883 M348.080 87.896 C 347.763 88.247,347.711 160.564,348.027 160.945 C 348.275 161.244,359.659 161.287,359.842 160.991 C 359.904 160.890,359.942 155.091,359.927 148.105 C 359.901 136.798,359.927 135.378,360.159 135.186 C 360.302 135.067,360.419 134.879,360.419 134.768 C 360.419 134.657,360.604 134.392,360.831 134.179 C 361.057 133.967,361.717 133.004,362.298 132.041 C 362.879 131.077,363.594 129.898,363.888 129.421 C 365.010 127.595,365.962 126.895,366.280 127.662 C 367.166 129.805,367.545 130.617,367.790 130.901 C 367.949 131.086,368.247 131.652,368.454 132.159 C 369.092 133.730,370.751 137.164,371.654 138.784 C 372.014 139.430,372.313 140.080,372.318 140.229 C 372.323 140.378,372.467 140.680,372.638 140.900 C 372.809 141.120,373.036 141.564,373.143 141.887 C 373.249 142.210,373.633 143.040,373.995 143.732 C 374.628 144.943,375.661 147.024,377.032 149.853 C 377.389 150.591,377.834 151.459,378.020 151.782 C 378.646 152.869,379.843 155.453,379.954 155.956 C 380.014 156.230,380.168 156.542,380.296 156.648 C 380.423 156.754,380.617 157.117,380.726 157.456 C 380.835 157.794,381.009 158.175,381.112 158.303 C 381.215 158.430,381.602 159.109,381.971 159.812 L 382.642 161.090 388.260 161.174 C 395.427 161.281,394.974 161.564,393.213 158.073 C 392.795 157.243,392.453 156.486,392.453 156.390 C 392.453 156.295,392.114 155.690,391.699 155.047 C 391.285 154.404,390.945 153.814,390.945 153.736 C 390.944 153.658,390.535 152.738,390.035 151.690 C 389.535 150.643,389.074 149.613,389.009 149.401 C 388.944 149.188,388.602 148.579,388.250 148.046 C 387.897 147.513,387.557 146.910,387.494 146.704 C 387.382 146.344,386.263 143.941,385.187 141.752 C 384.901 141.171,384.570 140.614,384.451 140.516 C 384.332 140.417,384.235 140.265,384.235 140.177 C 384.235 140.089,383.829 139.174,383.334 138.143 C 382.838 137.112,382.376 136.080,382.307 135.849 C 382.239 135.618,381.899 135.011,381.554 134.500 C 381.208 133.988,380.870 133.385,380.802 133.158 C 380.540 132.278,378.151 127.445,377.666 126.812 C 377.497 126.592,377.357 126.328,377.356 126.225 C 377.355 126.122,376.977 125.286,376.517 124.366 C 376.058 123.447,375.681 122.614,375.681 122.514 C 375.681 122.414,375.419 121.921,375.099 121.418 C 374.287 120.143,374.231 120.364,376.308 116.646 C 376.412 116.461,376.658 115.954,376.856 115.518 C 377.054 115.083,377.413 114.441,377.654 114.093 C 377.895 113.744,378.763 112.138,379.583 110.524 C 380.403 108.910,381.176 107.476,381.300 107.338 C 381.425 107.199,381.958 106.256,382.485 105.241 C 383.011 104.226,383.583 103.133,383.755 102.812 C 383.927 102.490,384.067 102.157,384.067 102.070 C 384.067 101.984,384.183 101.785,384.325 101.629 C 384.757 101.151,385.692 99.517,385.816 99.024 C 385.880 98.768,386.079 98.373,386.258 98.146 C 386.437 97.918,386.583 97.644,386.583 97.536 C 386.583 97.428,386.768 97.089,386.993 96.783 C 387.219 96.477,387.455 95.991,387.518 95.703 C 387.581 95.414,387.841 94.939,388.096 94.647 C 388.351 94.356,388.954 93.337,389.436 92.383 C 389.918 91.430,390.571 90.164,390.887 89.571 C 391.221 88.946,391.442 88.310,391.413 88.061 L 391.363 87.631 386.331 87.620 C 380.087 87.605,380.262 87.572,379.623 88.917 C 379.351 89.491,378.958 90.210,378.750 90.516 C 378.414 91.012,377.115 93.136,376.309 94.507 C 376.146 94.784,375.861 95.341,375.676 95.746 C 375.490 96.150,375.101 96.781,374.811 97.147 C 374.521 97.513,373.988 98.390,373.628 99.095 C 373.268 99.800,372.880 100.491,372.767 100.629 C 372.653 100.767,372.312 101.371,372.007 101.971 C 371.703 102.570,371.332 103.198,371.184 103.366 C 370.834 103.760,370.228 104.747,369.879 105.493 C 369.456 106.396,368.167 108.633,367.317 109.937 C 366.897 110.583,366.280 111.639,365.947 112.285 C 365.614 112.931,365.121 113.789,364.851 114.193 C 364.317 114.991,363.847 115.837,362.365 118.658 C 361.457 120.387,360.380 121.691,360.035 121.479 C 359.962 121.434,359.912 113.937,359.923 104.818 C 359.937 94.075,359.885 88.133,359.777 87.939 C 359.535 87.508,348.469 87.467,348.080 87.896 M184.323 95.101 C 193.101 96.180,194.779 98.433,194.499 108.763 C 194.304 115.954,192.603 118.048,185.979 119.256 C 183.292 119.746,175.824 120.001,175.388 119.618 C 175.014 119.291,174.924 95.499,175.296 95.128 C 175.553 94.870,182.280 94.850,184.323 95.101 M305.493 95.508 C 309.648 96.516,311.333 97.491,312.307 99.454 C 314.056 102.975,314.533 106.268,313.880 110.296 C 312.804 116.930,309.350 119.035,299.031 119.345 C 295.425 119.454,295.060 119.439,294.796 119.175 C 294.489 118.868,294.330 95.335,294.633 95.019 C 294.975 94.661,303.603 95.050,305.493 95.508 M239.983 104.127 C 240.357 104.653,240.554 105.357,240.926 107.505 C 241.549 111.103,241.843 112.665,242.001 113.208 C 242.642 115.416,243.176 117.633,243.273 118.491 C 243.336 119.044,243.489 119.742,243.613 120.041 C 243.737 120.340,243.920 121.164,244.018 121.873 C 244.117 122.582,244.348 123.647,244.531 124.240 C 244.714 124.833,244.864 125.571,244.864 125.879 C 244.864 126.187,245.041 127.029,245.258 127.748 C 245.987 130.164,246.541 132.258,246.541 132.593 C 246.541 132.775,246.643 133.317,246.767 133.797 C 247.143 135.246,247.490 135.178,239.705 135.178 C 232.534 135.178,232.237 135.144,232.538 134.360 C 232.792 133.699,233.442 130.800,233.952 128.050 C 234.123 127.128,234.378 125.958,234.519 125.451 C 234.660 124.943,234.823 124.151,234.882 123.690 C 234.983 122.901,235.757 119.802,236.146 118.628 C 236.244 118.335,236.432 117.371,236.565 116.485 C 236.698 115.600,236.878 114.742,236.965 114.579 C 237.052 114.417,237.208 113.645,237.311 112.865 C 237.414 112.085,237.606 111.107,237.738 110.692 C 237.869 110.277,238.052 109.310,238.146 108.544 C 238.239 107.778,238.430 106.797,238.571 106.364 C 238.711 105.931,238.941 105.143,239.082 104.612 C 239.373 103.519,239.501 103.450,239.983 104.127 " stroke="none" fill="#ecb00f" fill-rule="evenodd"></path></g></svg>