<svg id="svg" version="1.1" xmlns="http://www.w3.org/2000/svg" xmlns:xlink="http://www.w3.org/1999/xlink" width="400" height="121.61073825503355" viewBox="0, 0, 400,121.61073825503355"><g id="svgg"><path id="path0" d="M227.500 41.042 C 227.454 41.088,226.779 41.168,226.000 41.219 C 225.221 41.271,224.208 41.429,223.750 41.571 C 223.292 41.713,222.778 41.831,222.608 41.832 C 222.438 41.833,221.931 42.018,221.483 42.243 C 221.034 42.469,220.667 42.623,220.667 42.585 C 220.667 42.548,220.273 42.725,219.792 42.979 C 216.870 44.520,215.197 46.223,214.260 48.611 C 213.694 50.054,213.666 53.415,214.211 54.484 C 214.370 54.796,214.500 55.112,214.500 55.186 C 214.500 57.029,219.894 60.630,224.917 62.141 C 225.558 62.334,226.567 62.644,227.157 62.829 C 227.748 63.015,228.373 63.167,228.547 63.167 C 229.208 63.167,233.468 64.464,234.411 64.952 C 234.689 65.096,235.067 65.292,235.250 65.387 C 235.433 65.482,235.759 65.651,235.973 65.763 C 238.394 67.031,238.886 70.880,236.867 72.752 C 235.057 74.430,230.547 75.282,227.250 74.569 C 226.608 74.430,225.860 74.272,225.586 74.217 C 225.313 74.162,224.842 73.979,224.540 73.809 C 224.237 73.639,223.921 73.500,223.837 73.500 C 223.645 73.500,222.194 72.527,221.803 72.136 C 221.017 71.350,220.683 70.549,220.237 68.375 L 220.160 68.000 216.314 68.000 L 212.467 68.000 212.582 69.042 C 212.745 70.518,213.230 72.303,213.680 73.083 C 214.151 73.899,215.371 75.500,215.522 75.500 C 215.582 75.500,215.853 75.706,216.123 75.958 C 216.967 76.744,221.370 79.000,222.061 79.000 C 222.188 79.000,222.597 79.108,222.970 79.239 C 225.874 80.264,234.100 80.273,236.986 79.255 C 237.387 79.114,237.885 78.967,238.093 78.929 C 238.568 78.843,241.479 77.404,241.841 77.077 C 241.989 76.943,242.190 76.833,242.288 76.833 C 242.539 76.833,244.833 74.510,244.833 74.255 C 244.833 74.140,244.972 73.866,245.141 73.647 C 245.310 73.429,245.619 72.575,245.828 71.750 C 246.733 68.173,245.347 64.440,242.290 62.227 C 241.809 61.879,241.379 61.554,241.333 61.505 C 241.083 61.239,238.689 60.034,237.083 59.366 C 235.892 58.872,231.816 57.665,231.338 57.666 C 230.891 57.667,226.302 56.251,225.667 55.916 C 225.438 55.795,225.006 55.606,224.708 55.495 C 224.410 55.384,224.167 55.227,224.167 55.146 C 224.167 55.066,224.066 55.000,223.942 55.000 C 223.819 55.000,223.583 54.850,223.417 54.667 C 223.251 54.483,223.014 54.333,222.891 54.333 C 222.768 54.333,222.667 54.272,222.667 54.198 C 222.667 54.124,222.523 53.909,222.347 53.720 C 220.618 51.864,221.813 48.539,224.689 47.202 C 227.064 46.098,231.928 46.033,233.934 47.079 C 234.199 47.218,234.469 47.332,234.533 47.332 C 235.729 47.343,237.989 50.416,237.996 52.042 L 238.000 52.833 241.858 52.833 L 245.716 52.833 245.603 51.235 C 245.528 50.155,245.384 49.427,245.162 48.991 C 244.981 48.637,244.833 48.250,244.832 48.132 C 244.829 47.786,243.254 45.786,242.491 45.159 C 242.106 44.842,241.662 44.471,241.506 44.333 C 240.716 43.641,236.667 41.620,236.667 41.918 C 236.667 41.946,236.010 41.788,235.208 41.567 C 233.824 41.186,227.766 40.773,227.500 41.042 M22.167 41.496 C 19.646 41.817,18.708 41.987,18.000 42.248 C 17.587 42.401,17.137 42.550,17.000 42.581 C 16.862 42.612,16.262 42.868,15.667 43.151 C 11.409 45.174,8.827 48.060,7.229 52.583 L 6.758 53.917 6.754 60.333 C 6.749 68.848,6.912 69.816,8.876 72.909 C 9.903 74.526,12.842 77.481,13.438 77.495 C 13.541 77.498,13.710 77.601,13.812 77.725 C 14.259 78.263,16.806 79.326,19.167 79.961 C 21.431 80.569,27.722 80.605,30.083 80.023 C 30.908 79.819,31.771 79.613,32.000 79.564 C 32.229 79.515,32.642 79.374,32.917 79.251 C 33.192 79.128,33.785 78.870,34.235 78.678 C 36.822 77.573,40.667 73.933,40.667 72.588 C 40.667 72.476,40.785 72.147,40.930 71.858 C 41.238 71.239,41.492 69.644,41.497 68.292 L 41.500 67.333 37.688 67.333 L 33.876 67.333 33.799 68.625 C 33.663 70.910,31.421 74.167,29.983 74.167 C 29.892 74.167,29.597 74.281,29.327 74.420 C 25.510 76.394,18.993 74.828,16.483 71.333 C 14.739 68.907,14.598 68.175,14.537 61.237 L 14.485 55.224 14.913 53.904 C 15.365 52.512,16.164 50.834,16.375 50.834 C 16.444 50.834,16.500 50.721,16.500 50.585 C 16.500 50.448,16.650 50.242,16.833 50.128 C 17.017 50.013,17.170 49.844,17.175 49.752 C 17.179 49.659,17.573 49.276,18.050 48.900 C 23.834 44.343,33.833 47.260,33.833 53.503 L 33.833 54.500 37.667 54.500 L 41.500 54.500 41.499 53.458 C 41.496 50.339,40.251 47.496,38.088 45.669 C 37.815 45.438,37.471 45.137,37.323 45.000 C 36.610 44.338,32.667 42.290,32.667 42.582 C 32.667 42.619,32.235 42.499,31.708 42.317 C 29.839 41.669,24.447 41.206,22.167 41.496 M58.333 41.424 C 58.104 41.462,57.204 41.578,56.333 41.681 C 52.921 42.086,49.978 43.280,47.542 45.249 C 46.909 45.760,46.333 46.357,46.333 46.501 C 46.333 46.592,46.265 46.667,46.181 46.667 C 45.921 46.667,45.072 48.196,44.701 49.333 C 43.443 53.184,44.894 57.095,48.417 59.348 C 48.967 59.700,49.507 60.066,49.618 60.161 C 49.729 60.256,49.916 60.335,50.035 60.337 C 50.153 60.339,50.438 60.487,50.667 60.667 C 50.896 60.846,51.137 60.994,51.203 60.996 C 51.269 60.998,51.733 61.188,52.234 61.417 C 52.735 61.646,53.228 61.833,53.329 61.833 C 53.430 61.833,53.810 61.985,54.173 62.170 C 54.536 62.355,54.833 62.475,54.833 62.437 C 54.833 62.398,55.366 62.546,56.016 62.767 C 56.666 62.987,57.330 63.167,57.490 63.167 C 57.650 63.167,58.217 63.317,58.750 63.500 C 59.283 63.683,59.876 63.833,60.067 63.833 C 60.601 63.833,64.692 65.188,65.192 65.531 C 65.436 65.697,65.720 65.833,65.824 65.833 C 66.080 65.833,66.405 66.093,67.405 67.098 C 69.215 68.914,69.158 71.631,67.276 73.253 C 66.288 74.105,66.201 74.167,66.000 74.167 C 65.901 74.167,65.542 74.306,65.202 74.477 C 64.652 74.753,63.711 74.933,61.165 75.249 C 59.540 75.450,55.852 74.743,54.417 73.955 C 54.233 73.854,53.881 73.670,53.634 73.545 C 52.309 72.875,51.087 71.046,50.905 69.458 L 50.795 68.500 46.981 68.500 L 43.167 68.500 43.167 69.325 C 43.167 71.707,44.252 74.181,46.021 75.833 C 46.752 76.517,47.162 76.833,47.315 76.833 C 47.394 76.833,47.548 76.941,47.658 77.072 C 47.831 77.281,48.313 77.567,49.446 78.134 C 49.613 78.217,49.975 78.401,50.250 78.542 C 54.542 80.744,64.000 81.130,68.785 79.299 C 69.262 79.116,69.675 78.983,69.702 79.004 C 69.836 79.107,73.046 77.212,73.139 76.975 C 73.169 76.897,73.260 76.833,73.341 76.833 C 73.700 76.833,75.221 74.971,75.790 73.834 L 76.417 72.583 76.417 70.083 C 76.417 68.030,76.365 67.482,76.125 67.016 C 75.965 66.704,75.833 66.360,75.833 66.252 C 75.833 65.915,74.495 64.118,73.687 63.370 C 72.967 62.703,72.485 62.348,71.250 61.573 C 70.792 61.286,69.197 60.471,69.000 60.424 C 68.954 60.413,68.654 60.279,68.333 60.126 C 67.184 59.578,64.989 58.863,62.833 58.335 C 59.782 57.586,58.345 57.167,56.687 56.540 C 49.092 53.672,51.379 46.741,59.917 46.753 C 64.748 46.760,67.884 48.694,68.424 52.000 L 68.602 53.083 72.331 53.128 C 75.118 53.162,76.091 53.122,76.185 52.971 C 76.493 52.473,75.881 49.534,75.220 48.342 C 74.503 47.046,73.065 45.333,72.695 45.333 C 72.594 45.333,72.431 45.183,72.333 45.000 C 72.235 44.817,72.086 44.667,72.002 44.667 C 71.851 44.667,70.897 44.074,70.258 43.583 C 70.079 43.446,69.837 43.333,69.721 43.333 C 69.605 43.333,69.210 43.177,68.844 42.986 C 68.478 42.795,68.082 42.620,67.964 42.598 C 67.846 42.576,67.337 42.428,66.833 42.270 C 65.028 41.703,59.797 41.182,58.333 41.424 M95.333 41.432 C 93.273 41.674,91.001 42.068,90.521 42.267 C 90.212 42.395,89.856 42.500,89.729 42.500 C 89.431 42.500,86.116 44.078,85.813 44.364 C 85.685 44.485,85.301 44.776,84.960 45.012 C 84.168 45.557,82.167 47.456,82.167 47.661 C 82.167 47.747,82.069 47.877,81.949 47.950 C 81.495 48.228,80.429 50.078,79.760 51.750 C 79.008 53.625,78.651 64.407,79.224 67.917 C 79.836 71.663,82.614 75.557,86.174 77.658 C 87.039 78.169,88.719 79.000,88.897 79.006 C 88.999 79.009,89.383 79.156,89.750 79.333 C 90.117 79.510,90.549 79.658,90.710 79.661 C 90.872 79.664,91.524 79.811,92.159 79.987 C 95.398 80.884,103.341 80.493,107.083 79.251 C 108.187 78.885,111.667 77.158,111.667 76.976 C 111.667 76.898,111.750 76.833,111.852 76.833 C 111.954 76.833,112.422 76.515,112.893 76.125 C 114.462 74.828,114.322 75.667,114.328 67.540 L 114.333 60.330 105.625 60.374 L 96.917 60.417 96.917 62.833 L 96.917 65.250 101.625 65.294 L 106.333 65.339 106.333 69.157 C 106.333 73.490,106.415 73.236,104.814 73.898 C 104.412 74.064,103.821 74.314,103.500 74.453 C 102.017 75.097,97.378 75.361,95.000 74.937 C 91.934 74.391,89.208 72.316,87.880 69.518 C 86.861 67.370,86.837 67.168,86.842 60.833 L 86.847 55.083 87.306 53.750 C 88.024 51.664,88.358 51.108,89.798 49.604 C 94.782 44.401,106.116 46.673,106.190 52.890 L 106.201 53.833 110.037 53.833 L 113.872 53.833 113.793 52.208 C 113.668 49.634,112.157 46.740,110.159 45.250 C 109.791 44.975,109.282 44.588,109.029 44.389 C 106.583 42.471,99.501 40.942,95.333 41.432 M134.667 41.438 C 132.252 41.748,130.602 42.038,129.980 42.262 C 129.578 42.407,129.100 42.556,128.917 42.593 C 128.424 42.692,126.259 43.702,126.194 43.862 C 126.164 43.938,126.036 44.000,125.910 44.000 C 125.454 44.000,123.686 45.363,122.368 46.732 C 121.937 47.180,121.430 47.705,121.243 47.898 C 120.460 48.708,118.878 51.618,118.651 52.667 C 118.582 52.987,118.410 53.700,118.268 54.250 C 117.782 56.145,117.890 66.206,118.418 68.240 C 119.329 71.746,121.269 74.660,124.083 76.753 C 124.450 77.025,124.787 77.288,124.833 77.336 C 124.879 77.384,125.104 77.519,125.333 77.636 C 125.563 77.753,126.087 78.043,126.500 78.281 C 129.926 80.255,137.607 81.133,141.778 80.028 C 142.526 79.829,143.258 79.667,143.405 79.667 C 143.551 79.667,143.988 79.523,144.377 79.347 C 144.765 79.171,145.264 78.974,145.485 78.910 C 148.096 78.153,151.928 74.816,153.651 71.797 C 154.118 70.980,154.500 70.201,154.500 70.067 C 154.500 69.932,154.619 69.544,154.764 69.203 C 155.497 67.482,155.801 58.571,155.252 54.899 C 154.636 50.778,152.034 46.910,148.250 44.490 C 147.386 43.938,144.675 42.624,144.341 42.596 C 144.199 42.585,143.708 42.448,143.250 42.293 C 141.502 41.703,136.491 41.204,134.667 41.438 M249.708 60.542 L 249.750 79.583 253.708 79.628 L 257.667 79.673 257.667 72.420 L 257.667 65.167 264.086 65.167 C 272.419 65.167,274.926 64.721,278.417 62.618 C 279.579 61.917,282.000 59.526,282.000 59.079 C 282.000 59.018,282.139 58.769,282.310 58.526 C 283.868 56.301,283.837 49.921,282.261 48.179 C 282.117 48.020,282.000 47.829,282.000 47.754 C 282.000 47.392,279.486 44.685,279.137 44.671 C 279.075 44.669,278.920 44.563,278.794 44.437 C 278.668 44.311,278.119 43.979,277.574 43.700 C 273.652 41.689,272.137 41.508,259.208 41.503 L 249.665 41.500 249.708 60.542 M298.667 41.796 C 298.667 41.959,298.564 42.240,298.439 42.421 C 298.314 42.602,298.156 42.938,298.089 43.167 C 298.022 43.396,297.798 43.958,297.591 44.417 C 297.385 44.875,297.045 45.663,296.835 46.167 C 296.626 46.671,296.354 47.308,296.232 47.583 C 296.110 47.858,295.779 48.646,295.495 49.333 C 295.212 50.021,294.912 50.733,294.829 50.917 C 294.746 51.100,294.406 51.925,294.073 52.750 C 293.740 53.575,293.400 54.321,293.317 54.408 C 293.234 54.495,293.167 54.668,293.167 54.792 C 293.167 54.917,293.024 55.333,292.849 55.717 C 291.990 57.607,291.693 58.333,291.780 58.333 C 291.832 58.333,291.800 58.427,291.709 58.542 C 291.568 58.720,291.209 59.532,289.926 62.583 C 289.810 62.858,289.545 63.496,289.336 64.000 C 289.127 64.504,288.826 65.217,288.667 65.583 C 288.508 65.950,288.224 66.625,288.036 67.083 C 287.848 67.542,287.345 68.742,286.919 69.750 C 286.234 71.367,285.777 72.464,285.320 73.583 C 285.246 73.767,284.955 74.420,284.675 75.035 C 284.396 75.650,284.167 76.256,284.167 76.382 C 284.167 76.508,284.121 76.657,284.065 76.713 C 283.840 76.937,282.851 79.394,282.933 79.526 C 282.981 79.603,284.776 79.667,286.923 79.667 L 290.827 79.667 291.159 79.015 C 291.341 78.657,291.598 78.076,291.728 77.724 C 292.022 76.929,292.556 75.580,292.838 74.917 C 292.955 74.642,293.071 74.342,293.096 74.250 C 293.155 74.031,293.787 72.457,294.217 71.458 L 294.557 70.667 302.422 70.667 L 310.288 70.667 310.734 71.661 C 310.980 72.208,311.358 73.127,311.575 73.703 C 312.211 75.390,312.667 76.548,312.906 77.083 C 313.029 77.358,313.185 77.771,313.253 78.000 C 313.321 78.229,313.518 78.698,313.691 79.042 L 314.007 79.667 318.003 79.667 C 322.194 79.667,322.532 79.599,321.830 78.897 C 321.736 78.803,321.520 78.357,321.349 77.905 C 320.695 76.176,319.969 74.400,319.750 73.993 C 319.625 73.760,319.414 73.273,319.283 72.910 C 318.860 71.747,317.825 69.270,317.491 68.620 C 317.313 68.273,317.167 67.846,317.167 67.671 C 317.167 67.496,317.102 67.313,317.023 67.264 C 316.944 67.215,316.634 66.555,316.335 65.796 C 316.036 65.037,315.650 64.102,315.479 63.717 C 315.307 63.333,315.167 62.976,315.167 62.924 C 315.167 62.872,315.020 62.512,314.842 62.123 C 314.663 61.735,314.170 60.554,313.746 59.500 C 312.977 57.587,312.584 56.676,311.984 55.417 C 311.809 55.050,311.666 54.659,311.666 54.547 C 311.666 54.435,311.517 54.076,311.333 53.750 C 311.150 53.424,311.000 53.080,311.000 52.986 C 311.000 52.892,310.861 52.500,310.691 52.116 C 310.441 51.552,309.393 49.039,308.660 47.250 C 308.585 47.067,308.175 46.129,307.748 45.167 C 307.321 44.204,306.857 43.079,306.717 42.667 C 306.303 41.442,306.518 41.500,302.396 41.500 C 298.933 41.500,298.667 41.521,298.667 41.796 M323.541 60.542 L 323.583 79.583 327.417 79.583 L 331.250 79.583 331.293 71.708 L 331.337 63.833 336.357 63.833 C 341.984 63.833,343.282 64.022,344.833 65.065 C 347.178 66.642,347.519 67.577,347.666 72.833 C 347.787 77.194,347.965 78.003,349.047 79.128 L 349.571 79.673 353.494 79.628 L 357.417 79.583 357.472 79.190 C 357.507 78.948,357.373 78.628,357.125 78.357 C 355.843 76.956,355.511 75.559,355.338 70.833 C 355.265 68.862,355.123 67.042,355.022 66.787 C 354.187 64.684,353.203 63.417,351.583 62.361 C 350.935 61.938,350.622 61.792,349.266 61.285 L 348.615 61.042 349.766 60.496 C 350.399 60.195,350.942 59.886,350.972 59.808 C 351.003 59.730,351.101 59.667,351.190 59.667 C 351.482 59.667,353.091 58.269,353.731 57.460 C 355.889 54.730,355.780 49.619,353.500 46.604 C 352.889 45.796,350.875 44.000,350.581 44.000 C 350.519 44.000,350.269 43.866,350.026 43.702 C 347.424 41.947,343.851 41.508,332.124 41.503 L 323.499 41.500 323.541 60.542 M360.333 60.583 L 360.333 79.667 364.070 79.667 C 366.125 79.667,367.925 79.621,368.070 79.566 C 368.305 79.475,368.333 78.592,368.333 71.316 L 368.333 63.167 369.973 63.167 L 371.613 63.167 372.291 63.875 C 373.070 64.688,373.440 65.092,375.167 67.012 C 375.854 67.776,376.979 69.006,377.667 69.745 C 378.354 70.485,379.029 71.221,379.167 71.381 C 379.304 71.542,379.717 72.003,380.083 72.406 C 382.725 75.309,383.455 76.118,384.846 77.689 C 386.750 79.839,386.145 79.662,391.592 79.664 C 396.779 79.667,396.844 79.650,395.782 78.582 C 395.398 78.195,394.708 77.470,394.250 76.972 C 393.792 76.473,392.892 75.506,392.250 74.822 C 391.608 74.139,390.408 72.840,389.583 71.936 C 388.758 71.033,387.633 69.827,387.083 69.256 C 386.227 68.368,384.204 66.198,382.417 64.249 C 380.548 62.213,379.165 60.713,378.644 60.158 L 378.038 59.512 379.977 57.475 C 381.044 56.355,382.742 54.597,383.750 53.570 C 384.758 52.542,386.933 50.290,388.583 48.565 C 390.233 46.840,392.333 44.653,393.250 43.704 C 395.577 41.297,395.842 41.500,390.372 41.500 L 385.720 41.500 385.152 42.126 C 383.141 44.339,380.854 46.827,380.423 47.270 C 379.311 48.414,378.000 49.830,378.000 49.888 C 378.000 49.922,377.605 50.354,377.122 50.850 C 376.639 51.345,375.570 52.496,374.747 53.408 C 373.924 54.319,372.728 55.613,372.089 56.283 L 370.928 57.500 369.631 57.500 L 368.333 57.500 368.333 49.500 L 368.333 41.500 364.333 41.500 L 360.333 41.500 360.333 60.583 M138.750 47.080 C 139.300 47.213,139.908 47.324,140.102 47.327 C 140.421 47.333,142.078 48.053,142.919 48.551 C 144.721 49.619,146.230 51.596,147.141 54.083 C 147.762 55.781,147.903 64.825,147.342 67.046 C 146.745 69.413,144.577 72.833,143.675 72.833 C 143.579 72.833,143.500 72.896,143.500 72.974 C 143.500 73.172,141.948 73.995,140.667 74.477 C 138.958 75.120,134.103 75.104,132.440 74.450 C 128.975 73.089,126.716 70.355,126.076 66.750 C 125.483 63.409,125.826 55.111,126.642 53.063 C 128.415 48.615,133.893 45.907,138.750 47.080 M270.083 47.145 C 276.909 48.698,277.720 56.882,271.291 59.331 C 270.275 59.717,270.098 59.729,263.958 59.795 L 257.667 59.864 257.667 53.349 L 257.667 46.833 263.208 46.838 C 267.957 46.841,268.941 46.885,270.083 47.145 M342.909 47.240 C 344.520 47.708,347.332 49.723,346.933 50.122 C 346.899 50.156,347.013 50.556,347.186 51.010 C 348.008 53.175,347.250 55.743,345.405 57.044 C 343.677 58.262,343.026 58.370,336.875 58.459 L 331.333 58.539 331.333 52.672 L 331.333 46.805 336.625 46.878 C 340.998 46.938,342.089 47.001,342.909 47.240 M302.878 51.542 C 303.016 51.931,303.280 52.625,303.465 53.083 C 303.651 53.542,304.190 54.929,304.665 56.167 C 305.140 57.404,305.672 58.735,305.848 59.123 C 306.023 59.512,306.167 59.908,306.167 60.004 C 306.167 60.099,306.355 60.550,306.586 61.006 C 306.817 61.461,306.965 61.833,306.916 61.833 C 306.867 61.833,306.985 62.143,307.178 62.522 C 307.371 62.901,307.626 63.519,307.745 63.897 C 307.863 64.274,308.014 64.715,308.081 64.875 C 308.195 65.149,307.863 65.167,302.437 65.167 L 296.672 65.167 296.939 64.542 C 297.265 63.779,297.836 62.396,298.332 61.167 C 298.536 60.663,298.844 59.929,299.018 59.537 C 299.191 59.145,299.333 58.748,299.333 58.654 C 299.333 58.561,299.483 58.173,299.667 57.794 C 299.850 57.415,300.000 57.022,300.000 56.921 C 300.000 56.820,300.150 56.443,300.333 56.083 C 300.517 55.724,300.667 55.335,300.667 55.220 C 300.667 55.104,300.817 54.743,301.000 54.417 C 301.183 54.090,301.336 53.732,301.339 53.620 C 301.342 53.508,301.490 53.117,301.667 52.750 C 301.844 52.383,301.991 52.005,301.994 51.908 C 302.003 51.646,302.401 50.836,302.522 50.835 C 302.580 50.834,302.740 51.152,302.878 51.542 " stroke="none" fill="#f4f4f4" fill-rule="evenodd"></path><path id="path1" d="M202.030 15.708 C 201.926 15.915,201.655 16.383,201.428 16.750 C 201.201 17.117,200.506 18.314,199.883 19.411 C 199.260 20.508,198.675 21.534,198.583 21.691 C 198.492 21.847,198.125 22.487,197.768 23.113 C 197.412 23.738,197.027 24.363,196.913 24.500 C 196.799 24.637,196.467 25.200,196.174 25.750 C 195.881 26.300,195.424 27.087,195.157 27.500 C 194.890 27.912,194.619 28.363,194.554 28.500 C 194.490 28.637,194.216 29.125,193.945 29.583 C 193.675 30.042,193.303 30.679,193.120 31.000 C 192.936 31.321,192.665 31.782,192.518 32.025 C 191.691 33.388,191.000 34.660,191.000 34.819 C 191.000 34.918,190.940 35.000,190.867 35.000 C 190.793 35.000,190.568 35.319,190.365 35.708 C 190.163 36.098,189.809 36.717,189.579 37.083 C 189.349 37.450,189.088 37.900,189.000 38.083 C 188.912 38.267,188.655 38.717,188.429 39.083 C 188.203 39.450,187.715 40.275,187.344 40.917 C 186.972 41.558,186.499 42.358,186.293 42.693 C 184.673 45.318,184.559 45.694,185.292 45.979 C 185.708 46.140,186.356 46.502,187.750 47.352 C 189.284 48.288,189.299 48.289,189.728 47.525 C 189.832 47.340,190.460 46.238,191.125 45.076 C 191.790 43.914,192.333 42.931,192.333 42.892 C 192.333 42.852,192.414 42.729,192.513 42.618 C 192.611 42.507,192.855 42.138,193.054 41.797 C 194.251 39.753,196.298 36.227,196.570 35.741 C 196.747 35.426,196.917 35.195,196.949 35.227 C 196.981 35.259,197.000 41.389,196.992 48.851 C 196.984 56.312,196.981 64.423,196.985 66.875 C 196.989 69.327,196.949 71.333,196.897 71.333 C 196.844 71.333,196.602 71.202,196.358 71.042 C 195.615 70.553,195.284 70.355,194.417 69.883 C 193.958 69.633,193.459 69.351,193.306 69.256 C 193.154 69.161,192.462 68.760,191.769 68.366 C 191.075 67.971,190.464 67.577,190.411 67.491 C 190.357 67.404,190.202 67.333,190.066 67.333 C 189.931 67.333,189.729 67.253,189.618 67.154 C 189.035 66.635,185.131 64.482,184.865 64.534 C 184.598 64.585,182.187 68.552,182.173 68.962 C 182.170 69.079,182.335 69.252,182.542 69.346 C 182.748 69.440,183.217 69.698,183.583 69.919 C 183.950 70.140,184.541 70.492,184.898 70.702 C 185.254 70.912,185.666 71.161,185.814 71.256 C 185.962 71.351,186.458 71.637,186.917 71.892 C 187.375 72.147,188.025 72.519,188.361 72.719 C 188.698 72.919,190.073 73.721,191.417 74.500 C 192.761 75.279,194.061 76.037,194.306 76.185 C 194.727 76.439,195.687 76.995,196.417 77.407 C 196.778 77.612,198.426 78.586,199.140 79.018 C 199.607 79.300,200.444 79.781,201.625 80.446 C 202.015 80.665,202.338 80.785,202.343 80.714 C 202.622 76.991,202.739 15.333,202.468 15.333 C 202.332 15.333,202.135 15.502,202.030 15.708 M166.421 41.042 C 166.273 41.495,166.114 81.216,166.165 105.375 C 166.167 106.513,166.438 106.640,166.875 105.707 C 167.036 105.364,167.841 103.958,168.664 102.583 C 169.488 101.208,170.236 99.933,170.328 99.750 C 170.419 99.567,170.664 99.143,170.872 98.808 C 171.080 98.473,171.737 97.355,172.333 96.324 C 172.929 95.293,173.581 94.180,173.781 93.850 C 173.981 93.520,174.296 92.974,174.480 92.637 C 175.087 91.527,175.249 91.251,175.342 91.167 C 175.393 91.121,175.568 90.821,175.731 90.500 C 175.894 90.179,176.206 89.617,176.424 89.250 C 176.642 88.883,176.981 88.292,177.176 87.935 C 177.371 87.578,177.606 87.203,177.697 87.102 C 177.789 87.000,178.101 86.493,178.390 85.975 C 179.023 84.842,180.194 82.835,180.758 81.917 C 180.983 81.550,181.278 81.025,181.413 80.750 C 181.549 80.475,181.755 80.104,181.872 79.926 C 182.429 79.074,183.133 77.856,183.390 77.299 C 183.547 76.959,183.749 76.636,183.838 76.581 C 184.174 76.373,183.982 75.886,183.458 75.618 C 183.160 75.466,182.542 75.113,182.083 74.833 C 181.625 74.554,181.137 74.278,181.000 74.219 C 180.862 74.160,180.551 73.975,180.308 73.806 C 179.556 73.286,179.500 73.323,178.578 74.917 C 178.472 75.100,178.231 75.512,178.043 75.833 C 177.855 76.154,177.366 76.996,176.957 77.704 C 176.549 78.413,176.140 79.088,176.049 79.204 C 175.958 79.321,175.706 79.754,175.489 80.167 C 175.272 80.579,175.009 81.029,174.904 81.167 C 174.800 81.304,174.453 81.904,174.133 82.500 C 173.813 83.096,173.315 83.980,173.026 84.466 C 172.737 84.951,172.500 85.379,172.500 85.417 C 172.500 85.454,172.312 85.763,172.081 86.102 L 171.663 86.719 171.669 68.443 L 171.675 50.168 172.508 50.626 C 172.966 50.877,173.621 51.249,173.962 51.452 C 174.304 51.655,174.875 51.992,175.231 52.202 C 175.587 52.412,176.000 52.658,176.148 52.750 C 176.296 52.842,177.054 53.276,177.833 53.715 C 178.612 54.153,179.521 54.678,179.852 54.881 C 183.140 56.895,184.167 57.342,184.167 56.761 C 184.167 56.640,184.266 56.458,184.387 56.358 C 184.509 56.257,184.824 55.741,185.089 55.212 C 185.353 54.683,185.618 54.212,185.679 54.167 C 186.225 53.752,186.604 52.360,186.208 52.219 C 186.048 52.163,185.804 52.024,185.667 51.911 C 185.529 51.798,184.967 51.466,184.417 51.173 C 183.867 50.879,182.817 50.273,182.083 49.826 C 181.350 49.379,180.375 48.807,179.917 48.555 C 179.458 48.302,178.959 48.018,178.806 47.923 C 178.654 47.828,177.962 47.427,177.269 47.032 C 176.575 46.637,175.964 46.244,175.911 46.157 C 175.857 46.071,175.668 46.000,175.490 46.000 C 175.312 46.000,175.167 45.940,175.167 45.867 C 175.167 45.793,174.848 45.567,174.458 45.365 C 174.069 45.162,173.525 44.858,173.250 44.689 C 172.592 44.284,171.722 43.784,171.000 43.396 C 170.679 43.224,170.379 43.037,170.333 42.981 C 170.288 42.924,169.950 42.716,169.583 42.518 C 169.217 42.320,168.692 42.021,168.417 41.853 C 166.723 40.818,166.521 40.736,166.421 41.042 " stroke="none" fill="#d4a424" fill-rule="evenodd"></path><path id="path2" d="" stroke="none" fill="#e4ccf8" fill-rule="evenodd"></path><path id="path3" d="" stroke="none" fill="#e4ccf8" fill-rule="evenodd"></path><path id="path4" d="" stroke="none" fill="#e4ccf8" fill-rule="evenodd"></path></g></svg>