<svg version="1.1" xmlns="http://www.w3.org/2000/svg" xmlns:xlink="http://www.w3.org/1999/xlink" width="400" height="98.41269841269842" viewBox="0, 0, 400,98.41269841269842"><g id="svgg"><path id="path0" d="M47.708 0.249 C 47.594 0.379,47.500 0.677,47.500 0.910 C 47.500 1.143,47.425 1.333,47.333 1.333 C 47.242 1.333,47.167 1.549,47.167 1.813 C 47.167 2.077,47.054 2.386,46.917 2.500 C 46.779 2.614,46.667 2.923,46.667 3.187 C 46.667 3.451,46.592 3.667,46.500 3.667 C 46.408 3.667,46.333 3.929,46.333 4.250 C 46.333 4.571,46.258 4.833,46.167 4.833 C 46.075 4.833,46.000 5.058,46.000 5.333 C 46.000 5.608,45.925 5.833,45.833 5.833 C 45.742 5.833,45.667 6.058,45.667 6.333 C 45.667 6.608,45.592 6.833,45.500 6.833 C 45.408 6.833,45.333 7.096,45.333 7.417 C 45.333 7.737,45.258 8.000,45.167 8.000 C 45.075 8.000,45.000 8.225,45.000 8.500 C 45.000 8.775,44.925 9.000,44.833 9.000 C 44.742 9.000,44.667 9.221,44.667 9.490 C 44.667 9.760,44.592 10.027,44.500 10.083 C 44.408 10.140,44.333 10.407,44.333 10.677 C 44.333 10.946,44.258 11.167,44.167 11.167 C 44.075 11.167,44.000 11.384,44.000 11.649 C 44.000 11.924,43.893 12.172,43.750 12.227 C 43.605 12.282,43.500 12.532,43.500 12.818 C 43.500 13.091,43.425 13.360,43.333 13.417 C 43.242 13.473,43.167 13.703,43.167 13.927 C 43.167 14.150,43.092 14.333,43.000 14.333 C 42.908 14.333,42.833 14.600,42.833 14.927 C 42.833 15.253,42.774 15.483,42.702 15.439 C 42.630 15.394,42.554 15.555,42.534 15.796 C 42.514 16.038,42.423 16.310,42.332 16.401 C 42.241 16.492,42.167 16.852,42.167 17.200 C 42.167 17.548,42.092 17.833,42.000 17.833 C 41.908 17.833,41.833 18.058,41.833 18.333 C 41.833 18.608,41.758 18.833,41.667 18.833 C 41.575 18.833,41.500 19.054,41.500 19.323 C 41.500 19.593,41.425 19.860,41.333 19.917 C 41.242 19.973,41.167 20.232,41.167 20.492 C 41.167 20.758,41.058 21.006,40.917 21.060 C 40.779 21.113,40.667 21.342,40.667 21.568 C 40.667 21.795,40.592 22.027,40.500 22.083 C 40.408 22.140,40.333 22.407,40.333 22.677 C 40.333 22.946,40.258 23.167,40.167 23.167 C 40.075 23.167,40.000 23.387,40.000 23.657 C 40.000 23.926,39.925 24.193,39.833 24.250 C 39.742 24.307,39.667 24.536,39.667 24.760 C 39.667 24.984,39.592 25.167,39.500 25.167 C 39.408 25.167,39.333 25.429,39.333 25.750 C 39.333 26.071,39.258 26.333,39.167 26.333 C 39.075 26.333,39.000 26.558,39.000 26.833 C 39.000 27.108,38.925 27.333,38.833 27.333 C 38.742 27.333,38.667 27.600,38.667 27.927 C 38.667 28.280,38.599 28.478,38.500 28.417 C 38.401 28.355,38.333 28.554,38.333 28.907 C 38.333 29.233,38.258 29.500,38.167 29.500 C 38.075 29.500,38.000 29.693,38.000 29.929 C 38.000 30.164,37.887 30.470,37.750 30.607 C 37.612 30.745,37.500 31.072,37.500 31.335 C 37.500 31.598,37.425 31.860,37.333 31.917 C 37.242 31.973,37.167 32.240,37.167 32.510 C 37.167 32.779,37.092 33.000,37.000 33.000 C 36.908 33.000,36.833 33.193,36.833 33.429 C 36.833 34.387,37.932 34.333,18.179 34.333 C 0.111 34.333,0.000 34.335,0.000 34.667 C 0.000 34.987,0.533 35.663,0.792 35.670 C 0.860 35.672,1.216 35.934,1.582 36.253 C 1.947 36.572,2.341 36.833,2.457 36.833 C 2.572 36.833,2.667 36.896,2.667 36.972 C 2.667 37.048,2.873 37.217,3.125 37.347 C 3.377 37.477,3.665 37.658,3.764 37.750 C 3.864 37.842,4.154 38.067,4.410 38.250 C 4.666 38.433,5.050 38.752,5.263 38.958 C 5.477 39.165,5.730 39.333,5.826 39.333 C 5.922 39.333,6.000 39.390,6.000 39.459 C 6.000 39.529,6.225 39.685,6.501 39.807 C 6.776 39.929,6.960 40.097,6.908 40.181 C 6.856 40.265,6.969 40.333,7.158 40.333 C 7.348 40.333,7.738 40.558,8.026 40.833 C 8.314 41.108,8.651 41.333,8.775 41.333 C 8.899 41.333,9.000 41.427,9.001 41.542 C 9.001 41.656,9.413 42.012,9.917 42.333 C 10.420 42.654,10.832 42.973,10.832 43.042 C 10.833 43.110,10.947 43.167,11.085 43.167 C 11.223 43.167,11.572 43.392,11.860 43.667 C 12.147 43.942,12.449 44.167,12.530 44.167 C 12.611 44.167,12.927 44.410,13.232 44.708 C 13.537 45.006,13.886 45.273,14.008 45.302 C 14.129 45.331,14.355 45.499,14.509 45.677 C 14.663 45.855,14.875 46.000,14.979 46.000 C 15.084 46.000,15.405 46.225,15.693 46.500 C 15.981 46.775,16.328 47.000,16.464 47.000 C 16.601 47.000,16.937 47.263,17.211 47.583 C 17.485 47.904,17.795 48.167,17.901 48.167 C 18.007 48.167,18.201 48.317,18.333 48.500 C 18.465 48.683,18.688 48.834,18.828 48.834 C 18.969 48.835,19.323 49.060,19.616 49.334 C 19.909 49.609,20.226 49.833,20.321 49.833 C 20.416 49.833,20.702 50.017,20.955 50.242 C 22.367 51.491,22.593 51.667,22.789 51.667 C 22.907 51.667,23.238 51.892,23.526 52.167 C 23.814 52.442,24.112 52.667,24.189 52.667 C 24.323 52.667,24.780 53.006,25.257 53.458 C 25.377 53.573,25.581 53.667,25.710 53.667 C 25.838 53.667,26.044 53.854,26.167 54.083 C 26.289 54.312,26.510 54.500,26.658 54.500 C 26.806 54.500,27.035 54.650,27.167 54.833 C 27.299 55.017,27.507 55.167,27.630 55.167 C 27.753 55.167,27.807 55.242,27.750 55.333 C 27.693 55.425,27.801 55.500,27.990 55.500 C 28.179 55.500,28.333 55.575,28.333 55.667 C 28.333 55.758,28.446 55.833,28.583 55.833 C 28.721 55.833,28.833 55.908,28.833 56.000 C 28.833 56.092,28.983 56.167,29.167 56.167 C 29.352 56.167,29.500 56.278,29.500 56.417 C 29.500 56.554,29.425 56.667,29.333 56.667 C 29.242 56.667,29.167 56.887,29.167 57.157 C 29.167 57.426,29.092 57.693,29.000 57.750 C 28.908 57.807,28.833 58.111,28.833 58.427 C 28.833 58.825,28.757 59.000,28.583 59.000 C 28.409 59.000,28.333 59.176,28.333 59.583 C 28.333 59.904,28.258 60.167,28.167 60.167 C 28.075 60.167,28.000 60.392,28.000 60.667 C 28.000 60.942,27.925 61.167,27.833 61.167 C 27.742 61.167,27.667 61.392,27.667 61.667 C 27.667 61.942,27.592 62.167,27.500 62.167 C 27.408 62.167,27.333 62.429,27.333 62.750 C 27.333 63.071,27.258 63.333,27.167 63.333 C 27.075 63.333,27.000 63.558,27.000 63.833 C 27.000 64.108,26.925 64.333,26.833 64.333 C 26.742 64.333,26.667 64.554,26.667 64.823 C 26.667 65.093,26.592 65.360,26.500 65.417 C 26.408 65.473,26.333 65.740,26.333 66.010 C 26.333 66.279,26.258 66.500,26.167 66.500 C 26.075 66.500,26.000 66.717,26.000 66.982 C 26.000 67.257,25.893 67.506,25.750 67.560 C 25.613 67.613,25.500 67.810,25.500 67.997 C 25.500 68.412,25.121 69.667,24.996 69.667 C 24.946 69.667,24.890 69.873,24.871 70.125 C 24.839 70.547,24.695 70.957,24.314 71.706 C 24.233 71.865,24.167 72.259,24.167 72.581 C 24.167 72.903,24.092 73.167,24.000 73.167 C 23.908 73.167,23.833 73.392,23.833 73.667 C 23.833 73.942,23.758 74.167,23.667 74.167 C 23.575 74.167,23.500 74.429,23.500 74.750 C 23.500 75.071,23.425 75.333,23.333 75.333 C 23.242 75.333,23.167 75.558,23.167 75.833 C 23.167 76.108,23.092 76.333,23.000 76.333 C 22.908 76.333,22.833 76.550,22.833 76.816 C 22.833 77.090,22.726 77.339,22.583 77.394 C 22.439 77.449,22.333 77.698,22.333 77.985 C 22.333 78.257,22.258 78.527,22.167 78.583 C 22.075 78.640,22.000 78.869,22.000 79.093 C 22.000 79.317,21.925 79.500,21.833 79.500 C 21.742 79.500,21.667 79.767,21.667 80.093 C 21.667 80.446,21.599 80.645,21.500 80.583 C 21.401 80.522,21.333 80.720,21.333 81.073 C 21.333 81.400,21.258 81.667,21.167 81.667 C 21.075 81.667,21.000 81.887,21.000 82.157 C 21.000 82.426,20.925 82.693,20.833 82.750 C 20.742 82.807,20.667 83.036,20.667 83.260 C 20.667 83.484,20.592 83.667,20.500 83.667 C 20.408 83.667,20.333 83.929,20.333 84.250 C 20.333 84.571,20.258 84.833,20.167 84.833 C 20.075 84.833,19.998 85.040,19.995 85.292 C 19.992 85.544,19.879 85.896,19.745 86.074 C 19.610 86.251,19.500 86.566,19.500 86.772 C 19.500 86.978,19.425 87.193,19.333 87.250 C 19.242 87.307,19.167 87.574,19.167 87.843 C 19.167 88.113,19.092 88.333,19.000 88.333 C 18.908 88.333,18.833 88.554,18.833 88.823 C 18.833 89.093,18.758 89.360,18.667 89.417 C 18.575 89.473,18.500 89.698,18.500 89.917 C 18.500 90.135,18.425 90.360,18.333 90.417 C 18.010 90.617,18.140 91.427,18.500 91.454 C 18.683 91.468,18.833 91.409,18.833 91.323 C 18.833 91.237,18.935 91.167,19.059 91.167 C 19.183 91.167,19.487 90.979,19.734 90.750 C 19.982 90.521,20.255 90.333,20.342 90.333 C 20.429 90.333,20.500 90.258,20.500 90.167 C 20.500 90.075,20.585 90.000,20.689 90.000 C 20.793 90.000,20.999 89.868,21.147 89.707 C 21.295 89.546,21.623 89.308,21.875 89.179 C 22.127 89.050,22.333 88.881,22.333 88.805 C 22.333 88.729,22.446 88.667,22.583 88.667 C 22.721 88.667,22.833 88.604,22.833 88.528 C 22.833 88.452,23.039 88.283,23.289 88.153 C 23.772 87.903,24.302 87.491,24.934 86.875 C 25.145 86.669,25.434 86.500,25.576 86.500 C 25.717 86.500,25.833 86.425,25.833 86.333 C 25.833 86.242,25.929 86.167,26.047 86.167 C 26.164 86.167,26.368 86.017,26.500 85.833 C 26.632 85.650,26.840 85.500,26.961 85.500 C 27.082 85.500,27.365 85.331,27.589 85.125 C 28.661 84.138,28.833 84.000,28.994 84.000 C 29.089 84.000,29.167 83.925,29.167 83.833 C 29.167 83.742,29.279 83.667,29.417 83.667 C 29.554 83.667,29.667 83.592,29.667 83.500 C 29.667 83.408,29.763 83.333,29.880 83.333 C 29.997 83.333,30.201 83.183,30.333 83.000 C 30.465 82.817,30.690 82.667,30.833 82.667 C 30.976 82.667,31.201 82.517,31.333 82.333 C 31.465 82.150,31.663 82.000,31.772 82.000 C 31.882 82.000,32.242 81.737,32.572 81.417 C 32.902 81.096,33.235 80.833,33.312 80.833 C 33.388 80.833,33.686 80.608,33.974 80.333 C 34.262 80.058,34.591 79.833,34.707 79.833 C 34.822 79.833,35.179 79.608,35.500 79.333 C 35.821 79.059,36.145 78.834,36.220 78.834 C 36.417 78.833,36.833 78.389,36.833 78.179 C 36.833 78.080,36.983 78.000,37.167 78.000 C 37.350 78.000,37.500 77.925,37.500 77.833 C 37.500 77.742,37.596 77.667,37.713 77.667 C 37.830 77.667,38.035 77.517,38.167 77.333 C 38.299 77.150,38.513 77.000,38.642 77.000 C 38.772 77.000,38.999 76.868,39.147 76.706 C 39.295 76.544,39.697 76.226,40.041 75.998 C 40.384 75.770,40.665 75.490,40.666 75.375 C 40.666 75.260,40.806 75.167,40.975 75.167 C 41.145 75.167,41.519 74.942,41.807 74.667 C 42.095 74.392,42.416 74.167,42.521 74.167 C 42.625 74.167,42.832 74.035,42.980 73.874 C 43.129 73.713,43.445 73.481,43.683 73.359 C 44.117 73.137,44.608 72.750,45.631 71.827 C 45.932 71.556,46.288 71.333,46.422 71.333 C 46.557 71.333,46.667 71.258,46.667 71.167 C 46.667 71.075,46.779 71.000,46.917 71.000 C 47.054 71.000,47.167 70.925,47.167 70.833 C 47.167 70.742,47.270 70.667,47.396 70.667 C 47.523 70.667,47.721 70.552,47.836 70.413 C 48.107 70.086,48.580 70.235,49.240 70.854 C 49.521 71.117,49.851 71.332,49.975 71.333 C 50.098 71.333,50.410 71.558,50.667 71.833 C 50.924 72.108,51.186 72.333,51.249 72.333 C 51.469 72.333,52.155 72.956,52.050 73.061 C 51.992 73.119,52.107 73.167,52.306 73.167 C 52.504 73.167,52.667 73.242,52.667 73.333 C 52.667 73.425,52.779 73.500,52.917 73.500 C 53.054 73.500,53.167 73.562,53.167 73.639 C 53.167 73.715,53.373 73.883,53.625 74.013 C 53.877 74.144,54.282 74.456,54.525 74.708 C 54.768 74.960,55.046 75.167,55.142 75.167 C 55.238 75.167,55.518 75.354,55.766 75.583 C 56.013 75.813,56.280 76.000,56.359 76.000 C 56.438 76.000,56.738 76.225,57.026 76.500 C 57.314 76.775,57.619 77.000,57.703 77.000 C 57.788 77.000,57.956 77.094,58.077 77.208 C 58.634 77.738,59.024 78.000,59.252 78.000 C 59.388 78.000,59.500 78.107,59.500 78.239 C 59.500 78.370,59.652 78.526,59.839 78.585 C 60.025 78.644,60.344 78.855,60.547 79.055 C 60.750 79.254,61.123 79.523,61.375 79.653 C 61.627 79.783,61.833 79.952,61.833 80.028 C 61.833 80.104,61.929 80.167,62.047 80.167 C 62.164 80.167,62.368 80.317,62.500 80.500 C 62.632 80.683,62.857 80.833,63.000 80.833 C 63.143 80.833,63.368 80.983,63.500 81.167 C 63.632 81.350,63.825 81.500,63.928 81.500 C 64.031 81.500,64.258 81.658,64.432 81.850 C 64.607 82.043,64.973 82.317,65.248 82.458 C 65.522 82.600,65.946 82.930,66.190 83.191 C 66.434 83.453,66.754 83.667,66.900 83.667 C 67.047 83.667,67.167 83.742,67.167 83.833 C 67.167 83.925,67.279 84.000,67.417 84.000 C 67.554 84.000,67.667 84.075,67.667 84.167 C 67.667 84.258,67.817 84.333,68.000 84.333 C 68.183 84.333,68.333 84.412,68.333 84.508 C 68.333 84.731,69.028 85.401,69.330 85.469 C 69.458 85.497,69.688 85.666,69.842 85.844 C 69.996 86.021,70.207 86.167,70.311 86.167 C 70.415 86.167,70.500 86.242,70.500 86.333 C 70.500 86.425,70.598 86.500,70.719 86.500 C 70.839 86.500,71.098 86.650,71.295 86.833 C 71.492 87.017,71.768 87.167,71.910 87.167 C 72.051 87.167,72.167 87.279,72.167 87.417 C 72.167 87.554,72.233 87.667,72.314 87.667 C 72.395 87.667,72.938 88.040,73.522 88.497 C 74.106 88.953,74.661 89.328,74.755 89.330 C 74.849 89.332,75.035 89.483,75.167 89.667 C 75.299 89.850,75.524 90.000,75.667 90.000 C 75.810 90.000,76.037 90.154,76.172 90.342 C 76.471 90.759,77.813 91.532,78.018 91.405 C 78.207 91.289,78.213 90.285,78.026 90.075 C 77.949 89.988,77.754 89.485,77.594 88.958 C 77.434 88.431,77.234 88.000,77.151 88.000 C 77.068 88.000,77.000 87.779,77.000 87.510 C 77.000 87.240,76.925 86.973,76.833 86.917 C 76.742 86.860,76.667 86.593,76.667 86.323 C 76.667 86.054,76.592 85.833,76.500 85.833 C 76.408 85.833,76.333 85.608,76.333 85.333 C 76.333 85.058,76.258 84.833,76.167 84.833 C 76.075 84.833,76.000 84.571,76.000 84.250 C 76.000 83.929,75.925 83.667,75.833 83.667 C 75.742 83.667,75.667 83.442,75.667 83.167 C 75.667 82.892,75.592 82.667,75.500 82.667 C 75.408 82.667,75.333 82.442,75.333 82.167 C 75.333 81.892,75.258 81.667,75.167 81.667 C 75.075 81.667,75.000 81.446,75.000 81.177 C 75.000 80.907,74.925 80.640,74.833 80.583 C 74.742 80.527,74.667 80.302,74.667 80.083 C 74.667 79.865,74.592 79.640,74.500 79.583 C 74.408 79.527,74.333 79.260,74.333 78.990 C 74.333 78.666,74.249 78.500,74.083 78.500 C 73.903 78.500,73.833 78.315,73.833 77.833 C 73.833 77.467,73.758 77.167,73.667 77.167 C 73.575 77.167,73.500 76.978,73.500 76.748 C 73.500 76.517,73.432 76.199,73.350 76.039 C 73.267 75.880,73.110 75.412,73.000 75.000 C 72.890 74.587,72.733 74.120,72.650 73.961 C 72.568 73.801,72.500 73.483,72.500 73.252 C 72.500 73.022,72.425 72.833,72.333 72.833 C 72.242 72.833,72.167 72.608,72.167 72.333 C 72.167 72.058,72.092 71.833,72.000 71.833 C 71.908 71.833,71.833 71.571,71.833 71.250 C 71.833 70.929,71.758 70.667,71.667 70.667 C 71.575 70.667,71.500 70.477,71.500 70.245 C 71.500 70.013,71.387 69.780,71.250 69.727 C 71.109 69.673,71.000 69.425,71.000 69.159 C 71.000 68.899,70.925 68.640,70.833 68.583 C 70.742 68.527,70.667 68.260,70.667 67.990 C 70.667 67.721,70.592 67.500,70.500 67.500 C 70.408 67.500,70.333 67.275,70.333 67.000 C 70.333 66.725,70.258 66.500,70.167 66.500 C 70.075 66.500,70.000 66.237,70.000 65.917 C 70.000 65.596,69.925 65.333,69.833 65.333 C 69.742 65.333,69.667 65.113,69.667 64.845 C 69.667 64.133,69.277 64.091,67.394 64.601 C 66.490 64.846,65.487 65.103,65.167 65.173 C 64.846 65.244,64.133 65.425,63.583 65.577 C 62.196 65.961,58.879 66.835,58.125 67.017 C 57.781 67.099,57.219 67.234,56.875 67.317 C 56.531 67.399,54.622 67.887,52.632 68.400 C 50.642 68.913,48.880 69.332,48.715 69.330 C 48.340 69.325,48.203 69.433,53.083 65.889 C 55.192 64.358,57.442 62.720,58.083 62.249 C 59.042 61.546,60.684 60.356,63.583 58.263 C 63.767 58.131,64.440 57.643,65.080 57.178 C 66.179 56.380,66.833 56.127,66.833 56.500 C 66.833 56.592,66.908 56.667,67.000 56.667 C 67.092 56.667,67.167 56.588,67.167 56.492 C 67.167 56.245,67.943 55.500,68.201 55.500 C 68.320 55.500,68.632 55.314,68.895 55.088 C 69.159 54.861,69.503 54.635,69.660 54.585 C 69.818 54.535,70.046 54.308,70.168 54.081 C 70.290 53.853,70.527 53.667,70.695 53.667 C 70.863 53.667,71.000 53.592,71.000 53.500 C 71.000 53.408,71.117 53.333,71.260 53.333 C 71.403 53.333,71.473 53.258,71.417 53.167 C 71.360 53.075,71.431 53.000,71.573 53.000 C 71.716 53.000,71.833 52.925,71.833 52.833 C 71.833 52.742,71.932 52.667,72.052 52.667 C 72.172 52.667,72.431 52.517,72.628 52.333 C 72.825 52.150,73.063 52.000,73.157 52.000 C 73.310 52.000,73.750 51.652,74.683 50.792 C 74.858 50.631,75.058 50.500,75.130 50.500 C 75.201 50.500,75.368 50.350,75.500 50.167 C 75.632 49.983,75.840 49.833,75.961 49.833 C 76.082 49.833,76.356 49.665,76.570 49.458 C 76.917 49.123,77.178 48.946,78.404 48.216 C 78.589 48.106,78.940 47.787,79.184 47.508 C 79.428 47.229,79.749 47.000,79.897 47.000 C 80.045 47.000,80.167 46.925,80.167 46.833 C 80.167 46.742,80.279 46.667,80.417 46.667 C 80.554 46.667,80.667 46.592,80.667 46.500 C 80.667 46.408,80.779 46.333,80.917 46.333 C 81.054 46.333,81.167 46.258,81.167 46.167 C 81.167 46.075,81.263 46.000,81.380 46.000 C 81.497 46.000,81.701 45.850,81.833 45.667 C 81.965 45.483,82.151 45.333,82.245 45.333 C 82.339 45.332,82.683 45.088,83.009 44.791 C 83.335 44.493,83.804 44.144,84.051 44.014 C 84.298 43.883,84.500 43.715,84.500 43.639 C 84.500 43.562,84.620 43.500,84.766 43.500 C 84.913 43.500,85.243 43.275,85.500 43.000 C 85.757 42.725,86.087 42.500,86.234 42.500 C 86.380 42.500,86.500 42.438,86.500 42.361 C 86.500 42.285,86.688 42.123,86.917 42.000 C 87.146 41.877,87.333 41.677,87.333 41.555 C 87.333 41.433,87.467 41.333,87.630 41.333 C 87.793 41.333,88.035 41.183,88.167 41.000 C 88.299 40.817,88.506 40.667,88.627 40.667 C 88.748 40.667,89.013 40.510,89.215 40.318 C 89.418 40.126,89.921 39.736,90.333 39.452 C 90.746 39.168,91.108 38.875,91.139 38.801 C 91.169 38.727,91.290 38.667,91.407 38.667 C 91.524 38.667,91.761 38.479,91.933 38.250 C 92.105 38.021,92.367 37.833,92.515 37.833 C 92.663 37.833,93.019 37.608,93.307 37.333 C 93.595 37.058,93.895 36.833,93.974 36.833 C 94.053 36.833,94.353 36.608,94.640 36.333 C 94.928 36.058,95.240 35.833,95.333 35.833 C 95.613 35.833,96.500 34.901,96.500 34.607 C 96.500 34.355,95.057 34.333,78.187 34.333 L 59.874 34.333 59.675 33.854 C 59.566 33.590,59.456 33.238,59.432 33.071 C 59.408 32.904,59.300 32.739,59.194 32.703 C 59.087 32.668,59.000 32.420,59.000 32.153 C 59.000 31.885,58.925 31.667,58.833 31.667 C 58.742 31.667,58.667 31.404,58.667 31.083 C 58.667 30.762,58.592 30.500,58.500 30.500 C 58.408 30.500,58.333 30.275,58.333 30.000 C 58.333 29.725,58.258 29.500,58.167 29.500 C 58.075 29.500,58.000 29.279,58.000 29.010 C 58.000 28.740,57.925 28.473,57.833 28.417 C 57.742 28.360,57.667 28.093,57.667 27.823 C 57.667 27.554,57.592 27.333,57.500 27.333 C 57.408 27.333,57.333 27.108,57.333 26.833 C 57.333 26.558,57.258 26.333,57.167 26.333 C 57.075 26.333,57.000 26.113,57.000 25.843 C 57.000 25.574,56.925 25.307,56.833 25.250 C 56.742 25.193,56.667 24.926,56.667 24.657 C 56.667 24.387,56.592 24.167,56.500 24.167 C 56.408 24.167,56.333 23.942,56.333 23.667 C 56.333 23.333,56.250 23.167,56.083 23.167 C 55.898 23.167,55.833 22.971,55.833 22.407 C 55.833 21.943,55.768 21.687,55.667 21.750 C 55.567 21.811,55.500 21.613,55.500 21.260 C 55.500 20.934,55.425 20.667,55.333 20.667 C 55.242 20.667,55.167 20.446,55.167 20.177 C 55.167 19.907,55.092 19.640,55.000 19.583 C 54.908 19.527,54.833 19.255,54.833 18.980 C 54.833 18.689,54.764 18.523,54.667 18.583 C 54.567 18.645,54.500 18.446,54.500 18.093 C 54.500 17.767,54.425 17.500,54.333 17.500 C 54.242 17.500,54.167 17.281,54.167 17.014 C 54.167 16.747,54.094 16.503,54.005 16.472 C 53.917 16.442,53.826 16.173,53.803 15.875 C 53.781 15.577,53.703 15.333,53.631 15.333 C 53.559 15.333,53.500 15.108,53.500 14.833 C 53.500 14.558,53.425 14.333,53.333 14.333 C 53.242 14.333,53.167 14.106,53.167 13.828 C 53.167 13.533,53.063 13.283,52.917 13.227 C 52.774 13.172,52.667 12.924,52.667 12.649 C 52.667 12.384,52.592 12.167,52.500 12.167 C 52.408 12.167,52.333 11.942,52.333 11.667 C 52.333 11.392,52.258 11.167,52.167 11.167 C 52.075 11.167,52.000 10.946,52.000 10.677 C 52.000 10.407,51.925 10.140,51.833 10.083 C 51.742 10.027,51.667 9.760,51.667 9.490 C 51.667 9.221,51.592 9.000,51.500 9.000 C 51.408 9.000,51.333 8.742,51.333 8.427 C 51.333 8.111,51.258 7.807,51.167 7.750 C 51.075 7.693,51.000 7.468,51.000 7.250 C 51.000 7.032,50.925 6.807,50.833 6.750 C 50.742 6.693,50.667 6.431,50.667 6.167 C 50.667 5.902,50.592 5.640,50.500 5.583 C 50.408 5.527,50.333 5.306,50.333 5.094 C 50.333 4.881,50.221 4.614,50.083 4.500 C 49.946 4.386,49.833 4.077,49.833 3.813 C 49.833 3.549,49.758 3.333,49.667 3.333 C 49.575 3.333,49.500 3.108,49.500 2.833 C 49.500 2.558,49.425 2.333,49.333 2.333 C 49.242 2.333,49.167 2.113,49.167 1.843 C 49.167 1.574,49.092 1.307,49.000 1.250 C 48.908 1.193,48.833 0.979,48.833 0.773 C 48.833 0.078,48.143 -0.244,47.708 0.249 " stroke="none" fill="#282641" fill-rule="evenodd"></path><path id="path1" d="M105.000 38.583 L 105.000 42.833 112.917 42.833 L 120.833 42.833 120.833 64.000 L 120.833 85.167 125.583 85.167 L 130.333 85.167 130.333 64.000 L 130.333 42.833 138.250 42.833 L 146.167 42.833 146.167 38.583 L 146.167 34.333 125.583 34.333 L 105.000 34.333 105.000 38.583 M310.167 38.583 L 310.167 42.833 314.583 42.833 L 319.000 42.833 319.000 38.583 L 319.000 34.333 314.583 34.333 L 310.167 34.333 310.167 38.583 M325.333 59.750 L 325.333 85.167 329.583 85.167 L 333.833 85.167 333.833 59.750 L 333.833 34.333 329.583 34.333 L 325.333 34.333 325.333 59.750 M247.500 42.667 L 247.500 48.167 244.500 48.167 L 241.500 48.167 241.500 51.500 L 241.500 54.833 244.500 54.833 L 247.500 54.833 247.500 66.417 C 247.500 74.028,247.557 78.000,247.667 78.000 C 247.761 78.000,247.833 78.472,247.833 79.083 C 247.833 79.694,247.906 80.167,248.000 80.167 C 248.092 80.167,248.167 80.392,248.167 80.667 C 248.167 80.942,248.242 81.167,248.333 81.167 C 248.425 81.167,248.500 81.354,248.500 81.583 C 248.500 81.813,248.575 82.000,248.667 82.000 C 248.758 82.000,248.833 82.120,248.833 82.266 C 248.833 82.653,250.324 84.000,250.752 84.000 C 250.888 84.000,251.000 84.075,251.000 84.167 C 251.000 84.258,251.142 84.333,251.316 84.333 C 251.489 84.333,251.674 84.446,251.727 84.583 C 251.780 84.721,252.008 84.833,252.235 84.833 C 252.462 84.833,252.693 84.908,252.750 85.000 C 252.807 85.092,253.299 85.167,253.843 85.167 C 254.392 85.167,254.833 85.241,254.833 85.333 C 254.833 85.438,255.944 85.500,257.833 85.500 C 259.722 85.500,260.833 85.438,260.833 85.333 C 260.833 85.237,261.361 85.167,262.083 85.167 L 263.333 85.167 263.333 81.583 L 263.333 78.000 262.833 78.000 C 262.500 78.000,262.333 78.083,262.333 78.250 C 262.333 78.458,262.000 78.500,260.333 78.500 C 258.667 78.500,258.333 78.458,258.333 78.250 C 258.333 78.093,258.175 78.000,257.909 78.000 C 257.404 78.000,256.667 77.318,256.667 76.851 C 256.667 76.669,256.592 76.473,256.500 76.417 C 256.392 76.350,256.333 72.554,256.333 65.573 L 256.333 54.833 259.833 54.833 L 263.333 54.833 263.333 51.500 L 263.333 48.167 259.833 48.167 L 256.333 48.167 256.333 42.930 C 256.333 40.050,256.288 37.575,256.232 37.430 C 256.144 37.199,255.597 37.167,251.816 37.167 L 247.500 37.167 247.500 42.667 M384.333 42.667 L 384.333 48.167 381.333 48.167 L 378.333 48.167 378.333 51.500 L 378.333 54.833 381.333 54.833 L 384.333 54.833 384.333 66.417 C 384.333 74.028,384.390 78.000,384.500 78.000 C 384.594 78.000,384.667 78.472,384.667 79.083 C 384.667 79.694,384.739 80.167,384.833 80.167 C 384.925 80.167,385.000 80.392,385.000 80.667 C 385.000 80.942,385.075 81.167,385.167 81.167 C 385.258 81.167,385.333 81.354,385.333 81.583 C 385.333 81.813,385.408 82.000,385.500 82.000 C 385.592 82.000,385.667 82.118,385.667 82.262 C 385.667 82.525,386.045 83.000,386.255 83.000 C 386.316 83.000,386.576 83.225,386.833 83.500 C 387.090 83.775,387.420 84.000,387.567 84.000 C 387.713 84.000,387.833 84.075,387.833 84.167 C 387.833 84.258,387.975 84.333,388.149 84.333 C 388.322 84.333,388.508 84.446,388.560 84.583 C 388.616 84.729,388.866 84.833,389.161 84.833 C 389.439 84.833,389.667 84.908,389.667 85.000 C 389.667 85.093,390.111 85.167,390.667 85.167 C 391.222 85.167,391.667 85.241,391.667 85.333 C 391.667 85.438,392.778 85.500,394.667 85.500 C 396.556 85.500,397.667 85.438,397.667 85.333 C 397.667 85.238,398.167 85.167,398.833 85.167 L 400.000 85.167 400.000 81.583 L 400.000 78.000 399.583 78.000 C 399.324 78.000,399.167 78.094,399.167 78.250 C 399.167 78.458,398.833 78.500,397.167 78.500 C 395.500 78.500,395.167 78.458,395.167 78.250 C 395.167 78.112,395.069 78.000,394.950 78.000 C 394.507 78.000,393.836 77.574,393.835 77.292 C 393.834 77.131,393.758 77.000,393.667 77.000 C 393.575 77.000,393.500 76.850,393.500 76.667 C 393.500 76.483,393.425 76.333,393.333 76.333 C 393.224 76.333,393.167 72.639,393.167 65.583 L 393.167 54.833 396.583 54.833 L 400.000 54.833 400.000 51.500 L 400.000 48.167 396.583 48.167 L 393.167 48.167 393.167 42.667 L 393.167 37.167 388.750 37.167 L 384.333 37.167 384.333 42.667 M161.417 47.167 C 161.360 47.258,160.903 47.333,160.402 47.333 C 159.745 47.333,159.463 47.403,159.394 47.583 C 159.334 47.738,159.081 47.833,158.732 47.833 C 158.421 47.833,158.167 47.908,158.167 48.000 C 158.167 48.092,158.017 48.167,157.833 48.167 C 157.650 48.167,157.500 48.242,157.500 48.333 C 157.500 48.425,157.350 48.500,157.167 48.500 C 156.983 48.500,156.833 48.575,156.833 48.667 C 156.833 48.758,156.683 48.833,156.500 48.833 C 156.317 48.833,156.167 48.908,156.167 49.000 C 156.167 49.092,156.071 49.167,155.953 49.167 C 155.836 49.167,155.632 49.317,155.500 49.500 C 155.368 49.683,155.177 49.833,155.076 49.833 C 154.810 49.833,153.333 51.460,153.333 51.753 C 153.333 51.889,153.248 52.000,153.144 52.000 C 152.904 52.000,152.167 52.849,152.167 53.125 C 152.167 53.240,152.092 53.333,152.000 53.333 C 151.896 53.333,151.833 52.361,151.833 50.750 L 151.833 48.167 147.749 48.167 L 143.665 48.167 143.708 66.625 L 143.750 85.083 148.125 85.128 L 152.500 85.172 152.500 74.753 C 152.500 67.918,152.557 64.333,152.667 64.333 C 152.758 64.333,152.833 64.028,152.833 63.655 C 152.833 63.274,152.943 62.867,153.083 62.726 C 153.221 62.589,153.333 62.332,153.333 62.155 C 153.333 61.978,153.408 61.833,153.500 61.833 C 153.592 61.833,153.667 61.723,153.667 61.588 C 153.667 61.454,153.817 61.076,154.000 60.750 C 154.183 60.424,154.333 60.046,154.333 59.912 C 154.333 59.777,154.408 59.667,154.500 59.667 C 154.592 59.667,154.667 59.548,154.667 59.404 C 154.667 59.023,156.844 57.000,157.253 57.000 C 157.389 57.000,157.500 56.887,157.500 56.750 C 157.500 56.611,157.648 56.500,157.833 56.500 C 158.017 56.500,158.167 56.425,158.167 56.333 C 158.167 56.242,158.317 56.167,158.500 56.167 C 158.683 56.167,158.833 56.092,158.833 56.000 C 158.833 55.908,159.171 55.833,159.583 55.833 C 159.996 55.833,160.333 55.758,160.333 55.667 C 160.333 55.566,161.028 55.500,162.083 55.500 C 163.139 55.500,163.833 55.566,163.833 55.667 C 163.833 55.758,164.247 55.833,164.753 55.833 L 165.672 55.833 165.628 51.625 L 165.583 47.417 164.542 47.367 C 163.969 47.340,163.500 47.246,163.500 47.159 C 163.500 46.947,161.548 46.954,161.417 47.167 M222.417 47.167 C 222.359 47.260,221.558 47.333,220.585 47.333 C 219.271 47.333,218.797 47.393,218.607 47.583 C 218.458 47.733,218.050 47.833,217.595 47.833 C 217.176 47.833,216.833 47.908,216.833 48.000 C 216.833 48.092,216.571 48.167,216.250 48.167 C 215.929 48.167,215.667 48.242,215.667 48.333 C 215.667 48.425,215.442 48.500,215.167 48.500 C 214.892 48.500,214.667 48.575,214.667 48.667 C 214.667 48.758,214.517 48.833,214.333 48.833 C 214.150 48.833,214.000 48.908,214.000 49.000 C 214.000 49.092,213.813 49.167,213.583 49.167 C 213.354 49.167,213.167 49.242,213.167 49.333 C 213.167 49.425,213.033 49.500,212.870 49.500 C 212.707 49.500,212.465 49.650,212.333 49.833 C 212.201 50.017,211.960 50.167,211.797 50.167 C 211.633 50.167,211.500 50.223,211.500 50.292 C 211.500 50.457,210.743 51.333,210.600 51.333 C 210.417 51.333,209.333 52.475,209.333 52.668 C 209.333 52.767,209.183 53.008,209.000 53.205 C 208.817 53.402,208.667 53.774,208.667 54.031 C 208.667 54.289,208.592 54.500,208.500 54.500 C 208.408 54.500,208.333 54.725,208.333 55.000 C 208.333 55.275,208.258 55.500,208.167 55.500 C 208.063 55.500,208.000 56.444,208.000 58.000 C 208.000 59.556,208.063 60.500,208.167 60.500 C 208.258 60.500,208.333 60.800,208.333 61.167 C 208.333 61.533,208.408 61.833,208.500 61.833 C 208.592 61.833,208.667 61.983,208.667 62.167 C 208.667 62.350,208.742 62.500,208.833 62.500 C 208.925 62.500,209.000 62.688,209.000 62.917 C 209.000 63.146,209.075 63.333,209.167 63.333 C 209.258 63.333,209.333 63.431,209.333 63.551 C 209.333 63.797,210.385 64.998,210.606 65.004 C 210.685 65.006,210.974 65.268,211.248 65.587 C 211.523 65.906,211.841 66.167,211.957 66.167 C 212.072 66.167,212.167 66.228,212.167 66.302 C 212.167 66.473,213.450 67.167,213.766 67.167 C 213.895 67.167,214.000 67.242,214.000 67.333 C 214.000 67.425,214.225 67.500,214.500 67.500 C 214.775 67.500,215.000 67.575,215.000 67.667 C 215.000 67.758,215.225 67.833,215.500 67.833 C 215.775 67.833,216.000 67.908,216.000 68.000 C 216.000 68.092,216.262 68.167,216.583 68.167 C 216.904 68.167,217.167 68.242,217.167 68.333 C 217.167 68.425,217.467 68.500,217.833 68.500 C 218.200 68.500,218.500 68.575,218.500 68.667 C 218.500 68.758,218.829 68.833,219.232 68.833 C 219.729 68.833,219.995 68.914,220.060 69.083 C 220.126 69.255,220.394 69.333,220.911 69.333 C 221.327 69.333,221.667 69.408,221.667 69.500 C 221.667 69.592,222.079 69.667,222.583 69.667 C 223.088 69.667,223.500 69.742,223.500 69.833 C 223.500 69.925,223.800 70.000,224.167 70.000 C 224.533 70.000,224.833 70.075,224.833 70.167 C 224.833 70.258,225.171 70.333,225.583 70.333 C 225.996 70.333,226.333 70.408,226.333 70.500 C 226.333 70.592,226.558 70.667,226.833 70.667 C 227.108 70.667,227.333 70.742,227.333 70.833 C 227.333 70.925,227.558 71.000,227.833 71.000 C 228.108 71.000,228.333 71.075,228.333 71.167 C 228.333 71.258,228.504 71.333,228.713 71.333 C 228.922 71.333,229.201 71.483,229.333 71.667 C 229.465 71.850,229.707 72.000,229.870 72.000 C 230.033 72.000,230.167 72.112,230.167 72.250 C 230.167 72.387,230.242 72.500,230.333 72.500 C 230.425 72.500,230.500 72.598,230.500 72.719 C 230.500 72.839,230.650 73.098,230.833 73.295 C 231.106 73.587,231.167 73.883,231.167 74.914 L 231.167 76.175 230.421 76.921 C 230.011 77.331,229.561 77.667,229.421 77.667 C 229.281 77.667,229.167 77.734,229.167 77.815 C 229.167 77.897,228.979 78.011,228.750 78.068 C 228.521 78.126,228.333 78.247,228.333 78.337 C 228.333 78.426,228.108 78.500,227.833 78.500 C 227.558 78.500,227.333 78.575,227.333 78.667 C 227.333 78.761,226.861 78.833,226.250 78.833 C 225.639 78.833,225.167 78.906,225.167 79.000 C 225.167 79.098,224.583 79.167,223.750 79.167 C 222.917 79.167,222.333 79.098,222.333 79.000 C 222.333 78.908,221.958 78.833,221.500 78.833 C 221.042 78.833,220.667 78.758,220.667 78.667 C 220.667 78.575,220.404 78.500,220.083 78.500 C 219.676 78.500,219.500 78.425,219.500 78.250 C 219.500 78.111,219.352 78.000,219.167 78.000 C 218.983 78.000,218.833 77.925,218.833 77.833 C 218.833 77.742,218.719 77.667,218.579 77.667 C 218.248 77.667,216.833 76.252,216.833 75.921 C 216.833 75.781,216.721 75.667,216.583 75.667 C 216.409 75.667,216.333 75.491,216.333 75.083 C 216.333 74.762,216.258 74.500,216.167 74.500 C 216.075 74.500,216.000 74.232,216.000 73.905 C 216.000 72.837,215.984 72.833,211.345 72.833 L 207.167 72.833 207.167 74.339 C 207.167 75.523,207.220 75.864,207.417 75.940 C 207.580 76.002,207.667 76.262,207.667 76.684 C 207.667 77.041,207.742 77.333,207.833 77.333 C 207.925 77.333,208.000 77.558,208.000 77.833 C 208.000 78.108,208.075 78.333,208.167 78.333 C 208.258 78.333,208.333 78.521,208.333 78.750 C 208.333 78.979,208.408 79.167,208.500 79.167 C 208.592 79.167,208.667 79.300,208.667 79.463 C 208.667 79.626,208.817 79.868,209.000 80.000 C 209.183 80.132,209.333 80.342,209.333 80.467 C 209.333 80.744,211.230 82.667,211.503 82.667 C 211.611 82.667,211.910 82.892,212.167 83.167 C 212.424 83.442,212.754 83.667,212.900 83.667 C 213.047 83.667,213.167 83.742,213.167 83.833 C 213.167 83.925,213.354 84.000,213.583 84.000 C 213.813 84.000,214.000 84.075,214.000 84.167 C 214.000 84.258,214.142 84.333,214.316 84.333 C 214.489 84.333,214.674 84.446,214.727 84.583 C 214.780 84.721,215.008 84.833,215.235 84.833 C 215.462 84.833,215.693 84.908,215.750 85.000 C 215.807 85.092,216.074 85.167,216.343 85.167 C 216.613 85.167,216.833 85.242,216.833 85.333 C 216.833 85.425,217.208 85.500,217.667 85.500 C 218.125 85.500,218.500 85.575,218.500 85.667 C 218.500 85.765,219.083 85.833,219.917 85.833 C 220.750 85.833,221.333 85.902,221.333 86.000 C 221.333 86.102,222.139 86.167,223.417 86.167 C 224.694 86.167,225.500 86.102,225.500 86.000 C 225.500 85.902,226.083 85.833,226.917 85.833 C 227.750 85.833,228.333 85.765,228.333 85.667 C 228.333 85.575,228.746 85.500,229.250 85.500 C 229.754 85.500,230.167 85.425,230.167 85.333 C 230.167 85.242,230.392 85.167,230.667 85.167 C 230.942 85.167,231.167 85.092,231.167 85.000 C 231.167 84.908,231.394 84.833,231.672 84.833 C 231.967 84.833,232.217 84.729,232.273 84.583 C 232.328 84.441,232.576 84.333,232.851 84.333 C 233.116 84.333,233.333 84.258,233.333 84.167 C 233.333 84.075,233.467 84.000,233.630 84.000 C 233.793 84.000,234.035 83.850,234.167 83.667 C 234.299 83.483,234.578 83.333,234.787 83.333 C 234.996 83.333,235.167 83.258,235.167 83.167 C 235.167 83.075,235.281 83.000,235.421 83.000 C 235.659 83.000,237.167 81.626,237.167 81.409 C 237.167 81.276,237.615 80.833,237.750 80.833 C 237.942 80.833,238.333 80.363,238.333 80.132 C 238.333 80.008,238.483 79.799,238.667 79.667 C 238.850 79.535,239.000 79.293,239.000 79.130 C 239.000 78.967,239.075 78.833,239.167 78.833 C 239.258 78.833,239.333 78.646,239.333 78.417 C 239.333 78.188,239.408 78.000,239.500 78.000 C 239.592 78.000,239.667 77.700,239.667 77.333 C 239.667 76.967,239.742 76.667,239.833 76.667 C 239.938 76.667,240.000 75.667,240.000 74.000 C 240.000 72.333,239.938 71.333,239.833 71.333 C 239.742 71.333,239.667 71.033,239.667 70.667 C 239.667 70.300,239.592 70.000,239.500 70.000 C 239.408 70.000,239.333 69.850,239.333 69.667 C 239.333 69.483,239.258 69.333,239.167 69.333 C 239.075 69.333,239.000 69.198,239.000 69.033 C 239.000 68.867,238.756 68.462,238.458 68.133 C 238.160 67.803,237.806 67.376,237.672 67.184 C 237.537 66.991,237.312 66.832,237.172 66.830 C 237.031 66.828,236.692 66.565,236.418 66.246 C 236.144 65.928,235.825 65.667,235.710 65.667 C 235.594 65.667,235.500 65.592,235.500 65.500 C 235.500 65.408,235.387 65.333,235.250 65.333 C 235.112 65.333,235.000 65.258,235.000 65.167 C 235.000 65.075,234.850 65.000,234.667 65.000 C 234.483 65.000,234.333 64.925,234.333 64.833 C 234.333 64.742,234.108 64.667,233.833 64.667 C 233.558 64.667,233.333 64.592,233.333 64.500 C 233.333 64.408,233.108 64.333,232.833 64.333 C 232.558 64.333,232.333 64.258,232.333 64.167 C 232.333 64.075,232.071 64.000,231.750 64.000 C 231.429 64.000,231.167 63.925,231.167 63.833 C 231.167 63.742,230.942 63.667,230.667 63.667 C 230.392 63.667,230.167 63.592,230.167 63.500 C 230.167 63.408,229.861 63.333,229.488 63.333 C 229.107 63.333,228.700 63.224,228.560 63.083 C 228.422 62.946,228.015 62.833,227.655 62.833 C 227.295 62.833,227.000 62.758,227.000 62.667 C 227.000 62.575,226.588 62.500,226.083 62.500 C 225.579 62.500,225.167 62.425,225.167 62.333 C 225.167 62.242,224.792 62.167,224.333 62.167 C 223.875 62.167,223.500 62.092,223.500 62.000 C 223.500 61.908,223.162 61.833,222.750 61.833 C 222.338 61.833,222.000 61.758,222.000 61.667 C 222.000 61.575,221.775 61.500,221.500 61.500 C 221.225 61.500,221.000 61.425,221.000 61.333 C 221.000 61.242,220.775 61.167,220.500 61.167 C 220.225 61.167,220.000 61.092,220.000 61.000 C 220.000 60.908,219.813 60.833,219.583 60.833 C 219.354 60.833,219.167 60.758,219.167 60.667 C 219.167 60.575,219.051 60.500,218.909 60.500 C 218.767 60.500,218.474 60.331,218.258 60.125 C 218.042 59.919,217.726 59.637,217.557 59.500 C 216.911 58.974,216.452 56.500,217.000 56.500 C 217.092 56.500,217.167 56.350,217.167 56.167 C 217.167 55.958,217.278 55.833,217.463 55.833 C 217.626 55.833,217.868 55.683,218.000 55.500 C 218.132 55.317,218.374 55.167,218.537 55.167 C 218.700 55.167,218.833 55.092,218.833 55.000 C 218.833 54.908,219.058 54.833,219.333 54.833 C 219.608 54.833,219.833 54.758,219.833 54.667 C 219.833 54.573,220.306 54.500,220.917 54.500 C 221.528 54.500,222.000 54.427,222.000 54.333 C 222.000 54.242,222.412 54.167,222.917 54.167 C 223.421 54.167,223.833 54.242,223.833 54.333 C 223.833 54.425,224.246 54.500,224.750 54.500 C 225.254 54.500,225.667 54.575,225.667 54.667 C 225.667 54.758,225.892 54.833,226.167 54.833 C 226.442 54.833,226.667 54.908,226.667 55.000 C 226.667 55.092,226.817 55.167,227.000 55.167 C 227.183 55.167,227.333 55.242,227.333 55.333 C 227.333 55.425,227.467 55.500,227.630 55.500 C 227.793 55.500,228.035 55.650,228.167 55.833 C 228.299 56.017,228.471 56.167,228.549 56.167 C 228.811 56.167,229.167 56.640,229.167 56.988 C 229.167 57.178,229.242 57.333,229.333 57.333 C 229.425 57.333,229.500 57.558,229.500 57.833 C 229.500 58.108,229.575 58.333,229.667 58.333 C 229.758 58.333,229.833 58.483,229.833 58.667 C 229.833 58.992,229.944 59.000,234.417 59.000 L 239.000 59.000 239.000 58.333 C 239.000 57.967,238.925 57.667,238.833 57.667 C 238.742 57.667,238.667 57.329,238.667 56.917 C 238.667 56.504,238.592 56.167,238.500 56.167 C 238.408 56.167,238.333 55.942,238.333 55.667 C 238.333 55.392,238.258 55.167,238.167 55.167 C 238.075 55.167,238.000 55.020,238.000 54.841 C 238.000 54.662,237.813 54.328,237.583 54.098 C 237.354 53.869,237.167 53.528,237.167 53.341 C 237.167 53.153,237.092 53.000,237.000 53.000 C 236.908 53.000,236.833 52.885,236.833 52.744 C 236.833 52.441,234.581 50.167,234.281 50.167 C 234.167 50.167,233.965 50.017,233.833 49.833 C 233.701 49.650,233.460 49.500,233.297 49.500 C 233.133 49.500,233.000 49.425,233.000 49.333 C 233.000 49.242,232.850 49.167,232.667 49.167 C 232.483 49.167,232.333 49.092,232.333 49.000 C 232.333 48.908,232.146 48.833,231.917 48.833 C 231.688 48.833,231.500 48.758,231.500 48.667 C 231.500 48.575,231.350 48.500,231.167 48.500 C 230.983 48.500,230.833 48.425,230.833 48.333 C 230.833 48.242,230.533 48.167,230.167 48.167 C 229.800 48.167,229.500 48.092,229.500 48.000 C 229.500 47.908,229.171 47.833,228.768 47.833 C 228.271 47.833,228.005 47.753,227.940 47.583 C 227.863 47.384,227.504 47.333,226.172 47.333 C 225.168 47.333,224.500 47.267,224.500 47.167 C 224.500 47.074,224.059 47.000,223.510 47.000 C 222.965 47.000,222.473 47.075,222.417 47.167 M286.667 47.167 C 286.667 47.265,286.083 47.333,285.250 47.333 C 284.102 47.333,283.833 47.381,283.833 47.583 C 283.833 47.769,283.639 47.833,283.083 47.833 C 282.671 47.833,282.333 47.908,282.333 48.000 C 282.333 48.092,282.108 48.167,281.833 48.167 C 281.558 48.167,281.333 48.242,281.333 48.333 C 281.333 48.425,281.183 48.500,281.000 48.500 C 280.817 48.500,280.667 48.575,280.667 48.667 C 280.667 48.758,280.479 48.833,280.250 48.833 C 280.021 48.833,279.833 48.908,279.833 49.000 C 279.833 49.092,279.719 49.167,279.579 49.167 C 279.341 49.167,277.833 50.540,277.833 50.758 C 277.833 50.908,277.377 51.333,277.215 51.333 C 277.137 51.333,276.965 51.483,276.833 51.667 C 276.405 52.260,276.333 52.032,276.333 50.083 L 276.333 48.167 272.333 48.167 L 268.333 48.167 268.333 73.250 L 268.333 98.333 272.665 98.333 L 276.997 98.333 277.040 89.879 L 277.083 81.424 278.038 82.379 C 278.563 82.904,279.073 83.333,279.170 83.333 C 279.268 83.333,279.508 83.483,279.705 83.667 C 279.902 83.850,280.199 84.000,280.365 84.000 C 280.531 84.000,280.667 84.075,280.667 84.167 C 280.667 84.258,280.817 84.333,281.000 84.333 C 281.183 84.333,281.333 84.403,281.333 84.488 C 281.333 84.707,282.310 85.167,282.776 85.167 C 282.991 85.167,283.167 85.242,283.167 85.333 C 283.167 85.425,283.467 85.500,283.833 85.500 C 284.200 85.500,284.500 85.575,284.500 85.667 C 284.500 85.763,285.028 85.833,285.750 85.833 C 286.472 85.833,287.000 85.904,287.000 86.000 C 287.000 86.101,287.750 86.167,288.917 86.167 C 290.083 86.167,290.833 86.101,290.833 86.000 C 290.833 85.906,291.306 85.833,291.917 85.833 C 292.528 85.833,293.000 85.761,293.000 85.667 C 293.000 85.575,293.300 85.500,293.667 85.500 C 294.033 85.500,294.333 85.425,294.333 85.333 C 294.333 85.242,294.483 85.167,294.667 85.167 C 294.850 85.167,295.000 85.092,295.000 85.000 C 295.000 84.908,295.152 84.833,295.339 84.833 C 295.525 84.833,295.720 84.721,295.773 84.583 C 295.826 84.446,296.011 84.333,296.184 84.333 C 296.358 84.333,296.500 84.258,296.500 84.167 C 296.500 84.075,296.633 84.000,296.797 84.000 C 296.960 84.000,297.201 83.850,297.333 83.667 C 297.465 83.483,297.707 83.333,297.870 83.333 C 298.033 83.333,298.167 83.258,298.167 83.167 C 298.167 83.075,298.244 83.000,298.338 83.000 C 298.520 83.000,300.000 81.580,300.000 81.405 C 300.000 81.347,300.225 81.090,300.500 80.833 C 300.775 80.576,301.000 80.264,301.000 80.139 C 301.000 80.015,301.188 79.772,301.417 79.600 C 301.646 79.427,301.833 79.185,301.833 79.060 C 301.833 78.935,301.908 78.833,302.000 78.833 C 302.092 78.833,302.167 78.721,302.167 78.583 C 302.167 78.446,302.242 78.333,302.333 78.333 C 302.425 78.333,302.500 78.183,302.500 78.000 C 302.500 77.817,302.575 77.667,302.667 77.667 C 302.758 77.667,302.833 77.442,302.833 77.167 C 302.833 76.892,302.908 76.667,303.000 76.667 C 303.092 76.667,303.167 76.517,303.167 76.333 C 303.167 76.150,303.242 76.000,303.333 76.000 C 303.425 76.000,303.500 75.737,303.500 75.417 C 303.500 75.096,303.575 74.833,303.667 74.833 C 303.758 74.833,303.833 74.533,303.833 74.167 C 303.833 73.800,303.908 73.500,304.000 73.500 C 304.092 73.500,304.167 73.195,304.167 72.821 C 304.167 72.440,304.276 72.033,304.417 71.893 C 304.594 71.716,304.667 71.284,304.667 70.415 C 304.667 69.739,304.742 69.140,304.833 69.083 C 304.931 69.023,305.000 68.057,305.000 66.750 C 305.000 65.443,304.931 64.477,304.833 64.417 C 304.742 64.360,304.667 63.761,304.667 63.085 C 304.667 62.216,304.594 61.784,304.417 61.607 C 304.279 61.470,304.167 61.089,304.167 60.762 C 304.167 60.435,304.092 60.167,304.000 60.167 C 303.908 60.167,303.833 59.829,303.833 59.417 C 303.833 59.004,303.758 58.667,303.667 58.667 C 303.575 58.667,303.500 58.442,303.500 58.167 C 303.500 57.892,303.425 57.667,303.333 57.667 C 303.242 57.667,303.167 57.517,303.167 57.333 C 303.167 57.150,303.092 57.000,303.000 57.000 C 302.908 57.000,302.833 56.813,302.833 56.583 C 302.833 56.354,302.758 56.167,302.667 56.167 C 302.575 56.167,302.500 56.017,302.500 55.833 C 302.500 55.650,302.425 55.500,302.333 55.500 C 302.242 55.500,302.167 55.350,302.167 55.167 C 302.167 54.983,302.092 54.833,302.000 54.833 C 301.908 54.833,301.833 54.683,301.833 54.500 C 301.833 54.317,301.753 54.167,301.655 54.167 C 301.387 54.167,301.000 53.727,301.000 53.424 C 301.000 53.112,298.090 50.167,297.782 50.167 C 297.667 50.167,297.465 50.017,297.333 49.833 C 297.201 49.650,296.960 49.500,296.797 49.500 C 296.633 49.500,296.500 49.425,296.500 49.333 C 296.500 49.242,296.350 49.167,296.167 49.167 C 295.983 49.167,295.833 49.092,295.833 49.000 C 295.833 48.908,295.646 48.833,295.417 48.833 C 295.188 48.833,295.000 48.758,295.000 48.667 C 295.000 48.575,294.850 48.500,294.667 48.500 C 294.483 48.500,294.333 48.425,294.333 48.333 C 294.333 48.242,294.108 48.167,293.833 48.167 C 293.558 48.167,293.333 48.092,293.333 48.000 C 293.333 47.908,293.004 47.833,292.601 47.833 C 292.104 47.833,291.838 47.753,291.773 47.583 C 291.698 47.387,291.356 47.333,290.172 47.333 C 289.280 47.333,288.667 47.265,288.667 47.167 C 288.667 47.074,288.222 47.000,287.667 47.000 C 287.111 47.000,286.667 47.074,286.667 47.167 M357.167 47.167 C 357.167 47.267,356.498 47.333,355.495 47.333 C 354.162 47.333,353.803 47.384,353.727 47.583 C 353.662 47.753,353.396 47.833,352.899 47.833 C 352.496 47.833,352.167 47.908,352.167 48.000 C 352.167 48.092,351.867 48.167,351.500 48.167 C 351.133 48.167,350.833 48.242,350.833 48.333 C 350.833 48.425,350.683 48.500,350.500 48.500 C 350.317 48.500,350.167 48.575,350.167 48.667 C 350.167 48.758,349.979 48.833,349.750 48.833 C 349.521 48.833,349.333 48.908,349.333 49.000 C 349.333 49.092,349.183 49.167,349.000 49.167 C 348.817 49.167,348.667 49.242,348.667 49.333 C 348.667 49.425,348.517 49.500,348.333 49.500 C 348.150 49.500,348.000 49.575,348.000 49.667 C 348.000 49.758,347.884 49.833,347.742 49.833 C 347.601 49.833,347.297 50.021,347.068 50.250 C 346.839 50.479,346.581 50.667,346.495 50.667 C 346.243 50.667,343.000 53.940,343.000 54.195 C 343.000 54.322,342.850 54.535,342.667 54.667 C 342.483 54.799,342.333 55.040,342.333 55.203 C 342.333 55.367,342.258 55.500,342.167 55.500 C 342.075 55.500,342.000 55.650,342.000 55.833 C 342.000 56.017,341.925 56.167,341.833 56.167 C 341.742 56.167,341.667 56.354,341.667 56.583 C 341.667 56.813,341.592 57.000,341.500 57.000 C 341.408 57.000,341.333 57.150,341.333 57.333 C 341.333 57.517,341.258 57.667,341.167 57.667 C 341.075 57.667,341.000 57.892,341.000 58.167 C 341.000 58.500,340.917 58.667,340.750 58.667 C 340.584 58.667,340.500 58.832,340.500 59.157 C 340.500 59.426,340.425 59.693,340.333 59.750 C 340.242 59.807,340.167 60.074,340.167 60.343 C 340.167 60.613,340.092 60.833,340.000 60.833 C 339.906 60.833,339.833 61.306,339.833 61.917 C 339.833 62.528,339.761 63.000,339.667 63.000 C 339.561 63.000,339.500 64.333,339.500 66.667 C 339.500 69.000,339.561 70.333,339.667 70.333 C 339.759 70.333,339.833 70.778,339.833 71.333 C 339.833 71.889,339.907 72.333,340.000 72.333 C 340.092 72.333,340.167 72.629,340.167 72.990 C 340.167 73.351,340.242 73.693,340.333 73.750 C 340.425 73.807,340.500 74.038,340.500 74.265 C 340.500 74.492,340.612 74.720,340.750 74.773 C 340.887 74.826,341.000 75.048,341.000 75.268 C 341.000 75.487,341.075 75.667,341.167 75.667 C 341.258 75.667,341.333 75.817,341.333 76.000 C 341.333 76.183,341.408 76.333,341.500 76.333 C 341.592 76.333,341.667 76.483,341.667 76.667 C 341.667 76.850,341.742 77.000,341.833 77.000 C 341.925 77.000,342.000 77.150,342.000 77.333 C 342.000 77.517,342.075 77.667,342.167 77.667 C 342.258 77.667,342.333 77.803,342.333 77.969 C 342.333 78.135,342.483 78.431,342.667 78.628 C 342.850 78.825,343.000 79.068,343.000 79.167 C 343.000 79.354,343.743 80.167,343.915 80.167 C 344.039 80.167,345.167 81.292,345.167 81.417 C 345.167 81.649,346.353 82.667,346.624 82.667 C 346.790 82.667,347.035 82.817,347.167 83.000 C 347.299 83.183,347.524 83.333,347.667 83.333 C 347.810 83.333,348.035 83.483,348.167 83.667 C 348.299 83.850,348.540 84.000,348.703 84.000 C 348.867 84.000,349.000 84.075,349.000 84.167 C 349.000 84.258,349.262 84.333,349.583 84.333 C 349.991 84.333,350.167 84.409,350.167 84.583 C 350.167 84.722,350.315 84.833,350.500 84.833 C 350.683 84.833,350.833 84.908,350.833 85.000 C 350.833 85.092,351.058 85.167,351.333 85.167 C 351.608 85.167,351.833 85.242,351.833 85.333 C 351.833 85.425,352.171 85.500,352.583 85.500 C 352.996 85.500,353.333 85.575,353.333 85.667 C 353.333 85.765,353.917 85.833,354.750 85.833 C 355.583 85.833,356.167 85.902,356.167 86.000 C 356.167 86.101,356.917 86.167,358.083 86.167 C 359.250 86.167,360.000 86.101,360.000 86.000 C 360.000 85.902,360.583 85.833,361.417 85.833 C 362.250 85.833,362.833 85.765,362.833 85.667 C 362.833 85.575,363.133 85.500,363.500 85.500 C 363.867 85.500,364.167 85.425,364.167 85.333 C 364.167 85.242,364.387 85.167,364.657 85.167 C 364.926 85.167,365.193 85.092,365.250 85.000 C 365.307 84.908,365.538 84.833,365.765 84.833 C 365.992 84.833,366.220 84.721,366.273 84.583 C 366.326 84.446,366.511 84.333,366.684 84.333 C 366.858 84.333,367.000 84.258,367.000 84.167 C 367.000 84.075,367.150 84.000,367.333 84.000 C 367.517 84.000,367.667 83.925,367.667 83.833 C 367.667 83.742,367.803 83.667,367.969 83.667 C 368.135 83.667,368.431 83.517,368.628 83.333 C 368.825 83.150,369.085 83.000,369.206 83.000 C 369.327 83.000,369.535 82.850,369.667 82.667 C 369.799 82.483,370.006 82.333,370.128 82.333 C 370.386 82.333,372.667 80.089,372.667 79.835 C 372.667 79.741,372.892 79.428,373.167 79.140 C 373.442 78.853,373.667 78.478,373.667 78.309 C 373.667 78.139,373.742 78.000,373.833 78.000 C 373.925 78.000,374.000 77.850,374.000 77.667 C 374.000 77.481,374.111 77.333,374.250 77.333 C 374.389 77.333,374.500 77.185,374.500 77.000 C 374.500 76.817,374.575 76.667,374.667 76.667 C 374.758 76.667,374.833 76.517,374.833 76.333 C 374.833 76.150,374.908 76.000,375.000 76.000 C 375.092 76.000,375.167 75.813,375.167 75.583 C 375.167 75.354,375.242 75.167,375.333 75.167 C 375.425 75.167,375.500 74.942,375.500 74.667 C 375.500 74.392,375.575 74.167,375.667 74.167 C 375.758 74.167,375.833 73.942,375.833 73.667 C 375.833 73.392,375.908 73.167,376.000 73.167 C 376.092 73.167,376.167 72.754,376.167 72.250 C 376.167 71.746,376.242 71.333,376.333 71.333 C 376.434 71.333,376.500 70.639,376.500 69.583 C 376.500 68.528,376.566 67.833,376.667 67.833 C 376.763 67.833,376.833 67.306,376.833 66.583 C 376.833 65.861,376.763 65.333,376.667 65.333 C 376.566 65.333,376.500 64.639,376.500 63.583 C 376.500 62.528,376.434 61.833,376.333 61.833 C 376.242 61.833,376.167 61.533,376.167 61.167 C 376.167 60.800,376.092 60.500,376.000 60.500 C 375.908 60.500,375.833 60.163,375.833 59.750 C 375.833 59.337,375.758 59.000,375.667 59.000 C 375.575 59.000,375.500 58.775,375.500 58.500 C 375.500 58.225,375.425 58.000,375.333 58.000 C 375.242 58.000,375.167 57.850,375.167 57.667 C 375.167 57.483,375.092 57.333,375.000 57.333 C 374.908 57.333,374.833 57.232,374.833 57.109 C 374.833 56.775,374.332 55.833,374.154 55.833 C 374.070 55.833,374.000 55.700,374.000 55.537 C 374.000 55.374,373.850 55.132,373.667 55.000 C 373.483 54.868,373.333 54.643,373.333 54.500 C 373.333 54.357,373.183 54.132,373.000 54.000 C 372.817 53.868,372.667 53.664,372.667 53.547 C 372.667 53.429,372.592 53.333,372.500 53.333 C 372.408 53.333,372.333 53.234,372.333 53.113 C 372.333 52.853,370.746 51.333,370.474 51.333 C 370.372 51.333,370.063 51.071,369.789 50.750 C 369.515 50.429,369.188 50.167,369.062 50.167 C 368.936 50.167,368.833 50.092,368.833 50.000 C 368.833 49.908,368.721 49.833,368.583 49.833 C 368.446 49.833,368.333 49.758,368.333 49.667 C 368.333 49.575,368.183 49.500,368.000 49.500 C 367.817 49.500,367.667 49.425,367.667 49.333 C 367.667 49.242,367.517 49.167,367.333 49.167 C 367.150 49.167,367.000 49.092,367.000 49.000 C 367.000 48.908,366.850 48.833,366.667 48.833 C 366.483 48.833,366.333 48.758,366.333 48.667 C 366.333 48.575,366.113 48.500,365.843 48.500 C 365.574 48.500,365.307 48.425,365.250 48.333 C 365.193 48.242,364.926 48.167,364.657 48.167 C 364.387 48.167,364.167 48.092,364.167 48.000 C 364.167 47.908,363.800 47.833,363.351 47.833 C 362.780 47.833,362.507 47.758,362.440 47.583 C 362.364 47.385,362.014 47.333,360.755 47.333 C 359.807 47.333,359.167 47.266,359.167 47.167 C 359.167 47.074,358.722 47.000,358.167 47.000 C 357.611 47.000,357.167 47.074,357.167 47.167 M169.833 61.823 C 169.833 70.748,169.891 75.516,170.000 75.583 C 170.092 75.640,170.167 76.057,170.167 76.510 C 170.167 76.963,170.242 77.333,170.333 77.333 C 170.425 77.333,170.500 77.629,170.500 77.990 C 170.500 78.351,170.575 78.693,170.667 78.750 C 170.758 78.807,170.833 78.999,170.833 79.177 C 170.833 79.354,170.946 79.500,171.083 79.500 C 171.222 79.500,171.333 79.648,171.333 79.833 C 171.333 80.017,171.408 80.167,171.500 80.167 C 171.592 80.167,171.667 80.317,171.667 80.500 C 171.667 80.683,171.742 80.833,171.833 80.833 C 171.925 80.833,172.000 80.983,172.000 81.167 C 172.000 81.350,172.075 81.500,172.167 81.500 C 172.258 81.500,172.333 81.577,172.333 81.670 C 172.333 81.892,174.108 83.667,174.330 83.667 C 174.423 83.667,174.500 83.742,174.500 83.833 C 174.500 83.925,174.650 84.000,174.833 84.000 C 175.017 84.000,175.167 84.075,175.167 84.167 C 175.167 84.258,175.317 84.333,175.500 84.333 C 175.685 84.333,175.833 84.444,175.833 84.583 C 175.833 84.721,175.979 84.833,176.157 84.833 C 176.335 84.833,176.527 84.908,176.583 85.000 C 176.640 85.092,176.907 85.167,177.177 85.167 C 177.446 85.167,177.667 85.242,177.667 85.333 C 177.667 85.425,177.967 85.500,178.333 85.500 C 178.700 85.500,179.000 85.575,179.000 85.667 C 179.000 85.763,179.528 85.833,180.250 85.833 C 180.972 85.833,181.500 85.904,181.500 86.000 C 181.500 86.101,182.194 86.167,183.250 86.167 C 184.306 86.167,185.000 86.101,185.000 86.000 C 185.000 85.908,185.441 85.833,185.990 85.833 C 186.535 85.833,187.027 85.758,187.083 85.667 C 187.140 85.575,187.407 85.500,187.677 85.500 C 187.946 85.500,188.167 85.425,188.167 85.333 C 188.167 85.242,188.317 85.167,188.500 85.167 C 188.683 85.167,188.833 85.092,188.833 85.000 C 188.833 84.908,188.986 84.833,189.172 84.833 C 189.358 84.833,189.554 84.721,189.606 84.583 C 189.659 84.446,189.828 84.333,189.981 84.333 C 190.134 84.333,190.368 84.183,190.500 84.000 C 190.632 83.817,190.842 83.667,190.967 83.667 C 191.091 83.667,191.481 83.367,191.833 83.000 C 192.186 82.633,192.527 82.333,192.593 82.333 C 192.813 82.333,193.500 81.419,193.500 81.125 C 193.500 80.965,193.575 80.833,193.667 80.833 C 193.769 80.833,193.833 81.667,193.833 83.000 L 193.833 85.167 198.083 85.167 L 202.333 85.167 202.333 66.667 L 202.333 48.167 197.917 48.167 L 193.500 48.167 193.500 60.333 C 193.500 68.333,193.443 72.500,193.333 72.500 C 193.242 72.500,193.167 72.800,193.167 73.167 C 193.167 73.533,193.092 73.833,193.000 73.833 C 192.908 73.833,192.833 73.983,192.833 74.167 C 192.833 74.350,192.758 74.500,192.667 74.500 C 192.575 74.500,192.500 74.688,192.500 74.917 C 192.500 75.176,192.406 75.333,192.250 75.333 C 192.112 75.333,192.000 75.447,192.000 75.587 C 192.000 75.917,190.250 77.667,189.920 77.667 C 189.781 77.667,189.667 77.742,189.667 77.833 C 189.667 77.925,189.514 78.000,189.328 78.000 C 189.142 78.000,188.946 78.112,188.894 78.250 C 188.841 78.387,188.656 78.500,188.482 78.500 C 188.309 78.500,188.167 78.575,188.167 78.667 C 188.167 78.758,187.792 78.833,187.333 78.833 C 186.875 78.833,186.500 78.908,186.500 79.000 C 186.500 79.096,185.972 79.167,185.250 79.167 C 184.528 79.167,184.000 79.096,184.000 79.000 C 184.000 78.908,183.662 78.833,183.250 78.833 C 182.838 78.833,182.500 78.758,182.500 78.667 C 182.500 78.575,182.358 78.500,182.184 78.500 C 182.011 78.500,181.826 78.387,181.773 78.250 C 181.720 78.112,181.596 78.000,181.498 78.000 C 181.399 78.000,181.148 77.831,180.939 77.625 C 180.731 77.419,180.359 77.101,180.113 76.919 C 179.868 76.737,179.667 76.455,179.667 76.294 C 179.667 76.132,179.592 76.000,179.500 76.000 C 179.408 76.000,179.333 75.850,179.333 75.667 C 179.333 75.483,179.258 75.333,179.167 75.333 C 179.075 75.333,179.000 75.071,179.000 74.750 C 179.000 74.429,178.925 74.167,178.833 74.167 C 178.737 74.167,178.667 73.639,178.667 72.917 C 178.667 72.194,178.596 71.667,178.500 71.667 C 178.390 71.667,178.333 67.639,178.333 59.917 L 178.333 48.167 174.083 48.167 L 169.833 48.167 169.833 61.823 M310.167 66.667 L 310.167 85.167 314.583 85.167 L 319.000 85.167 319.000 66.667 L 319.000 48.167 314.583 48.167 L 310.167 48.167 310.167 66.667 M287.333 54.333 C 287.333 54.425,287.708 54.500,288.167 54.500 C 288.625 54.500,289.000 54.575,289.000 54.667 C 289.000 54.758,289.188 54.833,289.417 54.833 C 289.646 54.833,289.833 54.908,289.833 55.000 C 289.833 55.092,289.983 55.167,290.167 55.167 C 290.350 55.167,290.500 55.242,290.500 55.333 C 290.500 55.425,290.620 55.500,290.766 55.500 C 290.913 55.500,291.243 55.725,291.500 56.000 C 291.757 56.275,292.032 56.500,292.111 56.500 C 292.190 56.500,292.403 56.702,292.585 56.948 C 292.768 57.194,293.160 57.642,293.458 57.942 C 293.756 58.243,294.000 58.604,294.000 58.744 C 294.000 58.885,294.075 59.000,294.167 59.000 C 294.258 59.000,294.333 59.150,294.333 59.333 C 294.333 59.517,294.408 59.667,294.500 59.667 C 294.592 59.667,294.667 59.812,294.667 59.990 C 294.667 60.168,294.742 60.360,294.833 60.417 C 294.925 60.473,295.000 60.705,295.000 60.932 C 295.000 61.158,295.112 61.387,295.250 61.440 C 295.393 61.494,295.500 61.743,295.500 62.018 C 295.500 62.283,295.575 62.500,295.667 62.500 C 295.758 62.500,295.833 62.913,295.833 63.417 C 295.833 63.921,295.908 64.333,296.000 64.333 C 296.104 64.333,296.167 65.278,296.167 66.833 C 296.167 68.389,296.104 69.333,296.000 69.333 C 295.908 69.333,295.833 69.708,295.833 70.167 C 295.833 70.625,295.758 71.000,295.667 71.000 C 295.575 71.000,295.500 71.337,295.500 71.750 C 295.500 72.306,295.435 72.500,295.250 72.500 C 295.111 72.500,295.000 72.648,295.000 72.833 C 295.000 73.017,294.925 73.167,294.833 73.167 C 294.742 73.167,294.667 73.317,294.667 73.500 C 294.667 73.683,294.592 73.833,294.500 73.833 C 294.408 73.833,294.333 73.983,294.333 74.167 C 294.333 74.350,294.258 74.500,294.167 74.500 C 294.075 74.500,294.000 74.655,294.000 74.844 C 294.000 75.302,291.554 77.667,291.080 77.667 C 290.945 77.667,290.833 77.742,290.833 77.833 C 290.833 77.925,290.683 78.000,290.500 78.000 C 290.315 78.000,290.167 78.111,290.167 78.250 C 290.167 78.389,290.019 78.500,289.833 78.500 C 289.650 78.500,289.500 78.575,289.500 78.667 C 289.500 78.758,289.087 78.833,288.583 78.833 C 288.079 78.833,287.667 78.908,287.667 79.000 C 287.667 79.096,287.139 79.167,286.417 79.167 C 285.694 79.167,285.167 79.096,285.167 79.000 C 285.167 78.908,284.867 78.833,284.500 78.833 C 284.133 78.833,283.833 78.758,283.833 78.667 C 283.833 78.575,283.571 78.500,283.250 78.500 C 282.876 78.500,282.667 78.421,282.667 78.278 C 282.667 78.156,282.460 77.950,282.208 77.821 C 281.956 77.692,281.629 77.454,281.480 77.293 C 281.332 77.132,281.088 77.000,280.939 77.000 C 280.789 77.000,280.667 76.925,280.667 76.833 C 280.667 76.742,280.589 76.667,280.494 76.667 C 280.203 76.667,279.167 75.529,279.167 75.209 C 279.167 75.043,279.017 74.799,278.833 74.667 C 278.650 74.535,278.500 74.293,278.500 74.130 C 278.500 73.967,278.425 73.833,278.333 73.833 C 278.242 73.833,278.167 73.683,278.167 73.500 C 278.167 73.317,278.092 73.167,278.000 73.167 C 277.908 73.167,277.833 72.942,277.833 72.667 C 277.833 72.392,277.758 72.167,277.667 72.167 C 277.575 72.167,277.500 71.939,277.500 71.661 C 277.500 71.366,277.396 71.116,277.250 71.060 C 277.075 70.993,277.000 70.720,277.000 70.149 C 277.000 69.700,276.925 69.333,276.833 69.333 C 276.729 69.333,276.667 68.333,276.667 66.667 C 276.667 65.000,276.729 64.000,276.833 64.000 C 276.925 64.000,277.000 63.620,277.000 63.155 C 277.000 62.626,277.094 62.216,277.250 62.060 C 277.387 61.922,277.500 61.590,277.500 61.321 C 277.500 61.053,277.575 60.833,277.667 60.833 C 277.758 60.833,277.833 60.646,277.833 60.417 C 277.833 60.188,277.908 60.000,278.000 60.000 C 278.092 60.000,278.167 59.850,278.167 59.667 C 278.167 59.483,278.242 59.333,278.333 59.333 C 278.425 59.333,278.500 59.183,278.500 59.000 C 278.500 58.817,278.575 58.667,278.667 58.667 C 278.758 58.667,278.833 58.553,278.833 58.415 C 278.833 58.277,279.058 57.928,279.333 57.640 C 279.608 57.353,279.833 56.978,279.833 56.809 C 279.833 56.619,279.953 56.500,280.142 56.500 C 280.312 56.500,280.686 56.275,280.974 56.000 C 281.262 55.725,281.610 55.500,281.748 55.500 C 281.887 55.500,282.000 55.425,282.000 55.333 C 282.000 55.242,282.150 55.167,282.333 55.167 C 282.517 55.167,282.667 55.092,282.667 55.000 C 282.667 54.908,282.887 54.833,283.157 54.833 C 283.426 54.833,283.693 54.758,283.750 54.667 C 283.807 54.575,284.224 54.500,284.677 54.500 C 285.129 54.500,285.500 54.425,285.500 54.333 C 285.500 54.242,285.912 54.167,286.417 54.167 C 286.921 54.167,287.333 54.242,287.333 54.333 M358.917 54.333 C 358.973 54.425,359.390 54.500,359.843 54.500 C 360.296 54.500,360.667 54.575,360.667 54.667 C 360.667 54.758,360.892 54.833,361.167 54.833 C 361.442 54.833,361.667 54.908,361.667 55.000 C 361.667 55.092,361.838 55.167,362.047 55.167 C 362.255 55.167,362.535 55.317,362.667 55.500 C 362.799 55.683,363.003 55.833,363.121 55.833 C 363.391 55.833,365.667 58.121,365.667 58.393 C 365.667 58.503,365.817 58.701,366.000 58.833 C 366.183 58.965,366.333 59.207,366.333 59.370 C 366.333 59.533,366.408 59.667,366.500 59.667 C 366.592 59.667,366.667 59.854,366.667 60.083 C 366.667 60.313,366.742 60.500,366.833 60.500 C 366.925 60.500,367.000 60.725,367.000 61.000 C 367.000 61.275,367.075 61.500,367.167 61.500 C 367.258 61.500,367.333 61.800,367.333 62.167 C 367.333 62.533,367.408 62.833,367.500 62.833 C 367.592 62.833,367.667 63.246,367.667 63.750 C 367.667 64.254,367.742 64.667,367.833 64.667 C 367.935 64.667,368.000 65.413,368.000 66.573 C 368.000 67.665,367.929 68.524,367.833 68.583 C 367.742 68.640,367.667 69.132,367.667 69.677 C 367.667 70.226,367.592 70.667,367.500 70.667 C 367.408 70.667,367.333 70.887,367.333 71.157 C 367.333 71.426,367.258 71.693,367.167 71.750 C 367.075 71.807,367.000 72.074,367.000 72.343 C 367.000 72.613,366.925 72.833,366.833 72.833 C 366.742 72.833,366.667 72.983,366.667 73.167 C 366.667 73.350,366.592 73.500,366.500 73.500 C 366.408 73.500,366.333 73.633,366.333 73.797 C 366.333 73.960,366.183 74.201,366.000 74.333 C 365.817 74.465,365.667 74.712,365.667 74.882 C 365.667 75.178,365.305 75.667,365.086 75.667 C 365.029 75.667,364.540 76.117,364.000 76.667 C 363.460 77.217,362.902 77.667,362.759 77.667 C 362.617 77.667,362.500 77.742,362.500 77.833 C 362.500 77.925,362.348 78.000,362.161 78.000 C 361.975 78.000,361.780 78.112,361.727 78.250 C 361.674 78.387,361.489 78.500,361.316 78.500 C 361.142 78.500,361.000 78.575,361.000 78.667 C 361.000 78.758,360.625 78.833,360.167 78.833 C 359.708 78.833,359.333 78.908,359.333 79.000 C 359.333 79.096,358.806 79.167,358.083 79.167 C 357.361 79.167,356.833 79.096,356.833 79.000 C 356.833 78.908,356.496 78.833,356.083 78.833 C 355.671 78.833,355.333 78.758,355.333 78.667 C 355.333 78.575,355.108 78.500,354.833 78.500 C 354.500 78.500,354.333 78.417,354.333 78.250 C 354.333 78.112,354.218 78.000,354.076 78.000 C 353.935 78.000,353.658 77.850,353.462 77.667 C 353.265 77.483,353.004 77.333,352.882 77.333 C 352.592 77.333,350.833 75.574,350.833 75.285 C 350.833 75.163,350.698 74.917,350.533 74.740 C 350.368 74.562,350.183 74.285,350.122 74.125 C 350.061 73.965,349.933 73.833,349.839 73.833 C 349.744 73.833,349.667 73.683,349.667 73.500 C 349.667 73.317,349.592 73.167,349.500 73.167 C 349.408 73.167,349.333 73.017,349.333 72.833 C 349.333 72.650,349.258 72.500,349.167 72.500 C 349.075 72.500,349.000 72.237,349.000 71.917 C 349.000 71.596,348.925 71.333,348.833 71.333 C 348.742 71.333,348.667 70.958,348.667 70.500 C 348.667 70.042,348.592 69.667,348.500 69.667 C 348.395 69.667,348.333 68.559,348.333 66.677 C 348.333 64.863,348.399 63.646,348.500 63.583 C 348.592 63.527,348.667 63.110,348.667 62.657 C 348.667 62.204,348.742 61.833,348.833 61.833 C 348.925 61.833,349.000 61.608,349.000 61.333 C 349.000 61.058,349.075 60.833,349.167 60.833 C 349.258 60.833,349.333 60.688,349.333 60.510 C 349.333 60.332,349.408 60.140,349.500 60.083 C 349.592 60.027,349.667 59.843,349.667 59.675 C 349.667 59.507,349.779 59.326,349.917 59.273 C 350.054 59.220,350.167 59.062,350.167 58.922 C 350.167 58.782,350.229 58.667,350.305 58.667 C 350.381 58.667,350.550 58.460,350.680 58.208 C 350.810 57.956,351.123 57.551,351.375 57.308 C 351.627 57.065,351.833 56.816,351.833 56.755 C 351.833 56.545,352.309 56.167,352.571 56.167 C 352.715 56.167,352.833 56.092,352.833 56.000 C 352.833 55.908,352.946 55.833,353.083 55.833 C 353.221 55.833,353.333 55.758,353.333 55.667 C 353.333 55.575,353.483 55.500,353.667 55.500 C 353.850 55.500,354.000 55.425,354.000 55.333 C 354.000 55.242,354.150 55.167,354.333 55.167 C 354.517 55.167,354.667 55.092,354.667 55.000 C 354.667 54.908,354.817 54.833,355.000 54.833 C 355.183 54.833,355.333 54.758,355.333 54.667 C 355.333 54.575,355.746 54.500,356.250 54.500 C 356.754 54.500,357.167 54.425,357.167 54.333 C 357.167 54.242,357.537 54.167,357.990 54.167 C 358.443 54.167,358.860 54.242,358.917 54.333 " stroke="none" fill="#282641" fill-rule="evenodd"></path><path id="path2" d="M65.080 57.178 C 64.440 57.643,63.767 58.131,63.583 58.263 C 60.684 60.356,59.042 61.546,58.083 62.249 C 57.442 62.720,55.192 64.358,53.083 65.889 C 48.203 69.433,48.340 69.325,48.715 69.330 C 48.880 69.332,50.642 68.913,52.632 68.400 C 56.230 67.472,56.809 67.326,58.083 67.024 C 58.841 66.845,62.085 65.992,63.583 65.577 C 64.133 65.425,64.846 65.243,65.167 65.171 C 65.487 65.100,66.556 64.829,67.542 64.569 L 69.333 64.097 69.333 63.548 C 69.333 63.247,69.258 63.000,69.167 63.000 C 69.075 63.000,69.000 62.779,69.000 62.510 C 69.000 62.240,68.925 61.973,68.833 61.917 C 68.742 61.860,68.667 61.635,68.667 61.417 C 68.667 61.198,68.592 60.973,68.500 60.917 C 68.408 60.860,68.333 60.628,68.333 60.402 C 68.333 60.175,68.221 59.946,68.083 59.894 C 67.929 59.834,67.833 59.581,67.833 59.232 C 67.833 58.921,67.758 58.667,67.667 58.667 C 67.575 58.667,67.500 58.442,67.500 58.167 C 67.500 57.892,67.425 57.667,67.333 57.667 C 67.242 57.667,67.167 57.474,67.167 57.238 C 67.167 56.126,66.553 56.108,65.080 57.178 " stroke="none" fill="#282641" fill-rule="evenodd"></path></g></svg>