<svg id="svg" xmlns="http://www.w3.org/2000/svg" xmlns:xlink="http://www.w3.org/1999/xlink" width="400" height="400" viewBox="0, 0, 400,400"><g id="svgg"><path id="path0" d="M176.953 0.867 C 13.017 20.924,-58.703 218.977,54.893 337.932 C 167.277 455.618,365.598 397.585,396.768 237.891 C 422.483 106.148,309.775 -15.384,176.953 0.867 M122.813 118.848 C 148.480 124.298,158.105 155.735,139.732 174.107 C 120.827 193.013,89.218 182.770,84.313 156.149 C 80.338 134.577,101.290 114.277,122.813 118.848 M289.151 118.761 C 307.152 122.149,319.246 140.285,315.308 157.984 C 309.671 183.320,278.587 192.426,260.268 174.107 C 237.901 151.740,258.157 112.926,289.151 118.761 M334.164 235.128 C 343.221 239.239,342.992 247.498,333.245 268.359 C 280.677 380.866,119.323 380.866,66.755 268.359 C 57.008 247.498,56.779 239.239,65.836 235.128 C 71.013 232.778,328.987 232.778,334.164 235.128 " stroke="none" fill="#b3b3b4" fill-rule="evenodd"></path></g></svg>