<svg id="svg" xmlns="http://www.w3.org/2000/svg" xmlns:xlink="http://www.w3.org/1999/xlink" width="400" height="400" viewBox="0, 0, 400,400"><g id="svgg"><path id="path0" d="M176.953 0.867 C 12.328 21.008,-58.892 219.743,55.807 338.916 C 168.006 455.490,365.730 396.905,396.768 237.891 C 422.483 106.148,309.775 -15.384,176.953 0.867 M298.577 132.472 C 304.980 136.982,307.428 146.302,303.958 152.961 C 301.678 157.338,190.940 267.623,187.330 269.114 C 183.619 270.645,178.868 270.642,175.170 269.105 C 171.168 267.442,114.465 210.985,112.433 206.641 C 106.668 194.313,118.326 180.843,131.641 184.449 C 134.251 185.156,138.591 189.106,158.015 208.458 L 181.265 231.621 231.062 181.855 C 261.982 150.955,281.896 131.629,283.594 130.876 C 287.922 128.956,294.594 129.666,298.577 132.472 " stroke="none" fill="#ebebeb" fill-rule="evenodd"></path></g></svg>