<svg id="svg" xmlns="http://www.w3.org/2000/svg" xmlns:xlink="http://www.w3.org/1999/xlink" width="400" height="400" viewBox="0, 0, 400,400"><g id="svgg"><path id="path0" d="M66.406 35.242 C 36.540 38.626,10.922 60.904,2.177 91.098 L 0.391 97.266 0.391 200.000 L 0.391 302.734 2.177 308.902 C 11.080 339.640,36.391 361.327,67.400 364.784 C 77.865 365.951,322.135 365.951,332.600 364.784 C 363.609 361.327,388.920 339.640,397.823 308.902 L 399.609 302.734 399.609 200.000 L 399.609 97.266 397.823 91.098 C 388.920 60.360,363.609 38.673,332.600 35.216 C 323.468 34.197,75.408 34.222,66.406 35.242 M135.667 124.611 C 154.889 130.199,174.174 148.621,171.198 158.553 C 167.981 169.291,158.047 170.107,148.912 160.383 C 119.425 128.998,78.543 152.014,78.543 200.000 C 78.543 258.945,141.243 275.167,158.935 220.799 C 162.046 211.238,162.639 211.881,150.445 211.584 C 137.077 211.258,132.599 208.351,132.599 200.000 C 132.599 190.372,136.269 188.719,158.276 188.436 C 185.264 188.089,187.799 190.270,185.133 211.538 C 177.166 275.071,110.007 299.878,72.466 253.155 C 27.922 197.715,72.844 106.347,135.667 124.611 M231.823 125.990 C 233.353 127.520,234.782 129.946,235.191 131.707 C 236.120 135.715,236.120 264.285,235.191 268.293 C 232.418 280.249,215.239 280.249,212.465 268.293 C 211.536 264.285,211.536 135.715,212.465 131.707 C 214.544 122.747,225.380 119.547,231.823 125.990 M335.785 122.696 C 346.327 124.957,348.923 138.356,339.906 143.964 C 337.183 145.657,336.426 145.709,311.133 145.938 L 285.156 146.172 285.156 159.414 L 285.156 172.656 310.754 172.656 C 342.137 172.656,345.313 173.733,345.313 184.375 C 345.313 195.048,342.235 196.091,310.742 196.093 L 285.156 196.094 285.155 232.227 C 285.154 265.068,285.029 268.607,283.788 271.078 C 279.583 279.448,267.607 279.464,263.165 271.106 C 260.918 266.876,260.918 133.110,263.165 128.919 C 264.927 125.633,267.678 123.487,271.190 122.658 C 275.236 121.703,331.306 121.736,335.785 122.696 " stroke="none" fill="#b3b3b4" fill-rule="evenodd"></path></g></svg>