<svg id="svg" xmlns="http://www.w3.org/2000/svg" xmlns:xlink="http://www.w3.org/1999/xlink" width="400" height="400" viewBox="0, 0, 400,400"><g id="svgg"><path id="path0" d="M201.563 26.155 C 134.056 35.980,80.124 80.906,58.623 145.225 C 56.187 152.512,51.563 171.695,51.563 174.512 C 51.563 174.780,39.874 175.000,25.587 175.000 L -0.388 175.000 31.056 206.444 L 62.500 237.888 93.944 206.444 L 125.388 175.000 101.757 175.000 C 79.771 175.000,78.125 174.905,78.126 173.633 C 78.131 166.703,85.516 145.197,92.680 131.250 C 142.751 33.771,278.648 22.505,344.383 110.384 C 402.453 188.016,372.731 299.100,283.654 337.355 C 223.813 363.054,150.095 345.645,110.932 296.565 C 109.011 294.158,107.083 292.191,106.649 292.195 C 105.986 292.201,89.366 304.876,87.186 307.039 C 86.260 307.957,93.327 316.509,102.102 325.089 C 192.356 413.336,342.665 380.679,388.753 262.809 C 403.808 224.306,403.808 175.694,388.753 137.191 C 365.901 78.746,316.449 38.311,253.906 26.932 C 243.819 25.097,212.070 24.626,201.563 26.155 M199.223 168.945 C 199.226 197.936,199.514 213.954,200.071 216.016 C 200.786 218.665,205.861 224.100,233.453 251.758 L 265.991 284.376 275.187 275.204 L 284.383 266.032 254.692 236.332 L 225.000 206.633 225.000 165.817 L 225.000 125.000 212.109 125.000 L 199.219 125.000 199.223 168.945 " stroke="none" fill="#ebebeb" fill-rule="evenodd"></path></g></svg>