<svg id="svg" version="1.1" xmlns="http://www.w3.org/2000/svg" xmlns:xlink="http://www.w3.org/1999/xlink" width="400" height="400" viewBox="0, 0, 400,400"><g id="svgg"><path id="path0" d="M39.863 0.581 C 39.728 0.932,39.286 1.094,38.742 0.989 C 38.249 0.894,37.538 1.094,37.162 1.434 C 36.642 1.905,36.407 1.936,36.178 1.564 C 35.992 1.264,36.043 1.179,36.311 1.345 C 36.549 1.492,36.858 1.430,36.996 1.207 C 37.142 0.971,36.807 0.800,36.200 0.800 C 35.478 0.800,35.241 0.955,35.435 1.300 C 35.652 1.685,35.601 1.692,35.210 1.331 C 34.593 0.761,33.600 1.076,33.600 1.843 C 33.600 2.390,32.928 2.569,31.457 2.414 C 29.810 2.240,28.905 2.750,29.019 3.789 C 29.113 4.650,29.025 4.735,28.391 4.395 C 27.360 3.843,27.193 3.897,27.443 4.700 C 27.650 5.367,27.639 5.367,27.210 4.700 C 26.586 3.729,26.131 3.825,25.838 4.989 C 25.623 5.847,25.428 5.946,24.372 5.734 C 23.356 5.531,23.117 5.633,22.930 6.345 C 22.806 6.822,22.386 7.200,21.981 7.200 C 21.533 7.200,21.207 7.544,21.128 8.100 C 21.020 8.861,20.774 8.990,19.538 8.934 C 18.394 8.882,18.031 9.037,17.872 9.645 C 17.760 10.073,17.437 10.373,17.153 10.311 C 16.869 10.250,16.628 10.470,16.618 10.800 C 16.608 11.130,16.195 11.578,15.700 11.795 C 15.205 12.012,14.800 12.417,14.800 12.695 C 14.800 12.973,14.620 13.200,14.400 13.200 C 14.180 13.200,14.045 13.425,14.100 13.700 C 14.155 13.975,13.975 14.155,13.700 14.100 C 13.425 14.045,13.200 14.180,13.200 14.400 C 13.200 14.620,12.930 14.800,12.600 14.800 C 12.270 14.800,12.000 15.087,12.000 15.437 C 12.000 15.788,11.640 16.169,11.200 16.284 C 10.760 16.399,10.400 16.759,10.400 17.084 C 10.400 17.409,10.040 17.769,9.600 17.884 C 9.082 18.019,8.800 18.430,8.800 19.047 C 8.800 19.880,8.445 20.171,7.556 20.066 C 7.421 20.050,7.308 20.434,7.304 20.919 C 7.291 22.522,7.207 22.705,6.385 22.920 C 5.731 23.091,5.589 23.415,5.667 24.570 C 5.733 25.544,5.526 26.232,5.026 26.704 C 4.620 27.087,4.406 27.187,4.550 26.928 C 4.695 26.668,4.630 26.342,4.407 26.204 C 4.157 26.050,4.000 26.578,4.000 27.576 C 4.000 28.933,3.869 29.200,3.200 29.200 C 2.339 29.200,2.026 30.922,2.800 31.400 C 3.020 31.536,3.197 31.862,3.194 32.124 C 3.189 32.473,3.103 32.467,2.870 32.100 C 2.199 31.043,1.007 32.592,0.925 34.628 C 0.883 35.679,0.615 36.671,0.325 36.855 C -0.057 37.097,0.018 37.193,0.600 37.207 C 1.362 37.225,1.366 37.252,0.679 37.772 C 0.131 38.187,0.083 38.377,0.479 38.560 C 0.907 38.757,0.907 38.843,0.479 39.040 C 0.083 39.223,0.131 39.415,0.679 39.841 C 1.340 40.356,1.342 40.382,0.700 40.158 C 0.034 39.926,-0.000 47.747,-0.000 200.757 C -0.000 329.162,0.101 361.601,0.500 361.606 C 0.833 361.610,0.800 361.742,0.400 362.000 C -0.133 362.345,-0.133 362.388,0.400 362.393 C 0.886 362.397,0.974 362.899,0.865 365.027 C 0.742 367.415,0.806 367.676,1.565 367.875 C 2.136 368.024,2.400 368.415,2.400 369.113 C 2.400 369.674,2.512 370.021,2.650 369.884 C 3.195 369.339,4.276 371.380,4.196 372.802 C 4.141 373.787,4.286 374.267,4.639 374.267 C 4.928 374.267,5.072 374.117,4.959 373.933 C 4.413 373.050,5.249 373.745,5.998 374.797 C 6.639 375.698,6.696 375.935,6.225 375.754 C 5.780 375.584,5.600 375.757,5.600 376.357 C 5.600 376.933,5.853 377.200,6.400 377.200 C 6.933 377.200,7.200 377.467,7.200 378.000 C 7.200 378.440,7.560 379.160,8.000 379.600 C 8.440 380.040,8.800 380.681,8.800 381.024 C 8.800 381.367,8.980 381.536,9.200 381.400 C 9.420 381.264,9.600 381.354,9.600 381.600 C 9.600 381.846,9.825 381.918,10.100 381.759 C 10.375 381.601,10.471 381.614,10.314 381.788 C 9.850 382.303,10.783 383.635,11.521 383.513 C 12.020 383.430,12.167 383.639,12.075 384.300 C 11.991 384.903,12.156 385.200,12.575 385.200 C 12.933 385.200,13.200 385.541,13.200 386.000 C 13.200 386.440,13.335 386.779,13.500 386.753 C 14.338 386.620,14.800 386.864,14.800 387.437 C 14.800 387.788,15.160 388.169,15.600 388.284 C 16.040 388.399,16.400 388.759,16.400 389.084 C 16.400 389.409,16.760 389.769,17.200 389.884 C 17.640 389.999,18.000 390.320,18.000 390.597 C 18.000 391.159,20.081 391.697,20.955 391.362 C 21.265 391.243,21.655 391.366,21.821 391.635 C 22.015 391.947,21.957 392.021,21.662 391.838 C 21.388 391.669,21.200 391.807,21.200 392.176 C 21.200 392.520,21.538 392.800,21.953 392.800 C 22.370 392.800,22.800 393.157,22.916 393.600 C 23.076 394.213,23.462 394.400,24.563 394.400 C 25.751 394.400,26.000 394.544,26.000 395.231 C 26.000 395.947,26.207 396.044,27.500 395.933 C 28.775 395.824,29.000 395.925,29.000 396.602 C 29.000 397.293,29.309 397.416,31.300 397.520 C 33.273 397.623,33.600 397.751,33.600 398.420 C 33.600 399.065,33.881 399.200,35.224 399.200 C 36.416 399.200,36.767 399.067,36.547 398.700 C 36.328 398.336,36.423 398.343,36.898 398.728 C 37.269 399.029,38.076 399.173,38.775 399.063 C 39.655 398.924,40.000 399.029,40.000 399.435 C 40.000 400.133,41.059 400.185,41.335 399.500 C 41.496 399.100,41.543 399.100,41.568 399.500 C 41.615 400.235,202.238 400.235,202.535 399.500 C 202.696 399.100,202.743 399.100,202.768 399.500 C 202.806 400.091,205.200 400.190,205.200 399.600 C 205.200 399.380,205.907 399.200,206.772 399.200 C 208.095 399.200,208.366 399.057,208.482 398.300 C 208.557 397.805,208.840 397.445,209.109 397.500 C 209.379 397.555,209.600 397.420,209.600 397.200 C 209.600 396.980,209.791 396.800,210.024 396.800 C 210.257 396.800,210.343 396.969,210.215 397.176 C 210.087 397.382,210.347 397.524,210.791 397.491 C 211.256 397.456,211.600 397.145,211.600 396.762 C 211.600 396.394,211.960 395.999,212.400 395.884 C 212.840 395.769,213.200 395.409,213.200 395.084 C 213.200 394.759,213.597 394.389,214.083 394.263 C 214.568 394.136,214.857 393.923,214.724 393.791 C 214.296 393.363,215.039 391.400,215.629 391.400 C 216.041 391.400,216.220 390.821,216.273 389.312 C 216.325 387.815,216.583 386.970,217.186 386.323 C 218.203 385.231,218.292 379.398,217.298 379.016 C 216.955 378.885,216.860 378.990,217.038 379.305 C 217.260 379.697,217.207 379.698,216.785 379.307 C 216.439 378.985,216.289 378.045,216.356 376.607 C 216.448 374.608,216.380 374.400,215.629 374.400 C 214.944 374.400,214.800 374.150,214.800 372.963 C 214.800 371.862,214.613 371.476,214.000 371.316 C 213.557 371.200,213.200 370.770,213.200 370.353 C 213.200 369.867,212.917 369.600,212.400 369.600 C 211.876 369.600,211.600 369.333,211.600 368.828 C 211.600 368.359,211.279 368.005,210.784 367.928 C 210.335 367.858,209.991 367.640,210.018 367.445 C 210.046 367.249,209.828 366.937,209.534 366.751 C 208.789 366.278,207.500 366.315,207.800 366.800 C 208.294 367.600,207.545 367.171,206.398 365.998 L 205.223 364.796 126.549 364.802 C 83.278 364.805,47.784 364.718,47.674 364.607 C 47.564 364.497,47.248 364.594,46.972 364.823 C 46.621 365.115,46.383 365.095,46.174 364.758 C 45.996 364.470,46.045 364.381,46.296 364.536 C 46.527 364.679,46.819 364.528,46.944 364.202 C 47.184 363.576,45.944 363.066,44.543 363.214 C 43.146 363.361,42.800 363.200,42.800 362.400 C 42.800 361.960,42.665 361.621,42.500 361.647 C 41.659 361.780,41.200 361.535,41.200 360.953 C 41.200 360.492,40.933 360.358,40.269 360.485 C 39.461 360.639,39.362 360.531,39.527 359.672 C 39.657 358.988,39.572 358.770,39.251 358.968 C 38.996 359.126,38.872 359.393,38.976 359.561 C 39.080 359.729,38.903 359.867,38.582 359.867 C 38.262 359.867,38.084 359.783,38.186 359.681 C 38.288 359.578,38.192 359.158,37.972 358.747 C 37.695 358.229,37.706 358.000,38.010 358.000 C 38.250 358.000,38.327 357.805,38.180 357.568 C 38.033 357.330,37.493 357.240,36.981 357.369 C 36.468 357.498,35.935 357.418,35.795 357.192 C 35.655 356.965,35.779 356.830,36.070 356.890 C 36.387 356.956,36.651 356.557,36.727 355.900 C 36.798 355.277,36.658 354.800,36.403 354.800 C 36.155 354.800,36.064 354.620,36.200 354.400 C 36.336 354.180,36.166 354.000,35.823 354.000 C 35.259 354.000,35.209 339.301,35.299 199.900 C 35.383 72.259,35.491 45.819,35.930 45.910 C 36.221 45.970,36.345 45.835,36.206 45.610 C 36.067 45.384,36.143 45.200,36.376 45.200 C 36.609 45.200,36.800 44.660,36.800 44.000 C 36.800 43.207,37.001 42.800,37.392 42.800 C 37.718 42.800,38.095 42.362,38.229 41.827 C 38.385 41.204,38.677 40.931,39.037 41.069 C 39.411 41.213,39.600 41.003,39.600 40.443 C 39.600 39.851,39.852 39.600,40.447 39.600 C 41.131 39.600,41.257 39.411,41.104 38.612 C 40.979 37.956,41.064 37.717,41.358 37.901 C 42.265 38.469,42.800 38.303,42.800 37.454 C 42.800 36.678,42.977 36.596,44.356 36.727 C 46.065 36.890,47.765 36.206,47.482 35.469 C 47.344 35.111,65.838 35.024,125.674 35.100 C 177.839 35.166,203.964 35.066,203.800 34.800 C 203.664 34.580,203.728 34.400,203.943 34.400 C 204.158 34.400,204.402 34.606,204.486 34.857 C 204.691 35.472,206.400 34.577,206.400 33.855 C 206.400 33.509,206.795 33.397,207.600 33.515 C 208.854 33.699,209.135 33.295,208.320 32.480 C 207.947 32.107,207.991 32.000,208.520 32.000 C 208.894 32.000,209.200 32.270,209.200 32.600 C 209.200 33.067,209.378 33.022,210.000 32.400 C 210.440 31.960,210.980 31.600,211.200 31.600 C 211.420 31.600,211.600 31.330,211.600 31.000 C 211.600 30.667,211.956 30.400,212.400 30.400 C 212.933 30.400,213.200 30.133,213.200 29.600 C 213.200 29.067,213.467 28.800,214.000 28.800 C 214.657 28.800,214.801 28.531,214.806 27.300 C 214.809 26.475,214.987 25.530,215.200 25.200 C 215.458 24.800,215.590 24.767,215.594 25.100 C 215.597 25.375,215.797 25.600,216.038 25.600 C 216.331 25.600,216.421 24.609,216.310 22.600 C 216.181 20.296,216.265 19.600,216.671 19.600 C 216.962 19.600,217.200 19.780,217.200 20.000 C 217.200 20.220,217.009 20.400,216.776 20.400 C 216.543 20.400,216.459 20.572,216.589 20.783 C 217.290 21.916,217.896 20.590,217.961 17.780 C 218.029 14.841,217.519 12.955,216.780 13.412 C 216.399 13.648,216.254 12.978,216.325 11.300 C 216.345 10.805,216.146 10.397,215.881 10.394 C 215.558 10.390,215.581 10.273,215.951 10.039 C 216.597 9.630,216.211 8.800,215.376 8.800 C 214.981 8.800,214.800 8.347,214.800 7.363 C 214.800 6.262,214.613 5.876,214.000 5.716 C 213.557 5.600,213.200 5.170,213.200 4.753 C 213.200 4.267,212.917 4.000,212.400 4.000 C 211.873 4.000,211.600 3.733,211.600 3.219 C 211.600 2.664,211.339 2.449,210.700 2.475 C 208.809 2.555,208.400 2.394,208.400 1.573 C 208.400 0.839,208.203 0.765,206.639 0.904 C 205.295 1.025,204.926 0.936,205.082 0.531 C 205.251 0.091,191.170 0.000,122.686 0.000 C 50.842 0.000,40.057 0.076,39.863 0.581 M277.595 83.013 C 277.334 83.699,277.021 83.835,276.039 83.691 C 274.440 83.456,272.778 83.884,272.902 84.498 C 272.956 84.763,272.595 85.043,272.100 85.118 C 271.463 85.216,271.200 85.528,271.200 86.190 C 271.200 86.928,271.031 87.081,270.400 86.916 C 269.835 86.768,269.600 86.904,269.600 87.377 C 269.600 87.782,269.783 87.934,270.062 87.762 C 270.348 87.585,270.415 87.652,270.238 87.938 C 270.081 88.192,269.492 88.400,268.930 88.400 C 268.074 88.400,267.936 88.553,268.085 89.331 C 268.238 90.133,268.129 90.237,267.298 90.078 C 266.385 89.904,266.339 89.988,266.441 91.647 C 266.500 92.611,266.380 93.400,266.174 93.400 C 265.968 93.400,265.855 93.235,265.923 93.032 C 265.990 92.830,265.777 92.888,265.448 93.160 C 264.818 93.683,264.551 105.401,265.178 105.013 C 265.337 104.915,265.467 105.089,265.467 105.400 C 265.467 105.711,265.305 105.865,265.107 105.742 C 264.908 105.620,264.818 106.123,264.906 106.860 C 265.027 107.876,265.254 108.195,265.843 108.178 C 266.487 108.160,266.595 108.378,266.471 109.443 C 266.355 110.433,266.514 110.833,267.160 111.179 C 267.622 111.426,268.000 111.982,268.000 112.414 C 268.000 112.917,268.271 113.200,268.753 113.200 C 269.170 113.200,269.600 113.557,269.716 114.000 C 269.831 114.440,270.212 114.800,270.563 114.800 C 270.933 114.800,271.200 115.135,271.200 115.600 C 271.200 116.133,271.467 116.400,272.000 116.400 C 272.533 116.400,272.800 116.667,272.800 117.200 C 272.800 117.640,272.935 117.979,273.100 117.953 C 273.925 117.822,274.400 118.059,274.400 118.600 C 274.400 119.141,274.875 119.378,275.700 119.247 C 275.865 119.221,276.000 119.517,276.000 119.904 C 276.000 120.291,276.379 120.844,276.842 121.133 C 277.305 121.422,277.572 121.478,277.435 121.257 C 277.299 121.036,277.359 120.749,277.568 120.619 C 277.788 120.484,277.872 120.812,277.767 121.392 C 277.596 122.333,277.921 122.619,278.949 122.431 C 279.141 122.396,279.193 122.642,279.064 122.978 C 278.811 123.637,280.093 124.573,280.581 124.086 C 280.738 123.929,280.830 123.980,280.786 124.200 C 280.613 125.055,280.821 125.596,281.285 125.500 C 281.552 125.445,281.955 125.805,282.180 126.300 C 282.553 127.120,283.182 127.412,284.168 127.225 C 284.370 127.186,284.315 127.420,284.047 127.744 C 283.648 128.225,283.705 128.379,284.358 128.587 C 284.799 128.727,285.276 129.208,285.418 129.657 C 285.595 130.216,285.917 130.410,286.439 130.274 C 286.858 130.164,287.110 130.222,286.999 130.401 C 286.686 130.908,287.237 132.024,287.669 131.757 C 287.881 131.627,288.152 131.896,288.272 132.355 C 288.393 132.815,288.650 133.092,288.845 132.972 C 289.040 132.851,289.200 132.943,289.200 133.176 C 289.200 133.409,289.498 133.600,289.862 133.600 C 290.457 133.600,290.450 133.518,289.798 132.798 C 289.398 132.356,289.190 131.876,289.336 131.731 C 289.481 131.586,289.600 131.687,289.600 131.957 C 289.600 132.227,289.783 132.334,290.007 132.196 C 290.230 132.058,290.292 131.749,290.145 131.511 C 289.983 131.248,290.063 131.192,290.348 131.368 C 290.836 131.670,290.801 133.047,290.283 133.872 C 290.120 134.132,290.155 134.448,290.359 134.575 C 290.564 134.701,290.810 134.579,290.906 134.302 C 291.002 134.026,291.211 134.385,291.372 135.100 C 291.638 136.284,291.820 136.461,292.680 136.370 C 292.834 136.354,293.099 136.714,293.267 137.170 C 293.436 137.627,293.829 138.000,294.140 138.000 C 294.452 138.000,294.801 138.360,294.916 138.800 C 295.031 139.240,295.391 139.600,295.716 139.600 C 296.041 139.600,296.401 139.960,296.516 140.400 C 296.631 140.840,297.012 141.200,297.363 141.200 C 297.739 141.200,298.000 141.537,298.000 142.024 C 298.000 142.480,298.181 142.735,298.407 142.596 C 298.630 142.458,298.694 142.132,298.548 141.872 C 298.351 141.521,298.408 141.515,298.769 141.848 C 299.193 142.238,299.462 143.001,299.569 144.118 C 299.586 144.292,299.911 144.382,300.291 144.318 C 300.683 144.251,300.986 144.455,300.991 144.788 C 300.996 145.112,301.450 145.604,302.000 145.882 C 302.550 146.161,302.858 146.391,302.684 146.394 C 302.511 146.397,302.601 146.655,302.884 146.967 C 303.168 147.278,303.544 147.395,303.721 147.226 C 303.897 147.057,304.498 147.006,305.057 147.113 C 305.776 147.250,305.920 147.402,305.550 147.631 C 305.262 147.809,304.826 147.787,304.580 147.583 C 304.287 147.340,304.133 147.409,304.133 147.784 C 304.133 148.098,304.238 148.337,304.367 148.314 C 304.917 148.217,305.976 148.915,305.774 149.242 C 305.652 149.439,305.754 149.600,306.000 149.600 C 306.246 149.600,306.333 149.784,306.194 150.010 C 306.055 150.235,306.089 150.394,306.270 150.363 C 306.934 150.247,307.727 150.406,307.521 150.613 C 307.163 150.971,312.986 156.738,314.153 157.182 C 314.819 157.435,315.137 157.778,314.965 158.057 C 314.768 158.375,315.010 158.453,315.750 158.312 C 316.338 158.199,316.933 158.291,317.071 158.515 C 317.216 158.749,317.126 158.802,316.862 158.638 C 316.568 158.457,316.400 158.662,316.400 159.203 C 316.400 159.872,316.571 160.000,317.200 159.800 C 317.948 159.563,318.240 160.080,318.047 161.300 C 318.021 161.465,318.269 161.600,318.597 161.600 C 319.488 161.600,321.200 163.237,321.200 164.090 C 321.200 164.568,321.441 164.793,321.873 164.718 C 322.303 164.642,322.650 164.962,322.834 165.600 C 322.991 166.150,323.138 166.459,323.160 166.286 C 323.182 166.113,323.553 166.161,323.985 166.392 C 324.417 166.623,324.677 167.056,324.562 167.354 C 324.439 167.676,324.704 167.986,325.218 168.121 C 325.696 168.246,325.963 168.537,325.816 168.774 C 325.669 169.012,326.007 169.374,326.576 169.591 C 327.139 169.805,327.600 170.255,327.600 170.590 C 327.600 170.926,327.791 171.200,328.024 171.200 C 328.257 171.200,328.328 171.007,328.182 170.770 C 328.027 170.520,328.245 170.546,328.704 170.833 C 329.219 171.154,329.420 171.603,329.283 172.125 C 329.142 172.665,329.225 172.832,329.538 172.638 C 329.821 172.464,330.153 172.751,330.391 173.376 C 330.738 174.288,331.459 174.636,332.568 174.425 C 332.770 174.386,332.690 174.651,332.389 175.013 C 331.912 175.588,331.941 175.654,332.622 175.536 C 333.176 175.439,333.437 175.658,333.528 176.300 C 333.610 176.878,333.932 177.200,334.428 177.200 C 334.933 177.200,335.200 177.476,335.200 178.000 C 335.200 178.440,335.335 178.779,335.500 178.753 C 336.630 178.574,337.109 178.861,336.916 179.600 C 336.768 180.165,336.904 180.400,337.377 180.400 C 337.807 180.400,337.939 180.221,337.747 179.900 C 337.518 179.519,337.598 179.523,338.082 179.915 C 338.444 180.208,338.629 180.767,338.512 181.215 C 338.334 181.895,167.927 182.593,145.870 182.003 C 143.822 181.949,143.514 182.041,143.324 182.770 C 143.151 183.430,142.789 183.600,141.553 183.600 C 140.684 183.600,140.000 183.795,140.000 184.043 C 140.000 184.286,140.279 184.378,140.621 184.247 C 140.967 184.114,141.137 184.179,141.004 184.394 C 140.767 184.777,137.659 185.801,137.114 185.675 C 136.957 185.639,136.915 185.834,137.020 186.108 C 137.125 186.381,136.804 186.784,136.305 187.003 C 135.613 187.307,135.400 187.729,135.400 188.800 C 135.400 190.015,135.276 190.193,134.466 190.149 C 133.755 190.111,133.577 190.269,133.720 190.815 C 133.844 191.289,133.638 191.601,133.113 191.739 C 132.677 191.853,132.431 192.126,132.566 192.345 C 132.702 192.565,132.661 192.838,132.476 192.953 C 131.692 193.438,132.011 206.706,132.832 207.749 C 133.254 208.287,133.600 209.021,133.600 209.381 C 133.600 209.741,133.825 210.006,134.100 209.970 C 135.610 209.774,136.012 209.991,135.540 210.747 C 134.946 211.699,135.367 212.814,136.425 213.091 C 136.909 213.217,137.160 213.528,137.036 213.850 C 136.890 214.232,137.302 214.471,138.414 214.649 C 139.846 214.878,140.192 215.185,140.047 216.100 C 140.021 216.265,140.199 216.400,140.443 216.400 C 140.691 216.400,140.778 216.092,140.642 215.700 C 140.429 215.090,140.473 215.096,140.980 215.750 C 141.366 216.248,141.893 216.437,142.544 216.313 C 143.281 216.172,143.472 216.269,143.305 216.703 C 143.054 217.356,143.842 217.985,144.924 217.994 C 145.397 217.998,145.543 217.827,145.347 217.500 C 145.131 217.141,145.232 217.150,145.703 217.532 C 146.064 217.825,146.954 218.032,147.680 217.992 C 155.931 217.536,338.400 218.086,338.400 218.567 C 338.400 218.878,338.625 219.224,338.900 219.335 C 339.175 219.446,338.888 219.551,338.263 219.568 C 337.477 219.590,337.060 219.848,336.916 220.400 C 336.800 220.843,336.370 221.200,335.953 221.200 C 335.467 221.200,335.200 221.483,335.200 222.000 C 335.200 222.533,334.933 222.800,334.400 222.800 C 333.867 222.800,333.600 223.067,333.600 223.600 C 333.600 224.117,333.333 224.400,332.847 224.400 C 332.418 224.400,331.999 224.762,331.874 225.240 C 331.753 225.702,331.488 225.978,331.285 225.853 C 331.083 225.728,330.715 226.069,330.467 226.613 C 330.220 227.156,329.833 227.600,329.609 227.600 C 329.384 227.600,329.200 227.876,329.200 228.213 C 329.200 228.549,328.885 228.941,328.500 229.082 C 328.115 229.224,327.656 229.578,327.480 229.870 C 327.304 230.161,326.899 230.400,326.580 230.400 C 326.261 230.400,326.000 230.664,326.000 230.986 C 326.000 231.308,325.626 231.772,325.169 232.017 C 324.693 232.271,324.431 232.705,324.556 233.031 C 324.709 233.428,324.477 233.600,323.787 233.600 C 323.244 233.600,322.800 233.791,322.800 234.024 C 322.800 234.257,322.978 234.337,323.195 234.203 C 323.422 234.063,323.489 234.223,323.353 234.579 C 323.222 234.921,322.853 235.200,322.534 235.200 C 322.175 235.200,322.068 235.392,322.253 235.700 C 322.428 235.991,322.239 235.949,321.802 235.600 C 321.121 235.056,321.075 235.065,321.310 235.694 C 321.589 236.437,320.358 237.407,319.798 236.886 C 319.629 236.729,319.579 237.090,319.688 237.688 C 319.796 238.286,319.746 238.690,319.576 238.585 C 319.407 238.481,319.177 238.621,319.066 238.898 C 318.905 239.297,318.857 239.297,318.832 238.900 C 318.773 237.965,318.000 238.395,318.000 239.363 C 318.000 240.152,317.844 240.284,317.137 240.099 C 316.409 239.909,316.309 240.009,316.499 240.737 C 316.674 241.406,316.547 241.600,315.936 241.600 C 314.848 241.600,313.527 242.359,313.812 242.820 C 313.942 243.029,313.833 243.200,313.572 243.200 C 313.064 243.200,308.802 247.396,308.797 247.900 C 308.796 248.065,308.256 248.507,307.597 248.881 C 306.939 249.256,306.400 249.762,306.400 250.005 C 306.400 250.248,306.580 250.336,306.800 250.200 C 307.020 250.064,307.200 250.143,307.200 250.376 C 307.200 250.737,305.818 250.998,305.490 250.700 C 305.299 250.526,304.078 251.790,304.216 252.019 C 304.288 252.140,304.182 252.500,303.980 252.819 C 303.712 253.242,303.611 253.259,303.606 252.884 C 303.601 252.463,303.498 252.463,303.044 252.884 C 302.642 253.258,302.614 253.481,302.944 253.694 C 303.272 253.906,303.260 253.989,302.900 253.994 C 302.625 253.997,302.351 253.955,302.290 253.900 C 301.928 253.570,300.951 255.114,301.095 255.788 C 301.196 256.257,301.128 256.431,300.935 256.200 C 300.482 255.660,299.475 255.474,299.794 255.990 C 299.933 256.216,299.846 256.400,299.600 256.400 C 299.354 256.400,299.264 256.580,299.400 256.800 C 299.617 257.151,299.125 257.364,298.338 257.260 C 298.194 257.241,297.971 257.499,297.843 257.833 C 297.693 258.224,297.773 258.341,298.066 258.159 C 298.348 257.985,298.414 258.054,298.238 258.338 C 298.081 258.592,297.689 258.800,297.366 258.800 C 297.044 258.800,296.609 259.251,296.399 259.803 C 296.189 260.355,295.789 260.760,295.509 260.703 C 295.210 260.643,295.019 260.963,295.046 261.478 C 295.071 261.961,294.837 262.454,294.525 262.573 C 294.212 262.694,294.068 262.614,294.203 262.395 C 294.337 262.178,294.251 262.000,294.011 262.000 C 293.771 262.000,293.424 262.405,293.241 262.900 C 293.058 263.395,292.749 263.730,292.554 263.645 C 292.359 263.560,292.021 263.878,291.803 264.351 C 291.560 264.876,291.175 265.123,290.815 264.984 C 290.490 264.860,290.339 264.872,290.479 265.013 C 290.822 265.355,289.555 266.800,288.911 266.800 C 288.630 266.800,288.400 266.986,288.400 267.212 C 288.400 267.439,287.688 268.279,286.818 269.080 C 285.948 269.880,285.328 270.684,285.441 270.867 C 285.636 271.181,285.018 271.371,284.253 271.232 C 284.062 271.197,284.017 271.615,284.154 272.160 C 284.291 272.705,284.224 273.261,284.006 273.396 C 283.767 273.544,283.717 273.355,283.879 272.921 C 284.184 272.109,282.938 272.872,282.280 273.900 C 282.104 274.175,281.699 274.400,281.380 274.400 C 281.061 274.400,280.800 274.601,280.800 274.847 C 280.800 275.092,281.147 275.203,281.570 275.092 C 282.096 274.954,282.276 275.059,282.137 275.420 C 282.025 275.711,281.710 275.864,281.436 275.758 C 280.574 275.428,278.794 276.318,279.039 276.956 C 279.314 277.674,277.744 279.380,277.457 278.675 C 277.314 278.325,277.255 278.332,277.232 278.700 C 277.214 278.975,276.922 279.200,276.582 279.200 C 276.219 279.200,276.013 279.484,276.082 279.891 C 276.147 280.271,275.975 280.609,275.700 280.641 C 275.425 280.673,275.020 280.723,274.800 280.750 C 274.580 280.778,274.400 281.070,274.400 281.400 C 274.400 281.931,273.947 282.168,273.137 282.060 C 272.992 282.040,272.919 282.445,272.976 282.959 C 273.057 283.703,272.923 283.853,272.316 283.694 C 271.786 283.555,271.488 283.743,271.339 284.310 C 271.222 284.759,270.783 285.216,270.363 285.326 C 269.943 285.435,269.600 285.812,269.600 286.163 C 269.600 286.526,269.268 286.800,268.828 286.800 C 268.334 286.800,268.006 287.125,267.918 287.700 C 267.843 288.195,267.560 288.555,267.291 288.500 C 267.021 288.445,266.779 288.625,266.754 288.900 C 266.728 289.175,266.666 289.580,266.615 289.800 C 266.564 290.020,266.494 290.502,266.461 290.871 C 266.427 291.240,266.086 291.602,265.703 291.676 C 264.833 291.843,264.464 303.595,265.329 303.606 C 265.645 303.610,265.626 303.722,265.270 303.948 C 264.532 304.416,264.811 307.000,265.600 307.000 C 266.005 307.000,266.240 307.489,266.324 308.500 C 266.447 309.979,266.947 310.476,267.329 309.500 C 267.437 309.225,267.651 309.567,267.805 310.260 C 268.032 311.287,268.260 311.501,269.036 311.416 C 269.853 311.326,269.954 311.445,269.750 312.256 C 269.561 313.011,269.673 313.200,270.308 313.200 C 270.745 313.200,271.349 313.505,271.651 313.877 C 272.024 314.337,272.040 314.457,271.700 314.253 C 271.413 314.081,271.200 314.153,271.200 314.423 C 271.200 314.696,271.535 314.806,272.000 314.684 C 272.440 314.569,272.822 314.638,272.850 314.837 C 272.877 315.037,272.923 315.425,272.951 315.700 C 272.985 316.033,273.735 316.200,275.201 316.200 C 277.177 316.200,277.413 316.291,277.528 317.100 C 277.647 317.942,277.849 318.000,280.651 318.000 C 282.547 318.000,283.556 317.853,283.400 317.600 C 283.264 317.380,283.343 317.200,283.576 317.200 C 283.809 317.200,284.000 317.380,284.000 317.600 C 284.000 317.820,284.551 318.000,285.224 318.000 C 286.011 318.000,286.350 317.843,286.175 317.560 C 285.986 317.253,286.162 317.258,286.758 317.577 C 287.620 318.039,288.372 317.325,287.874 316.519 C 287.765 316.344,288.452 316.262,289.399 316.337 C 290.862 316.454,291.163 316.348,291.388 315.637 C 291.637 314.853,292.025 314.691,293.659 314.690 C 294.102 314.689,294.285 314.398,294.220 313.798 C 294.143 313.098,294.285 312.950,294.884 313.106 C 295.422 313.247,295.713 313.054,295.870 312.453 C 296.004 311.941,296.413 311.600,296.893 311.600 C 297.515 311.600,297.654 311.393,297.515 310.669 C 297.363 309.874,297.474 309.763,298.269 309.915 C 299.007 310.056,299.200 309.917,299.200 309.247 C 299.200 308.770,299.456 308.400,299.786 308.400 C 300.484 308.400,301.294 307.050,300.886 306.566 C 300.729 306.379,300.915 306.467,301.300 306.762 C 301.900 307.222,302.000 307.204,302.000 306.639 C 302.000 306.277,302.450 305.809,303.000 305.600 C 303.550 305.391,304.000 304.945,304.000 304.610 C 304.000 304.274,304.202 304.000,304.449 304.000 C 304.759 304.000,304.744 303.815,304.400 303.400 C 303.799 302.676,304.420 302.596,305.179 303.300 C 305.610 303.700,305.661 303.700,305.435 303.299 C 305.255 302.981,305.526 302.656,306.176 302.409 C 306.739 302.195,307.200 301.745,307.200 301.410 C 307.200 301.074,307.483 300.800,307.829 300.800 C 308.275 300.800,308.420 300.491,308.329 299.735 C 308.246 299.047,308.412 298.611,308.800 298.504 C 309.333 298.357,309.333 298.386,308.800 298.763 C 308.303 299.115,308.355 299.189,309.100 299.194 C 309.735 299.198,310.000 298.965,310.000 298.400 C 310.000 297.867,310.267 297.600,310.800 297.600 C 311.261 297.600,311.600 297.333,311.600 296.971 C 311.600 296.226,312.597 295.131,312.952 295.486 C 313.089 295.622,313.200 295.433,313.200 295.067 C 313.200 294.700,313.487 294.400,313.837 294.400 C 314.188 294.400,314.569 294.040,314.684 293.600 C 314.800 293.157,315.230 292.800,315.647 292.800 C 316.061 292.800,316.400 292.542,316.400 292.227 C 316.400 291.912,316.760 291.540,317.200 291.400 C 317.640 291.260,318.023 290.888,318.050 290.573 C 318.147 289.464,318.203 289.264,318.500 288.967 C 318.665 288.802,318.800 288.877,318.800 289.133 C 318.800 289.390,318.980 289.600,319.200 289.600 C 319.420 289.600,319.600 289.342,319.600 289.027 C 319.600 288.712,319.976 288.334,320.437 288.188 C 320.988 288.013,321.210 287.681,321.087 287.212 C 320.953 286.699,321.089 286.550,321.574 286.677 C 322.012 286.792,322.414 286.486,322.725 285.804 C 322.988 285.227,323.383 284.866,323.602 285.001 C 323.960 285.222,324.173 284.696,324.047 283.900 C 324.021 283.735,324.360 283.600,324.800 283.600 C 325.537 283.600,325.870 282.724,325.625 281.432 C 325.586 281.230,325.839 281.301,326.187 281.589 C 326.535 281.878,326.935 281.998,327.076 281.857 C 327.218 281.716,327.078 281.597,326.767 281.594 C 326.353 281.589,326.330 281.505,326.680 281.283 C 326.944 281.115,327.338 280.532,327.555 279.989 C 327.833 279.291,327.957 279.206,327.975 279.700 C 328.010 280.677,328.800 280.582,328.800 279.600 C 328.800 279.067,329.067 278.800,329.600 278.800 C 330.133 278.800,330.400 278.533,330.400 278.000 C 330.400 277.467,330.667 277.200,331.200 277.200 C 331.733 277.200,332.000 276.933,332.000 276.400 C 332.000 275.867,332.267 275.600,332.800 275.600 C 333.318 275.600,333.600 275.333,333.600 274.844 C 333.600 274.370,333.861 274.110,334.300 274.144 C 334.685 274.175,334.954 273.971,334.897 273.691 C 334.840 273.411,335.264 273.004,335.839 272.785 C 336.696 272.459,336.839 272.210,336.634 271.394 C 336.383 270.394,336.974 269.966,337.317 270.900 C 337.462 271.296,337.614 271.293,338.047 270.883 C 338.508 270.447,338.500 270.309,337.997 269.998 C 337.479 269.678,337.495 269.535,338.122 268.914 C 338.797 268.246,338.826 268.245,338.579 268.900 C 338.426 269.304,338.501 269.600,338.757 269.600 C 339.001 269.600,339.200 269.409,339.200 269.176 C 339.200 268.943,339.380 268.864,339.600 269.000 C 339.825 269.139,340.000 268.820,340.000 268.273 C 340.000 267.737,340.270 267.074,340.600 266.800 C 340.930 266.526,341.200 266.420,341.200 266.565 C 341.200 266.710,341.560 266.635,342.000 266.400 C 342.440 266.165,342.800 265.729,342.800 265.433 C 342.800 265.136,343.183 264.793,343.652 264.671 C 344.221 264.522,344.424 264.241,344.265 263.824 C 344.133 263.481,344.199 263.178,344.413 263.150 C 344.626 263.123,345.025 263.077,345.300 263.049 C 345.575 263.021,345.801 262.638,345.802 262.199 C 345.803 261.670,346.071 261.400,346.596 261.399 C 347.033 261.399,347.450 261.084,347.524 260.699 C 347.598 260.315,347.836 260.000,348.053 260.000 C 348.270 260.000,348.312 259.775,348.147 259.500 C 347.955 259.181,348.099 259.205,348.546 259.568 C 348.930 259.880,349.214 259.970,349.175 259.768 C 348.999 258.839,349.263 258.400,350.000 258.400 C 350.444 258.400,350.800 258.133,350.800 257.800 C 350.800 257.467,351.156 257.200,351.600 257.200 C 352.133 257.200,352.400 256.933,352.400 256.400 C 352.400 255.674,352.574 255.551,353.500 255.624 C 353.665 255.637,353.902 255.232,354.027 254.724 C 354.176 254.114,354.496 253.843,354.967 253.927 C 355.359 253.996,355.571 253.876,355.436 253.659 C 355.129 253.161,356.338 251.914,356.832 252.220 C 357.161 252.423,357.406 251.185,357.225 250.232 C 357.186 250.030,357.445 250.106,357.800 250.400 C 358.155 250.694,358.414 250.770,358.375 250.568 C 358.202 249.657,358.474 249.268,359.456 249.022 C 360.036 248.876,361.514 247.731,362.739 246.478 C 363.964 245.225,365.109 244.245,365.283 244.300 C 366.025 244.534,365.522 243.945,364.729 243.652 L 363.859 243.330 364.730 243.102 C 365.209 242.977,365.500 243.038,365.377 243.237 C 365.254 243.437,365.324 243.600,365.534 243.600 C 365.743 243.600,366.022 243.319,366.154 242.975 C 366.286 242.631,366.531 242.417,366.697 242.500 C 367.159 242.731,368.807 240.852,368.377 240.585 C 368.169 240.457,368.003 240.138,368.006 239.876 C 368.010 239.563,368.132 239.589,368.361 239.951 C 368.553 240.254,368.914 240.377,369.162 240.224 C 369.410 240.070,369.509 239.777,369.383 239.572 C 369.256 239.368,369.568 239.182,370.076 239.160 C 370.981 239.121,370.979 239.114,370.000 238.842 C 369.118 238.596,369.087 238.530,369.736 238.280 C 370.141 238.125,370.662 238.115,370.894 238.258 C 371.167 238.427,371.243 238.139,371.111 237.445 C 370.960 236.655,371.111 236.262,371.683 235.956 C 372.378 235.584,372.415 235.625,372.030 236.343 C 371.377 237.564,371.510 237.715,372.461 236.829 C 372.934 236.388,373.474 236.122,373.661 236.237 C 373.847 236.353,374.000 236.150,374.000 235.786 C 374.000 235.423,374.343 235.035,374.763 234.926 C 375.183 234.816,375.633 234.428,375.763 234.063 C 375.894 233.698,376.114 233.150,376.252 232.844 C 376.391 232.537,376.332 232.395,376.119 232.527 C 375.907 232.658,375.733 232.503,375.733 232.182 C 375.733 231.468,376.069 231.442,376.779 232.100 C 377.213 232.503,377.258 232.495,377.009 232.057 C 376.776 231.649,376.902 231.578,377.516 231.773 C 377.984 231.922,378.459 231.828,378.628 231.554 C 378.815 231.252,378.754 231.182,378.462 231.362 C 378.208 231.519,378.000 231.446,378.000 231.200 C 378.000 230.954,377.822 230.863,377.605 230.997 C 377.387 231.132,377.303 230.998,377.417 230.699 C 377.535 230.391,378.181 230.166,378.913 230.179 C 379.800 230.193,380.200 230.013,380.200 229.600 C 380.200 229.270,380.560 228.894,381.000 228.765 C 381.440 228.635,381.754 228.316,381.697 228.056 C 381.640 227.795,382.064 227.404,382.638 227.186 C 383.322 226.926,383.603 226.584,383.453 226.194 C 383.297 225.787,383.485 225.600,384.050 225.600 C 384.534 225.600,384.960 225.275,385.081 224.813 C 385.194 224.381,385.627 223.918,386.043 223.786 C 386.459 223.654,386.800 223.288,386.800 222.973 C 386.800 222.658,387.058 222.400,387.373 222.400 C 387.688 222.400,388.061 222.037,388.202 221.594 C 388.343 221.151,388.619 220.888,388.817 221.011 C 389.015 221.133,389.294 220.765,389.438 220.193 C 389.607 219.517,389.896 219.228,390.262 219.369 C 390.613 219.503,390.972 219.201,391.212 218.568 C 391.425 218.009,391.760 217.652,391.957 217.774 C 392.368 218.027,392.904 216.892,392.604 216.406 C 392.494 216.229,392.683 215.977,393.023 215.846 C 393.373 215.712,393.537 215.779,393.400 216.000 C 393.263 216.222,393.427 216.288,393.779 216.153 C 394.121 216.022,394.400 215.664,394.400 215.357 C 394.400 214.853,394.891 214.625,395.700 214.753 C 395.865 214.779,396.000 214.440,396.000 214.000 C 396.000 213.550,396.267 213.200,396.610 213.200 C 396.945 213.200,397.391 212.750,397.600 212.200 C 397.809 211.650,398.210 211.197,398.490 211.194 C 398.885 211.189,398.880 211.112,398.466 210.850 C 398.042 210.581,398.072 210.458,398.612 210.251 C 399.052 210.082,399.218 209.710,399.083 209.195 C 398.948 208.680,399.073 208.400,399.437 208.400 C 399.903 208.400,400.000 206.951,400.000 200.000 C 400.000 192.880,399.910 191.600,399.413 191.600 C 399.053 191.600,398.915 191.366,399.057 190.995 C 399.185 190.662,399.091 190.151,398.848 189.858 C 398.606 189.566,398.495 189.208,398.603 189.063 C 398.712 188.918,398.681 188.889,398.535 188.999 C 398.389 189.108,397.936 188.649,397.529 187.979 C 397.121 187.309,396.610 186.870,396.394 187.004 C 396.173 187.140,396.000 186.779,396.000 186.181 C 396.000 185.408,395.839 185.176,395.413 185.340 C 395.090 185.464,394.710 185.377,394.568 185.148 C 394.426 184.918,393.970 184.819,393.555 184.928 C 392.510 185.201,392.607 184.853,393.700 184.408 L 394.600 184.041 393.700 183.774 C 393.205 183.627,392.800 183.279,392.800 183.000 C 392.800 182.721,392.440 182.399,392.000 182.284 C 391.560 182.169,391.200 181.788,391.200 181.437 C 391.200 181.067,390.865 180.800,390.400 180.800 C 389.891 180.800,389.600 180.533,389.600 180.067 C 389.600 179.035,389.212 178.766,388.372 179.215 C 387.896 179.470,387.562 179.462,387.395 179.191 C 387.255 178.965,387.289 178.830,387.470 178.890 C 387.652 178.951,387.845 178.865,387.900 178.700 C 388.137 177.990,387.960 177.600,387.400 177.600 C 387.070 177.600,386.800 177.313,386.800 176.963 C 386.800 176.612,386.440 176.231,386.000 176.116 C 385.560 176.001,385.200 175.670,385.200 175.380 C 385.200 175.091,384.840 174.740,384.400 174.600 C 383.960 174.460,383.600 174.100,383.600 173.800 C 383.600 173.500,383.240 173.140,382.800 173.000 C 382.359 172.860,381.813 172.398,381.586 171.973 C 381.358 171.548,380.928 171.200,380.630 171.200 C 380.333 171.200,380.114 170.885,380.144 170.500 C 380.175 170.115,379.971 169.846,379.691 169.903 C 379.411 169.960,379.007 169.544,378.792 168.979 C 378.577 168.414,378.220 168.064,377.997 168.202 C 377.775 168.339,377.439 168.035,377.251 167.526 C 377.062 167.017,376.794 166.645,376.654 166.700 C 376.046 166.939,375.600 166.762,375.600 166.280 C 375.600 165.294,374.745 164.803,373.839 165.268 C 373.149 165.622,373.089 165.604,373.500 165.169 C 374.274 164.350,374.120 163.475,373.242 163.705 C 372.711 163.844,372.347 163.602,372.027 162.900 C 371.776 162.348,371.461 162.006,371.328 162.139 C 371.195 162.272,371.300 162.639,371.562 162.955 C 371.931 163.399,371.930 163.596,371.558 163.826 C 371.271 164.003,371.181 163.955,371.334 163.707 C 371.475 163.478,371.323 163.068,370.996 162.796 C 370.668 162.524,370.400 161.975,370.400 161.575 C 370.400 160.561,369.693 160.231,368.882 160.866 C 368.279 161.338,368.259 161.324,368.707 160.751 C 369.314 159.974,369.004 158.933,368.166 158.933 C 367.830 158.933,367.656 159.168,367.770 159.467 C 368.086 160.290,367.453 160.097,366.892 159.199 C 366.617 158.758,366.528 158.443,366.696 158.499 C 367.024 158.608,367.200 158.273,367.200 157.538 C 367.200 157.278,366.809 157.410,366.307 157.838 C 365.816 158.257,365.621 158.329,365.874 157.999 C 366.225 157.540,366.203 157.161,365.781 156.399 C 365.477 155.849,365.222 155.545,365.214 155.721 C 365.206 155.898,363.666 154.495,361.791 152.603 C 359.917 150.711,358.219 149.265,358.019 149.388 C 357.645 149.619,357.031 148.912,356.988 148.200 C 356.975 147.980,356.740 147.847,356.466 147.905 C 355.566 148.096,354.215 147.162,354.835 146.779 C 355.270 146.509,355.241 146.391,354.689 146.179 C 354.310 146.033,354.000 145.652,354.000 145.332 C 354.000 144.958,353.679 144.794,353.100 144.875 C 352.357 144.978,352.223 144.835,352.333 144.056 C 352.411 143.495,352.301 143.214,352.060 143.363 C 351.837 143.500,351.540 143.427,351.400 143.200 C 351.260 142.973,350.996 142.879,350.814 142.991 C 350.633 143.104,350.377 142.917,350.246 142.577 C 350.111 142.223,350.178 142.063,350.405 142.203 C 350.622 142.337,350.800 142.257,350.800 142.024 C 350.800 141.791,350.440 141.600,350.000 141.600 C 349.461 141.600,349.200 141.333,349.200 140.782 C 349.200 140.226,348.977 140.002,348.500 140.082 C 348.033 140.161,347.758 139.901,347.672 139.300 C 347.590 138.722,347.268 138.400,346.772 138.400 C 346.252 138.400,346.000 138.123,346.000 137.553 C 346.000 136.904,345.814 136.755,345.200 136.916 C 344.556 137.084,344.400 136.928,344.400 136.116 C 344.400 135.304,344.244 135.148,343.600 135.316 C 342.964 135.482,342.800 135.328,342.800 134.563 C 342.800 134.010,342.564 133.600,342.247 133.600 C 341.942 133.600,341.599 133.239,341.484 132.798 C 341.344 132.264,341.062 132.078,340.637 132.241 C 340.182 132.416,340.000 132.251,340.000 131.666 C 340.000 130.633,339.223 130.120,338.761 130.849 C 338.513 131.241,338.410 131.082,338.406 130.300 C 338.403 129.695,338.202 129.200,337.960 129.200 C 337.447 129.200,335.396 127.087,335.060 126.213 C 334.929 125.870,334.567 125.715,334.215 125.850 C 333.782 126.016,333.600 125.837,333.600 125.243 C 333.600 124.667,333.347 124.400,332.800 124.400 C 332.267 124.400,332.000 124.133,332.000 123.600 C 332.000 123.102,331.735 122.802,331.300 122.806 C 330.755 122.811,330.720 122.888,331.143 123.156 C 331.476 123.368,331.531 123.595,331.285 123.748 C 330.838 124.024,330.400 123.142,330.400 121.967 C 330.400 121.501,330.126 121.202,329.700 121.206 C 329.164 121.211,329.125 121.291,329.534 121.550 C 329.964 121.823,329.945 121.935,329.438 122.130 C 329.093 122.263,328.829 122.243,328.852 122.086 C 328.979 121.234,328.755 120.381,328.453 120.567 C 328.013 120.839,326.706 119.427,327.066 119.068 C 327.213 118.920,327.113 118.800,326.843 118.800 C 326.573 118.800,326.458 118.629,326.587 118.421 C 326.716 118.212,326.485 118.107,326.073 118.186 C 325.461 118.304,325.360 118.142,325.521 117.300 C 325.680 116.469,325.591 116.318,325.063 116.520 C 324.595 116.700,324.339 116.494,324.164 115.799 C 324.030 115.264,323.728 114.866,323.493 114.913 C 323.258 114.961,322.855 114.596,322.597 114.102 C 322.339 113.609,322.003 113.331,321.848 113.485 C 321.694 113.639,321.466 113.374,321.341 112.896 C 321.216 112.418,320.773 111.918,320.357 111.786 C 319.941 111.654,319.600 111.288,319.600 110.973 C 319.600 110.658,319.420 110.400,319.200 110.400 C 318.980 110.400,318.800 110.580,318.800 110.800 C 318.800 111.020,318.640 111.200,318.444 111.200 C 318.249 111.200,318.097 110.975,318.107 110.700 C 318.164 109.179,317.951 108.800,317.037 108.800 C 316.272 108.800,316.118 108.636,316.284 108.000 C 316.445 107.386,316.296 107.200,315.647 107.200 C 315.067 107.200,314.800 106.948,314.800 106.400 C 314.800 105.867,314.533 105.600,314.000 105.600 C 313.467 105.600,313.200 105.333,313.200 104.800 C 313.200 104.267,312.933 104.000,312.400 104.000 C 311.867 104.000,311.600 103.733,311.600 103.200 C 311.600 102.667,311.333 102.400,310.800 102.400 C 310.267 102.400,310.000 102.133,310.000 101.600 C 310.000 100.715,309.378 100.515,309.071 101.300 C 308.963 101.575,308.749 101.231,308.594 100.535 C 308.421 99.755,308.009 99.191,307.517 99.062 C 307.078 98.948,306.833 98.670,306.973 98.444 C 307.112 98.219,306.455 97.674,305.513 97.232 C 304.571 96.791,304.053 96.423,304.362 96.415 C 304.699 96.406,304.474 96.013,303.802 95.436 C 303.185 94.905,302.392 94.562,302.040 94.673 C 301.568 94.822,301.534 94.779,301.910 94.508 C 302.428 94.135,300.452 91.600,299.643 91.600 C 299.451 91.600,299.199 91.240,299.084 90.800 C 298.969 90.360,298.609 90.000,298.284 90.000 C 297.959 90.000,297.599 89.640,297.484 89.200 C 297.369 88.760,296.988 88.400,296.637 88.400 C 296.267 88.400,296.000 88.065,296.000 87.600 C 296.000 87.067,295.733 86.800,295.200 86.800 C 294.484 86.800,294.213 86.384,294.353 85.500 C 294.379 85.335,293.782 85.200,293.027 85.200 C 292.005 85.200,291.589 84.995,291.400 84.400 C 291.260 83.960,290.843 83.603,290.473 83.606 C 289.892 83.611,289.882 83.665,290.400 84.000 C 290.913 84.331,290.898 84.389,290.300 84.394 C 289.915 84.397,289.600 84.220,289.600 84.000 C 289.600 83.780,289.252 83.600,288.827 83.600 C 288.402 83.600,287.950 83.273,287.823 82.873 C 287.486 81.809,282.148 81.661,281.874 82.707 C 281.708 83.343,281.689 83.341,281.646 82.682 C 281.573 81.544,278.044 81.833,277.595 83.013 M375.200 166.485 C 375.200 166.927,374.096 166.879,373.815 166.424 C 373.687 166.218,373.947 166.076,374.391 166.109 C 374.836 166.143,375.200 166.312,375.200 166.485 M133.830 207.322 C 133.964 208.238,133.722 208.175,133.175 207.154 C 132.823 206.495,132.834 206.345,133.226 206.475 C 133.503 206.568,133.775 206.949,133.830 207.322 M139.200 213.776 C 139.200 214.046,138.969 214.267,138.686 214.267 C 138.403 214.267,138.171 213.957,138.171 213.579 C 138.171 213.183,138.390 212.975,138.686 213.088 C 138.969 213.197,139.200 213.506,139.200 213.776 M275.200 314.876 C 275.200 315.361,274.493 315.611,273.836 315.359 C 272.882 314.992,273.070 314.600,274.200 314.600 C 274.750 314.600,275.200 314.724,275.200 314.876 M9.120 378.880 C 9.384 379.144,9.600 379.498,9.600 379.667 C 9.600 380.165,8.482 379.590,8.243 378.969 C 7.977 378.275,8.465 378.225,9.120 378.880 M217.242 382.118 C 216.728 382.632,216.207 382.235,216.588 381.620 C 216.735 381.382,217.039 381.300,217.262 381.439 C 217.536 381.607,217.529 381.831,217.242 382.118 " stroke="none" fill="#cf3248" fill-rule="evenodd"></path></g></svg>