<svg id="svg" version="1.1" xmlns="http://www.w3.org/2000/svg" xmlns:xlink="http://www.w3.org/1999/xlink" width="400" height="400" viewBox="0, 0, 400,400"><g id="svgg"><path id="path0" d="M194.500 4.699 L 188.800 4.822 188.800 6.735 C 188.800 9.864,188.649 9.817,198.266 9.678 L 206.731 9.556 207.008 7.541 C 207.412 4.607,206.662 4.436,194.500 4.699 M234.199 8.072 C 233.603 9.672,233.323 12.470,233.746 12.601 C 233.996 12.679,236.090 13.126,238.400 13.594 C 240.710 14.063,244.281 14.886,246.336 15.423 C 248.390 15.960,250.207 16.400,250.372 16.400 C 250.753 16.400,251.807 12.074,251.500 11.767 C 251.190 11.456,246.401 10.233,240.600 8.982 C 237.960 8.413,235.484 7.857,235.098 7.746 C 234.712 7.635,234.308 7.782,234.199 8.072 M157.400 9.221 C 147.813 11.536,144.400 12.550,144.400 13.086 C 144.400 14.492,145.345 17.200,145.835 17.200 C 146.132 17.200,148.316 16.672,150.687 16.026 C 153.059 15.381,156.748 14.468,158.884 13.997 L 162.768 13.142 162.518 11.871 C 161.767 8.049,161.922 8.130,157.400 9.221 M276.487 23.078 C 275.743 24.615,275.549 25.373,275.874 25.486 C 276.221 25.605,289.173 32.022,291.252 33.104 C 291.680 33.326,293.678 29.581,293.450 28.985 C 293.243 28.446,286.611 24.956,280.487 22.163 L 277.575 20.834 276.487 23.078 M110.720 26.101 C 102.302 30.407,102.275 30.434,103.745 32.942 L 104.823 34.782 112.312 30.931 C 121.413 26.249,120.746 26.846,119.604 24.408 C 118.429 21.900,119.227 21.748,110.720 26.101 M372.200 113.867 C 371.100 114.434,370.154 114.937,370.097 114.985 C 370.041 115.033,371.004 117.211,372.237 119.825 C 373.470 122.439,375.015 125.933,375.669 127.589 C 376.324 129.245,376.994 130.739,377.158 130.908 C 377.508 131.270,381.600 129.652,381.600 129.151 C 381.600 128.288,374.689 112.766,374.328 112.819 C 374.257 112.829,373.300 113.301,372.200 113.867 M21.694 119.500 C 19.653 123.902,16.254 132.387,16.451 132.584 C 16.533 132.666,17.549 133.107,18.710 133.564 L 20.819 134.396 21.196 133.498 C 21.403 133.004,22.851 129.630,24.412 126.000 C 25.974 122.370,27.348 119.097,27.466 118.727 C 27.643 118.169,24.465 116.000,23.471 116.000 C 23.386 116.000,22.586 117.575,21.694 119.500 M386.900 156.105 C 385.028 156.555,384.963 156.737,385.654 159.600 C 385.892 160.590,386.577 164.190,387.176 167.600 L 388.264 173.800 389.832 173.709 C 393.586 173.492,393.545 173.853,391.173 161.880 C 390.528 158.624,390.000 155.879,390.000 155.780 C 390.000 155.517,388.836 155.639,386.900 156.105 M8.610 159.300 C 7.824 161.681,5.605 176.077,5.962 176.485 C 6.099 176.642,7.212 176.888,8.435 177.032 L 10.659 177.294 11.356 172.363 C 11.740 169.652,12.389 165.806,12.800 163.817 C 13.638 159.751,13.683 159.874,11.123 159.254 C 8.798 158.691,8.811 158.691,8.610 159.300 M389.996 203.300 C 389.994 204.895,389.806 208.793,389.579 211.963 C 389.115 218.429,389.040 218.213,391.879 218.527 L 393.957 218.757 394.195 217.079 C 394.534 214.684,395.100 201.498,394.890 200.900 C 394.776 200.576,393.883 200.400,392.357 200.400 L 390.000 200.400 389.996 203.300 M4.562 209.279 C 4.855 214.908,5.512 221.645,5.795 221.928 C 5.887 222.021,6.984 221.969,8.230 221.814 L 10.497 221.530 10.198 218.265 C 10.033 216.469,9.787 212.570,9.649 209.600 L 9.400 204.200 6.842 204.079 L 4.285 203.959 4.562 209.279 M342.182 325.900 C 340.668 327.605,337.991 330.490,336.232 332.312 L 333.035 335.624 334.842 337.431 L 336.649 339.238 340.024 335.715 C 341.881 333.777,344.658 330.775,346.195 329.044 L 348.990 325.898 347.195 324.350 C 344.946 322.410,345.408 322.268,342.182 325.900 M54.430 326.791 L 52.661 328.342 53.694 329.671 C 54.262 330.402,57.072 333.430,59.938 336.400 L 65.149 341.800 66.774 340.219 C 68.921 338.131,69.198 338.666,62.280 331.520 L 56.200 325.240 54.430 326.791 M311.835 353.544 C 311.613 353.903,300.803 361.284,299.000 362.307 C 297.973 362.890,299.805 366.617,301.098 366.577 C 301.792 366.556,312.010 359.949,314.600 357.847 L 315.800 356.873 314.582 355.139 C 313.377 353.421,312.298 352.795,311.835 353.544 M87.635 356.879 C 86.956 357.802,86.400 358.680,86.400 358.829 C 86.400 359.509,101.113 368.901,101.654 368.567 C 101.905 368.412,104.000 364.861,104.000 364.591 C 104.000 364.532,102.605 363.621,100.900 362.567 C 99.195 361.513,95.961 359.424,93.713 357.925 C 88.887 354.707,89.193 354.760,87.635 356.879 M271.624 376.082 C 270.648 376.530,267.228 377.851,264.024 379.017 C 260.821 380.184,258.200 381.287,258.200 381.469 C 258.200 382.510,259.377 385.600,259.773 385.600 C 260.972 385.600,275.331 380.301,276.172 379.549 C 276.723 379.056,274.806 375.192,274.032 375.234 C 273.684 375.252,272.601 375.634,271.624 376.082 M127.000 378.100 C 126.622 379.035,126.226 380.016,126.121 380.280 C 125.882 380.881,127.265 381.480,135.761 384.457 C 143.466 387.157,143.149 387.145,143.856 384.779 C 144.635 382.172,144.592 382.078,142.300 381.410 C 141.145 381.073,137.505 379.808,134.210 378.599 C 127.061 375.974,127.837 376.028,127.000 378.100 M193.300 390.276 C 193.685 390.376,194.315 390.376,194.700 390.276 C 195.085 390.175,194.770 390.093,194.000 390.093 C 193.230 390.093,192.915 390.175,193.300 390.276 M203.900 390.282 C 204.395 390.378,205.205 390.378,205.700 390.282 C 206.195 390.187,205.790 390.109,204.800 390.109 C 203.810 390.109,203.405 390.187,203.900 390.282 " stroke="none" fill="#cf3248" fill-rule="evenodd"></path><path id="path1" d="M183.800 0.436 C 70.035 9.641,-12.697 111.687,1.414 225.400 C 12.577 315.360,84.574 387.359,174.600 398.590 C 304.846 414.838,414.758 304.924,398.586 174.600 C 385.484 69.011,290.288 -8.181,183.800 0.436 M204.500 4.661 L 207.200 4.916 207.200 7.034 C 207.200 9.771,207.803 9.601,197.726 9.708 L 189.000 9.800 188.881 7.316 L 188.763 4.832 192.281 4.698 C 199.605 4.420,201.878 4.413,204.500 4.661 M223.000 6.240 C 229.740 6.993,229.620 6.950,229.359 8.522 C 228.832 11.702,228.833 11.701,227.682 11.463 C 227.087 11.340,223.450 10.939,219.600 10.570 C 210.866 9.735,211.600 10.000,211.600 7.679 C 211.600 4.781,210.826 4.879,223.000 6.240 M184.321 7.900 C 184.387 9.055,184.297 10.002,184.121 10.004 C 183.226 10.015,173.083 11.243,171.000 11.592 C 167.290 12.215,167.312 12.224,166.862 10.113 C 166.386 7.881,166.445 7.741,168.018 7.396 C 170.790 6.787,180.348 5.664,182.200 5.729 L 184.200 5.800 184.321 7.900 M244.000 9.688 C 247.850 10.565,251.212 11.455,251.471 11.666 C 251.883 12.002,251.178 15.714,250.582 16.343 C 250.508 16.422,247.781 15.850,244.523 15.072 C 241.266 14.293,237.430 13.413,236.000 13.115 L 233.400 12.574 233.521 11.058 C 233.587 10.224,233.807 9.108,234.008 8.578 C 234.440 7.444,233.868 7.380,244.000 9.688 M162.328 10.759 C 162.956 13.329,162.951 13.334,159.228 14.024 C 157.782 14.291,154.377 15.116,151.660 15.855 C 145.207 17.612,145.426 17.636,144.706 15.100 C 143.955 12.459,143.788 12.656,147.696 11.582 C 160.963 7.938,161.629 7.900,162.328 10.759 M261.817 14.955 C 273.670 18.968,273.425 18.807,272.195 21.751 C 271.472 23.481,271.597 23.468,268.148 22.150 C 266.636 21.572,263.150 20.331,260.400 19.393 C 254.904 17.517,254.756 17.347,255.949 14.300 C 256.472 12.965,255.678 12.877,261.817 14.955 M140.220 15.787 C 141.298 18.366,141.150 18.567,137.100 20.001 C 135.065 20.722,131.641 22.007,129.492 22.856 C 124.614 24.783,124.613 24.783,123.772 22.581 C 122.838 20.138,122.287 20.494,133.400 16.368 C 139.658 14.044,139.498 14.058,140.220 15.787 M214.200 14.814 C 340.750 25.512,419.944 154.770,371.407 271.400 C 329.888 371.166,211.227 414.660,115.400 365.236 C 5.747 308.682,-19.683 164.664,63.930 73.737 C 101.727 32.633,159.058 10.153,214.200 14.814 M286.700 25.080 C 291.120 27.277,293.600 28.728,293.600 29.119 C 293.600 29.898,291.628 33.287,291.270 33.123 C 290.283 32.672,275.768 25.445,275.637 25.339 C 275.456 25.193,276.755 22.065,277.307 21.322 C 277.773 20.693,278.275 20.894,286.700 25.080 M119.614 24.233 C 120.718 26.808,120.654 26.988,118.300 27.965 C 117.145 28.445,113.708 30.179,110.663 31.819 C 104.507 35.134,104.859 35.100,103.421 32.527 C 102.133 30.222,101.612 30.692,110.458 26.175 C 119.038 21.795,118.608 21.886,119.614 24.233 M301.093 33.240 C 306.508 36.519,312.387 40.612,312.394 41.106 C 312.403 41.875,310.665 44.389,310.120 44.395 C 309.644 44.400,298.221 37.121,296.513 35.725 L 295.627 35.000 296.654 33.300 C 297.907 31.226,297.772 31.228,301.093 33.240 M99.626 34.900 C 100.162 35.835,100.600 36.714,100.600 36.853 C 100.600 37.145,86.818 46.400,86.384 46.400 C 85.940 46.400,84.000 43.723,84.000 43.111 C 84.000 42.624,97.655 33.200,98.360 33.200 C 98.521 33.200,99.091 33.965,99.626 34.900 M321.841 47.507 C 324.504 49.648,327.640 52.231,328.811 53.247 L 330.940 55.095 329.422 56.947 C 328.587 57.966,327.740 58.800,327.541 58.800 C 327.233 58.800,321.782 54.368,315.300 48.848 L 313.601 47.400 315.039 45.500 C 316.830 43.133,316.155 42.934,321.841 47.507 M82.788 49.407 C 82.795 49.631,81.109 51.208,79.043 52.913 C 76.976 54.617,73.996 57.205,72.419 58.665 L 69.552 61.319 67.776 59.576 C 66.799 58.618,66.000 57.709,66.000 57.557 C 66.000 57.246,73.745 50.362,77.385 47.438 L 79.769 45.522 81.273 47.261 C 82.100 48.217,82.781 49.183,82.788 49.407 M334.764 59.181 C 335.156 59.391,337.957 62.214,340.990 65.455 L 346.504 71.347 344.822 72.916 L 343.141 74.484 337.271 68.386 C 330.386 61.234,330.768 61.884,332.434 60.165 C 333.931 58.621,333.812 58.671,334.764 59.181 M64.281 62.478 C 65.006 63.182,65.600 63.910,65.600 64.097 C 65.600 64.480,54.360 76.803,54.019 76.794 C 53.898 76.791,53.085 76.183,52.211 75.444 L 50.622 74.100 52.201 72.150 C 53.972 69.963,62.410 61.200,62.746 61.200 C 62.865 61.200,63.555 61.775,64.281 62.478 M353.091 78.900 C 361.162 89.246,361.188 89.301,358.657 90.900 C 356.386 92.335,356.453 92.355,354.635 89.737 C 353.774 88.497,351.479 85.448,349.535 82.960 C 345.419 77.694,345.521 78.068,347.700 76.241 C 349.882 74.412,349.407 74.178,353.091 78.900 M49.527 78.886 C 51.651 80.518,51.635 80.698,49.064 83.921 C 47.889 85.395,45.622 88.445,44.026 90.700 C 42.430 92.955,40.949 94.800,40.734 94.800 C 40.283 94.800,36.800 92.462,36.800 92.159 C 36.800 91.440,47.010 77.600,47.540 77.600 C 47.713 77.600,48.607 78.179,49.527 78.886 M365.338 96.900 C 367.560 100.359,372.000 108.081,372.000 108.487 C 372.000 108.717,368.643 110.800,368.274 110.800 C 368.173 110.800,367.150 109.135,366.002 107.100 C 364.853 105.065,362.943 101.851,361.757 99.957 C 359.191 95.861,359.197 95.903,361.093 94.614 C 363.099 93.251,362.938 93.165,365.338 96.900 M36.409 97.453 C 38.358 98.743,38.358 98.744,36.463 101.757 C 35.617 103.101,33.788 106.315,32.397 108.900 C 29.659 113.990,29.756 113.903,27.880 112.950 C 25.150 111.564,24.901 112.407,31.322 101.300 C 34.488 95.824,34.235 96.015,36.409 97.453 M375.760 115.431 C 377.746 119.485,381.600 128.469,381.600 129.043 C 381.600 129.544,380.241 130.289,378.071 130.978 C 377.366 131.201,377.105 131.012,376.621 129.925 C 375.177 126.683,370.324 115.759,370.157 115.375 C 369.955 114.911,373.552 112.746,374.200 112.941 C 374.420 113.008,375.122 114.128,375.760 115.431 M25.789 116.880 C 28.036 117.971,28.112 117.318,24.850 124.959 C 23.338 128.501,21.966 131.850,21.801 132.400 C 21.249 134.244,20.942 134.372,18.738 133.667 C 17.619 133.309,16.624 132.807,16.526 132.551 C 16.194 131.685,22.872 116.000,23.573 116.000 C 23.796 116.000,24.793 116.396,25.789 116.880 M384.328 136.831 C 385.424 139.865,388.400 149.917,388.400 150.585 C 388.400 151.038,384.524 152.257,384.179 151.912 C 384.083 151.817,383.294 149.322,382.425 146.369 C 381.557 143.416,380.475 139.937,380.023 138.637 C 378.919 135.469,378.944 135.357,380.900 134.667 C 383.201 133.855,383.269 133.898,384.328 136.831 M17.408 138.004 C 18.871 138.631,19.225 138.958,19.020 139.492 C 18.359 141.215,15.639 150.438,15.178 152.518 C 14.896 153.793,14.506 154.934,14.313 155.054 C 13.862 155.333,10.000 154.415,10.000 154.028 C 10.000 152.432,14.706 137.200,15.200 137.200 C 15.383 137.200,16.377 137.562,17.408 138.004 M390.549 158.300 C 391.756 163.615,393.210 172.950,392.882 173.278 C 392.698 173.462,391.575 173.655,390.386 173.706 L 388.224 173.800 387.708 170.800 C 387.424 169.150,386.743 165.540,386.196 162.778 C 384.921 156.348,384.905 156.558,386.700 156.081 C 389.772 155.265,389.873 155.324,390.549 158.300 M12.700 159.646 C 13.195 159.830,13.600 160.063,13.600 160.164 C 13.600 160.265,13.322 161.664,12.982 163.274 C 12.431 165.885,10.809 176.059,10.803 176.950 C 10.799 177.401,6.490 177.050,5.998 176.558 C 5.510 176.070,7.920 160.339,8.674 159.088 C 8.872 158.759,11.170 159.078,12.700 159.646 M393.649 179.570 C 394.090 181.741,394.908 194.742,394.646 195.425 C 394.465 195.896,393.911 196.013,392.304 195.921 L 390.200 195.800 389.954 191.200 C 389.819 188.670,389.572 184.768,389.405 182.529 L 389.101 178.458 390.451 178.286 C 392.990 177.963,393.352 178.108,393.649 179.570 M9.752 183.400 C 9.726 184.280,9.563 188.195,9.390 192.100 L 9.075 199.200 6.961 199.200 C 4.202 199.200,4.313 199.657,4.813 190.343 C 5.320 180.905,5.110 181.528,7.736 181.680 L 9.800 181.800 9.752 183.400 M394.921 203.400 C 394.477 219.143,394.529 218.916,391.429 218.552 L 389.120 218.280 389.356 214.040 C 389.485 211.708,389.705 207.677,389.845 205.082 L 390.098 200.364 392.549 200.482 L 395.000 200.600 394.921 203.400 M9.644 208.600 C 9.778 211.240,10.024 215.218,10.191 217.441 C 10.533 221.994,10.541 221.982,7.118 221.995 C 5.362 222.001,5.405 222.145,4.797 214.242 C 3.985 203.689,4.009 203.591,7.400 203.722 L 9.400 203.800 9.644 208.600 M392.500 223.196 C 393.461 223.202,393.414 224.460,392.185 231.767 C 390.622 241.053,390.770 240.610,389.258 240.539 C 386.568 240.413,385.898 240.061,386.182 238.928 C 386.462 237.816,388.139 227.870,388.590 224.653 L 388.863 222.706 390.332 222.948 C 391.139 223.082,392.115 223.193,392.500 223.196 M11.316 228.433 C 11.490 229.625,12.174 233.371,12.837 236.758 C 14.162 243.523,14.169 243.482,11.513 243.847 L 9.658 244.101 9.245 242.550 C 8.835 241.012,7.119 231.752,6.642 228.508 C 6.374 226.685,6.345 226.711,9.200 226.269 C 10.836 226.016,10.986 226.170,11.316 228.433 M388.674 245.228 C 389.539 245.557,389.628 245.767,389.386 246.902 C 388.887 249.248,385.675 260.246,385.058 261.723 L 384.454 263.169 382.327 262.447 C 379.687 261.550,379.637 261.307,381.149 256.693 C 381.815 254.662,382.839 251.200,383.424 249.000 C 384.010 246.800,384.580 244.849,384.691 244.664 C 384.905 244.305,387.044 244.608,388.674 245.228 M15.995 249.300 C 16.229 250.235,17.383 254.012,18.559 257.693 C 20.895 265.003,20.919 264.631,18.045 265.716 C 15.751 266.583,15.880 266.732,14.048 261.087 C 10.128 249.007,10.112 248.840,12.800 248.072 C 15.278 247.364,15.535 247.463,15.995 249.300 M380.440 266.458 C 383.230 267.398,383.346 266.658,378.703 277.541 C 375.969 283.947,375.930 283.988,373.639 282.820 C 371.640 281.800,371.640 282.053,373.640 277.518 C 375.049 274.323,376.755 270.200,378.032 266.900 C 378.432 265.866,378.594 265.836,380.440 266.458 M23.353 272.105 C 23.988 273.697,25.473 277.051,26.653 279.558 C 27.834 282.066,28.800 284.325,28.800 284.579 C 28.800 284.997,25.246 286.998,24.999 286.718 C 24.267 285.892,18.642 273.305,18.178 271.455 C 17.975 270.648,18.165 270.416,19.470 269.875 C 21.918 268.861,22.103 268.967,23.353 272.105 M372.162 287.041 L 374.026 288.083 371.772 292.340 C 369.406 296.812,365.204 304.000,364.957 304.000 C 364.520 304.000,360.800 301.476,360.800 301.180 C 360.800 300.986,361.756 299.247,362.925 297.314 C 364.093 295.381,365.995 292.045,367.152 289.900 C 369.478 285.586,369.518 285.563,372.162 287.041 M33.416 292.300 C 34.455 294.225,36.452 297.629,37.853 299.864 C 40.894 304.714,40.832 304.039,38.373 305.617 C 36.644 306.727,36.267 306.836,35.802 306.359 C 35.198 305.738,30.559 298.086,28.259 293.916 L 26.779 291.232 27.689 290.660 C 28.961 289.860,30.948 288.835,31.264 288.816 C 31.409 288.807,32.378 290.375,33.416 292.300 M360.804 306.747 L 362.177 307.893 361.032 309.647 C 359.333 312.247,351.995 322.000,351.738 322.000 C 351.306 322.000,348.400 319.528,348.400 319.160 C 348.400 318.955,349.435 317.477,350.700 315.876 C 351.965 314.274,354.161 311.306,355.579 309.282 C 358.408 305.244,358.785 305.061,360.804 306.747 M45.413 311.687 C 46.708 313.495,48.999 316.510,50.506 318.387 L 53.246 321.800 51.829 323.100 C 49.603 325.142,48.789 324.445,41.439 314.202 C 38.782 310.498,38.812 310.692,40.693 309.414 C 42.768 308.004,42.781 308.011,45.413 311.687 M347.238 324.345 L 348.979 325.890 345.519 329.845 C 343.616 332.020,340.814 335.027,339.292 336.527 L 336.526 339.254 335.254 338.184 C 332.681 336.019,332.588 336.237,339.073 329.201 C 345.834 321.866,345.002 322.361,347.238 324.345 M59.247 328.300 C 60.863 330.005,63.584 332.810,65.293 334.532 C 68.909 338.178,68.902 338.153,66.761 340.219 L 65.123 341.800 59.512 336.000 C 51.950 328.183,52.217 328.666,54.421 326.762 C 55.399 325.916,56.224 325.219,56.253 325.212 C 56.283 325.205,57.630 326.595,59.247 328.300 M331.559 340.614 C 333.254 342.545,333.532 342.130,326.500 348.175 C 319.720 354.003,319.457 354.136,318.103 352.418 C 316.507 350.394,316.514 350.380,321.888 345.916 C 324.700 343.581,327.529 341.114,328.175 340.435 C 329.668 338.865,330.041 338.885,331.559 340.614 M75.332 344.128 C 76.926 345.518,79.664 347.787,81.415 349.169 C 83.167 350.552,84.764 351.837,84.965 352.026 C 85.445 352.478,83.283 355.600,82.490 355.600 C 81.548 355.600,69.200 345.476,69.200 344.705 C 69.200 344.086,71.342 341.661,71.917 341.629 C 72.201 341.613,73.738 342.738,75.332 344.128 M314.436 354.845 C 316.156 357.017,316.228 356.931,308.244 362.300 C 300.606 367.436,300.775 367.383,299.417 365.065 C 298.025 362.690,297.989 362.762,301.700 360.471 C 303.515 359.350,306.620 357.266,308.600 355.838 C 312.886 352.747,312.788 352.764,314.436 354.845 M94.994 358.700 C 97.917 360.625,101.156 362.701,102.192 363.313 C 104.245 364.526,104.251 364.585,102.603 367.195 L 101.558 368.851 99.679 367.774 C 96.109 365.727,86.400 359.215,86.400 358.868 C 86.400 358.272,88.781 355.200,89.243 355.200 C 89.484 355.200,92.072 356.775,94.994 358.700 M295.562 367.411 C 296.754 369.657,297.236 369.240,288.200 373.782 C 280.090 377.859,280.051 377.859,279.110 373.716 C 279.048 373.445,281.985 371.720,285.800 369.787 C 289.540 367.892,292.771 366.174,292.980 365.971 C 293.781 365.189,294.637 365.667,295.562 367.411 M115.684 370.827 C 123.546 374.724,123.531 374.711,122.620 376.891 C 121.722 379.039,121.911 379.079,113.653 375.006 C 105.434 370.951,105.569 371.076,106.874 368.754 C 107.976 366.793,107.161 366.601,115.684 370.827 M275.594 377.079 C 276.695 379.569,276.671 379.600,272.345 381.303 C 259.818 386.235,259.493 386.288,258.588 383.564 C 257.754 381.053,257.596 381.200,263.294 379.201 C 265.876 378.296,269.206 377.039,270.694 376.409 C 274.397 374.841,274.617 374.871,275.594 377.079 M133.735 378.348 C 136.631 379.419,140.231 380.699,141.736 381.192 L 144.472 382.089 144.210 383.487 C 143.455 387.511,143.905 387.492,133.930 383.920 C 125.362 380.852,125.679 381.094,126.806 378.474 C 127.884 375.968,127.328 375.978,133.735 378.348 M254.039 383.900 C 255.251 387.079,255.352 386.959,250.339 388.318 C 237.862 391.700,237.512 391.710,237.029 388.691 C 236.705 386.663,236.329 386.892,242.147 385.581 C 244.889 384.964,248.362 384.100,249.866 383.661 C 253.460 382.613,253.550 382.618,254.039 383.900 M156.323 385.414 C 159.471 386.153,162.869 386.881,163.873 387.032 L 165.699 387.306 165.460 389.322 C 165.132 392.090,165.173 392.078,160.000 390.983 C 147.528 388.344,147.240 388.193,148.575 384.997 C 149.058 383.842,149.351 383.574,149.898 383.791 C 150.284 383.944,153.176 384.675,156.323 385.414 M232.568 388.800 C 233.369 392.944,233.815 392.427,228.775 393.193 C 223.370 394.014,215.412 394.772,215.145 394.491 C 214.993 394.331,214.744 393.179,214.592 391.931 L 214.316 389.662 216.058 389.440 C 217.016 389.318,220.320 388.922,223.400 388.561 C 226.480 388.200,229.075 387.836,229.167 387.752 C 230.016 386.977,232.355 387.697,232.568 388.800 M181.200 389.157 L 187.800 389.827 187.921 392.376 L 188.041 394.924 183.914 394.672 C 179.326 394.391,170.485 393.300,169.908 392.943 C 169.552 392.723,169.862 388.985,170.297 388.255 C 170.410 388.066,171.424 388.040,172.551 388.198 C 173.678 388.356,177.570 388.788,181.200 389.157 M210.217 390.027 C 210.362 390.262,210.575 391.494,210.690 392.765 L 210.900 395.076 208.391 395.338 C 204.820 395.711,193.100 395.651,192.478 395.257 C 192.120 395.030,191.995 394.182,192.078 392.563 L 192.200 390.200 199.200 389.986 C 203.050 389.868,207.044 389.733,208.076 389.686 C 209.108 389.639,210.072 389.792,210.217 390.027 " stroke="none" fill="#33314d" fill-rule="evenodd"></path><path id="path2" d="M315.200 45.600 C 313.633 47.578,313.512 47.324,317.600 50.611 C 319.470 52.114,322.429 54.576,324.175 56.080 L 327.349 58.817 328.875 57.327 C 329.714 56.508,330.400 55.620,330.400 55.353 C 330.400 54.600,317.696 44.000,316.793 44.000 C 316.614 44.000,315.897 44.720,315.200 45.600 M76.200 48.642 C 71.253 52.697,66.400 57.208,66.400 57.752 C 66.400 58.287,68.839 60.800,69.358 60.800 C 69.534 60.800,71.596 59.132,73.939 57.094 C 76.283 55.056,79.232 52.525,80.494 51.469 L 82.787 49.549 81.494 47.790 C 79.852 45.558,79.989 45.536,76.200 48.642 M347.484 76.644 C 346.503 77.574,346.090 78.242,346.313 78.540 C 346.503 78.793,347.735 80.350,349.052 82.000 C 350.369 83.650,352.582 86.575,353.970 88.500 C 355.358 90.425,356.578 92.000,356.681 92.000 C 357.031 92.000,360.400 89.466,360.400 89.203 C 360.400 88.350,350.127 75.199,349.465 75.203 C 349.209 75.205,348.318 75.853,347.484 76.644 M45.871 79.700 C 42.893 83.364,37.208 91.432,37.205 92.000 C 37.202 92.551,40.672 95.087,40.965 94.748 C 41.036 94.667,42.229 92.980,43.616 91.000 C 45.002 89.020,47.309 85.886,48.740 84.036 L 51.344 80.672 49.772 79.342 C 47.758 77.638,47.531 77.659,45.871 79.700 M384.878 244.945 C 384.688 245.195,384.117 247.020,383.608 249.000 C 383.099 250.980,382.067 254.553,381.315 256.940 C 380.562 259.327,380.003 261.326,380.073 261.382 C 380.682 261.872,384.230 262.730,384.506 262.454 C 385.117 261.843,388.808 249.077,388.906 247.236 L 389.000 245.471 387.112 244.980 C 385.704 244.614,385.136 244.605,384.878 244.945 M13.066 248.222 C 12.003 248.504,11.032 248.834,10.910 248.956 C 10.525 249.342,15.269 264.956,16.013 265.751 C 16.346 266.107,20.400 264.855,20.400 264.396 C 20.400 264.261,19.865 262.568,19.212 260.635 C 18.558 258.701,17.460 255.113,16.771 252.660 C 15.279 247.345,15.478 247.584,13.066 248.222 M367.800 289.060 C 366.920 290.739,365.075 294.005,363.700 296.318 C 360.746 301.289,360.758 301.201,362.791 302.547 C 364.968 303.987,364.852 304.055,367.321 299.900 C 373.849 288.917,374.121 288.064,371.499 286.797 C 369.341 285.754,369.624 285.581,367.800 289.060 M28.704 290.118 C 26.799 291.241,26.742 290.931,29.849 296.366 C 35.836 306.840,35.959 306.968,38.409 305.347 C 40.396 304.032,40.465 304.451,37.464 299.546 C 36.068 297.266,34.162 294.005,33.227 292.300 C 31.358 288.890,31.043 288.738,28.704 290.118 M229.985 387.746 C 229.767 387.963,221.855 389.049,217.682 389.436 L 214.763 389.707 214.882 391.953 L 215.000 394.200 218.200 394.115 C 221.377 394.031,232.335 392.598,232.717 392.217 C 233.409 391.525,232.149 387.794,231.185 387.682 C 230.627 387.617,230.087 387.646,229.985 387.746 M170.606 388.391 C 170.028 389.325,169.726 392.407,170.175 392.780 C 170.681 393.199,187.125 395.009,187.452 394.681 C 187.897 394.236,188.102 390.000,187.679 390.000 C 186.667 390.000,171.757 388.369,171.313 388.210 C 171.045 388.114,170.727 388.195,170.606 388.391 " stroke="none" fill="#3babd0" fill-rule="evenodd"></path><path id="path3" d="M196.707 4.690 C 197.426 4.779,198.506 4.777,199.107 4.686 C 199.708 4.595,199.120 4.522,197.800 4.524 C 196.480 4.526,195.988 4.601,196.707 4.690 M211.897 5.436 C 211.383 5.950,211.555 9.613,212.100 9.763 C 212.375 9.839,215.750 10.202,219.600 10.570 C 223.450 10.939,227.087 11.340,227.682 11.463 C 228.833 11.701,228.832 11.702,229.359 8.522 C 229.620 6.950,229.740 6.993,223.000 6.240 C 214.467 5.286,212.211 5.123,211.897 5.436 M174.714 6.395 C 165.831 7.586,166.278 7.374,166.862 10.113 C 167.312 12.224,167.290 12.215,171.000 11.592 C 173.083 11.243,183.226 10.015,184.121 10.004 C 184.297 10.002,184.387 9.055,184.321 7.900 L 184.200 5.800 182.200 5.729 C 181.100 5.690,177.731 5.990,174.714 6.395 M191.300 9.876 C 191.685 9.976,192.315 9.976,192.700 9.876 C 193.085 9.775,192.770 9.693,192.000 9.693 C 191.230 9.693,190.915 9.775,191.300 9.876 M255.949 14.300 C 254.756 17.347,254.904 17.517,260.400 19.393 C 263.150 20.331,266.636 21.572,268.148 22.150 C 271.597 23.468,271.472 23.481,272.195 21.751 C 273.425 18.807,273.670 18.968,261.817 14.955 C 255.678 12.877,256.472 12.965,255.949 14.300 M133.400 16.368 C 122.287 20.494,122.838 20.138,123.772 22.581 C 124.613 24.783,124.614 24.783,129.492 22.856 C 131.641 22.007,135.065 20.722,137.100 20.001 C 141.150 18.567,141.298 18.366,140.220 15.787 C 139.498 14.058,139.658 14.044,133.400 16.368 M296.654 33.300 L 295.627 35.000 296.513 35.725 C 298.221 37.121,309.644 44.400,310.120 44.395 C 310.665 44.389,312.403 41.875,312.394 41.106 C 312.385 40.408,299.079 31.600,298.034 31.600 C 297.840 31.600,297.219 32.365,296.654 33.300 M91.034 37.885 C 87.165 40.461,84.000 42.813,84.000 43.111 C 84.000 43.723,85.940 46.400,86.384 46.400 C 86.818 46.400,100.600 37.145,100.600 36.853 C 100.600 36.376,98.653 33.200,98.360 33.200 C 98.199 33.200,94.903 35.308,91.034 37.885 M67.206 56.194 C 66.463 56.961,65.932 57.650,66.027 57.725 C 66.122 57.800,66.806 57.173,67.546 56.331 C 69.229 54.418,69.012 54.331,67.206 56.194 M70.706 59.811 C 69.884 60.575,69.354 61.200,69.527 61.200 C 69.701 61.200,70.454 60.570,71.200 59.800 C 72.941 58.003,72.643 58.010,70.706 59.811 M332.434 60.165 C 330.768 61.884,330.386 61.234,337.271 68.386 L 343.141 74.484 344.822 72.916 L 346.504 71.347 340.990 65.455 C 334.047 58.035,334.330 58.209,332.434 60.165 M58.154 65.700 C 55.748 68.175,53.069 71.077,52.201 72.150 L 50.622 74.100 52.211 75.444 C 53.085 76.183,53.898 76.791,54.019 76.794 C 54.360 76.803,65.600 64.480,65.600 64.097 C 65.600 63.732,63.105 61.200,62.746 61.200 C 62.627 61.200,60.561 63.225,58.154 65.700 M361.093 94.614 C 359.197 95.903,359.191 95.861,361.757 99.957 C 362.943 101.851,364.853 105.065,366.002 107.100 C 367.150 109.135,368.173 110.800,368.274 110.800 C 368.643 110.800,372.000 108.717,372.000 108.487 C 372.000 107.575,363.460 93.600,362.902 93.600 C 362.728 93.600,361.914 94.056,361.093 94.614 M31.322 101.300 C 24.901 112.407,25.150 111.564,27.880 112.950 C 29.756 113.903,29.659 113.990,32.397 108.900 C 33.788 106.315,35.617 103.101,36.463 101.757 C 38.358 98.744,38.358 98.743,36.409 97.453 C 34.235 96.015,34.488 95.824,31.322 101.300 M380.900 134.667 C 378.944 135.357,378.919 135.469,380.023 138.637 C 380.475 139.937,381.557 143.416,382.425 146.369 C 384.301 152.743,383.891 152.204,386.376 151.567 C 388.800 150.946,388.771 151.385,386.828 144.760 C 383.617 133.808,383.568 133.725,380.900 134.667 M13.841 140.300 C 12.823 143.383,10.000 153.471,10.000 154.028 C 10.000 154.415,13.862 155.333,14.313 155.054 C 14.506 154.934,14.896 153.793,15.178 152.518 C 15.639 150.438,18.359 141.215,19.020 139.492 C 19.225 138.958,18.871 138.631,17.408 138.004 C 14.854 136.909,14.991 136.821,13.841 140.300 M390.451 178.286 L 389.101 178.458 389.405 182.529 C 389.572 184.768,389.819 188.670,389.954 191.200 L 390.200 195.800 392.304 195.921 C 395.030 196.078,394.982 196.260,394.405 187.875 C 393.693 177.527,393.828 177.856,390.451 178.286 M5.460 181.903 C 5.141 182.419,4.342 198.382,4.613 198.820 C 4.742 199.029,5.798 199.200,6.961 199.200 L 9.075 199.200 9.390 192.100 C 9.563 188.195,9.726 184.280,9.752 183.400 L 9.800 181.800 7.736 181.680 C 6.600 181.615,5.576 181.715,5.460 181.903 M5.600 203.825 C 7.003 204.135,9.518 204.190,9.343 203.907 C 9.238 203.738,8.218 203.621,7.076 203.646 C 5.934 203.672,5.270 203.752,5.600 203.825 M389.709 206.800 C 389.709 207.790,389.787 208.195,389.882 207.700 C 389.978 207.205,389.978 206.395,389.882 205.900 C 389.787 205.405,389.709 205.810,389.709 206.800 M388.590 224.653 C 388.139 227.870,386.462 237.816,386.182 238.928 C 385.898 240.061,386.568 240.413,389.258 240.539 C 390.770 240.610,390.622 241.053,392.185 231.767 C 393.414 224.460,393.461 223.202,392.500 223.196 C 392.115 223.193,391.139 223.082,390.332 222.948 L 388.863 222.706 388.590 224.653 M9.200 226.269 C 6.345 226.711,6.374 226.685,6.642 228.508 C 7.119 231.752,8.835 241.012,9.245 242.550 L 9.658 244.101 11.513 243.847 C 14.169 243.482,14.162 243.523,12.837 236.758 C 12.174 233.371,11.490 229.625,11.316 228.433 C 10.986 226.170,10.836 226.016,9.200 226.269 M378.032 266.900 C 376.755 270.200,375.049 274.323,373.640 277.518 C 371.640 282.053,371.640 281.800,373.639 282.820 C 375.930 283.988,375.969 283.947,378.703 277.541 C 383.346 266.658,383.230 267.398,380.440 266.458 C 378.594 265.836,378.432 265.866,378.032 266.900 M19.470 269.875 C 18.165 270.416,17.975 270.648,18.178 271.455 C 18.642 273.305,24.267 285.892,24.999 286.718 C 25.246 286.998,28.800 284.997,28.800 284.579 C 28.800 284.325,27.834 282.066,26.653 279.558 C 25.473 277.051,23.988 273.697,23.353 272.105 C 22.103 268.967,21.918 268.861,19.470 269.875 M355.579 309.282 C 354.161 311.306,351.965 314.274,350.700 315.876 C 349.435 317.477,348.400 318.955,348.400 319.160 C 348.400 319.528,351.306 322.000,351.738 322.000 C 351.995 322.000,359.333 312.247,361.032 309.647 L 362.177 307.893 360.804 306.747 C 358.785 305.061,358.408 305.244,355.579 309.282 M40.693 309.414 C 38.812 310.692,38.782 310.498,41.439 314.202 C 48.789 324.445,49.603 325.142,51.829 323.100 L 53.246 321.800 50.506 318.387 C 48.999 316.510,46.708 313.495,45.413 311.687 C 42.781 308.011,42.768 308.004,40.693 309.414 M333.600 336.525 C 333.600 336.594,334.185 337.179,334.900 337.825 L 336.200 339.000 335.025 337.700 C 333.930 336.488,333.600 336.216,333.600 336.525 M328.175 340.435 C 327.529 341.114,324.700 343.581,321.888 345.916 C 316.514 350.380,316.507 350.394,318.103 352.418 C 319.457 354.136,319.720 354.003,326.500 348.175 C 333.532 342.130,333.254 342.545,331.559 340.614 C 330.041 338.885,329.668 338.865,328.175 340.435 M70.300 342.984 C 69.695 343.713,69.200 344.487,69.200 344.705 C 69.200 345.476,81.548 355.600,82.490 355.600 C 83.283 355.600,85.445 352.478,84.965 352.026 C 84.764 351.837,83.167 350.552,81.415 349.169 C 79.664 347.787,76.926 345.518,75.332 344.128 C 72.014 341.234,71.793 341.184,70.300 342.984 M292.980 365.971 C 292.771 366.174,289.540 367.892,285.800 369.787 C 281.985 371.720,279.048 373.445,279.110 373.716 C 280.051 377.859,280.090 377.859,288.200 373.782 C 297.236 369.240,296.754 369.657,295.562 367.411 C 294.637 365.667,293.781 365.189,292.980 365.971 M106.874 368.754 C 105.569 371.076,105.434 370.951,113.653 375.006 C 121.911 379.079,121.722 379.039,122.620 376.891 C 123.531 374.711,123.546 374.724,115.684 370.827 C 107.161 366.601,107.976 366.793,106.874 368.754 M249.866 383.661 C 248.362 384.100,244.889 384.964,242.147 385.581 C 236.329 386.892,236.705 386.663,237.029 388.691 C 237.512 391.710,237.862 391.700,250.339 388.318 C 255.352 386.959,255.251 387.079,254.039 383.900 C 253.550 382.618,253.460 382.613,249.866 383.661 M148.575 384.997 C 147.240 388.193,147.528 388.344,160.000 390.983 C 165.173 392.078,165.132 392.090,165.460 389.322 L 165.699 387.306 163.873 387.032 C 161.768 386.716,150.945 384.206,149.898 383.791 C 149.351 383.574,149.058 383.842,148.575 384.997 M207.792 389.886 C 208.888 389.977,209.937 390.265,210.123 390.526 C 210.358 390.855,210.412 390.817,210.299 390.400 C 210.182 389.967,209.533 389.789,207.969 389.760 L 205.800 389.720 207.792 389.886 M214.493 390.800 C 214.493 391.570,214.575 391.885,214.676 391.500 C 214.776 391.115,214.776 390.485,214.676 390.100 C 214.575 389.715,214.493 390.030,214.493 390.800 M192.165 390.548 C 192.049 390.849,192.013 392.064,192.084 393.248 L 192.213 395.400 192.407 392.699 C 192.601 389.981,192.552 389.539,192.165 390.548 M197.100 390.295 C 198.255 390.376,200.145 390.376,201.300 390.295 C 202.455 390.214,201.510 390.148,199.200 390.148 C 196.890 390.148,195.945 390.214,197.100 390.295 M210.400 393.171 C 210.400 394.330,210.217 394.789,209.700 394.924 C 209.173 395.062,209.223 395.119,209.900 395.154 C 210.707 395.195,210.800 395.014,210.800 393.400 C 210.800 392.410,210.710 391.600,210.600 391.600 C 210.490 391.600,210.400 392.307,210.400 393.171 M182.900 394.676 C 183.285 394.776,183.915 394.776,184.300 394.676 C 184.685 394.575,184.370 394.493,183.600 394.493 C 182.830 394.493,182.515 394.575,182.900 394.676 M196.521 395.498 C 198.677 395.571,202.097 395.570,204.121 395.498 C 206.144 395.425,204.380 395.366,200.200 395.367 C 196.020 395.367,194.364 395.426,196.521 395.498 " stroke="none" fill="#5c5c5c" fill-rule="evenodd"></path><path id="path4" d="M199.480 390.299 L 192.361 390.419 192.480 392.709 L 192.600 395.000 199.800 395.120 C 209.233 395.277,210.400 395.113,210.400 393.625 C 210.400 390.603,210.029 389.993,208.250 390.090 C 207.343 390.140,203.396 390.234,199.480 390.299 " stroke="none" fill="#f6be64" fill-rule="evenodd"></path></g></svg>