<svg id="wave" style="transform:rotate(0deg); transition: 0.3s" viewBox="0 0 1440 100" version="1.1" xmlns="http://www.w3.org/2000/svg"><defs><linearGradient id="sw-gradient-0" x1="0" x2="0" y1="1" y2="0"><stop stop-color="rgba(26, 24, 46, 1)" offset="0%"></stop><stop stop-color="rgba(26, 24, 46, 1)" offset="100%"></stop></linearGradient></defs><path style="transform:translate(0, 0px); opacity:1" fill="url(#sw-gradient-0)" d="M0,40L26.7,38.3C53.3,37,107,33,160,41.7C213.3,50,267,70,320,73.3C373.3,77,427,63,480,55C533.3,47,587,43,640,50C693.3,57,747,73,800,76.7C853.3,80,907,70,960,68.3C1013.3,67,1067,73,1120,68.3C1173.3,63,1227,47,1280,48.3C1333.3,50,1387,70,1440,68.3C1493.3,67,1547,43,1600,38.3C1653.3,33,1707,47,1760,56.7C1813.3,67,1867,73,1920,63.3C1973.3,53,2027,27,2080,15C2133.3,3,2187,7,2240,15C2293.3,23,2347,37,2400,45C2453.3,53,2507,57,2560,63.3C2613.3,70,2667,80,2720,76.7C2773.3,73,2827,57,2880,43.3C2933.3,30,2987,20,3040,28.3C3093.3,37,3147,63,3200,73.3C3253.3,83,3307,77,3360,76.7C3413.3,77,3467,83,3520,85C3573.3,87,3627,83,3680,81.7C3733.3,80,3787,80,3813,80L3840,80L3840,100L3813.3,100C3786.7,100,3733,100,3680,100C3626.7,100,3573,100,3520,100C3466.7,100,3413,100,3360,100C3306.7,100,3253,100,3200,100C3146.7,100,3093,100,3040,100C2986.7,100,2933,100,2880,100C2826.7,100,2773,100,2720,100C2666.7,100,2613,100,2560,100C2506.7,100,2453,100,2400,100C2346.7,100,2293,100,2240,100C2186.7,100,2133,100,2080,100C2026.7,100,1973,100,1920,100C1866.7,100,1813,100,1760,100C1706.7,100,1653,100,1600,100C1546.7,100,1493,100,1440,100C1386.7,100,1333,100,1280,100C1226.7,100,1173,100,1120,100C1066.7,100,1013,100,960,100C906.7,100,853,100,800,100C746.7,100,693,100,640,100C586.7,100,533,100,480,100C426.7,100,373,100,320,100C266.7,100,213,100,160,100C106.7,100,53,100,27,100L0,100Z"></path></svg>