<svg id="wave" style="transform:rotate(0deg); transition: 0.3s" viewBox="0 0 1440 110" version="1.1" xmlns="http://www.w3.org/2000/svg"><defs><linearGradient id="sw-gradient-0" x1="0" x2="0" y1="1" y2="0"><stop stop-color="rgba(26, 24, 46, 1)" offset="0%"></stop><stop stop-color="rgba(26, 24, 46, 1)" offset="100%"></stop></linearGradient></defs><path style="transform:translate(0, 0px); opacity:1" fill="url(#sw-gradient-0)" d="M0,44L21.8,44C43.6,44,87,44,131,36.7C174.5,29,218,15,262,11C305.5,7,349,15,393,25.7C436.4,37,480,51,524,62.3C567.3,73,611,81,655,69.7C698.2,59,742,29,785,14.7C829.1,0,873,0,916,14.7C960,29,1004,59,1047,64.2C1090.9,70,1135,51,1178,47.7C1221.8,44,1265,55,1309,66C1352.7,77,1396,88,1440,86.2C1483.6,84,1527,70,1571,62.3C1614.5,55,1658,55,1702,58.7C1745.5,62,1789,70,1833,62.3C1876.4,55,1920,33,1964,31.2C2007.3,29,2051,48,2095,56.8C2138.2,66,2182,66,2225,64.2C2269.1,62,2313,59,2356,55C2400,51,2444,48,2487,53.2C2530.9,59,2575,73,2618,66C2661.8,59,2705,29,2749,16.5C2792.7,4,2836,7,2880,7.3C2923.6,7,2967,4,3011,1.8C3054.5,0,3098,0,3120,0L3141.8,0L3141.8,110L3120,110C3098.2,110,3055,110,3011,110C2967.3,110,2924,110,2880,110C2836.4,110,2793,110,2749,110C2705.5,110,2662,110,2618,110C2574.5,110,2531,110,2487,110C2443.6,110,2400,110,2356,110C2312.7,110,2269,110,2225,110C2181.8,110,2138,110,2095,110C2050.9,110,2007,110,1964,110C1920,110,1876,110,1833,110C1789.1,110,1745,110,1702,110C1658.2,110,1615,110,1571,110C1527.3,110,1484,110,1440,110C1396.4,110,1353,110,1309,110C1265.5,110,1222,110,1178,110C1134.5,110,1091,110,1047,110C1003.6,110,960,110,916,110C872.7,110,829,110,785,110C741.8,110,698,110,655,110C610.9,110,567,110,524,110C480,110,436,110,393,110C349.1,110,305,110,262,110C218.2,110,175,110,131,110C87.3,110,44,110,22,110L0,110Z"></path></svg>